SplineFontDB: 3.0
FontName: Oxygen
FullName: Oxygen
FamilyName: Oxygen
Weight: Book
Copyright: Copyright (c) 2011 by vernon adams. All rights reserved.
Version: 1.000
ItalicAngle: 0
UnderlinePosition: -103
UnderlineWidth: 102
Ascent: 1638
Descent: 410
sfntRevision: 0x00010000
LayerCount: 2
Layer: 0 1 "Back"  1
Layer: 1 1 "Fore"  0
XUID: [1021 118 1023546858 14054278]
FSType: 0
OS2Version: 4
OS2_WeightWidthSlopeOnly: 0
OS2_UseTypoMetrics: 1
CreationTime: 1326352587
ModificationTime: 1326476366
PfmFamily: 17
TTFWeight: 400
TTFWidth: 5
LineGap: 0
VLineGap: 0
Panose: 2 0 5 3 0 0 0 9 0 4
OS2TypoAscent: -71
OS2TypoAOffset: 1
OS2TypoDescent: -82
OS2TypoDOffset: 1
OS2TypoLinegap: 132
OS2WinAscent: -58
OS2WinAOffset: 1
OS2WinDescent: -189
OS2WinDOffset: 1
HheadAscent: 0
HheadAOffset: 1
HheadDescent: 0
HheadDOffset: 1
OS2SubXSize: 1434
OS2SubYSize: 1331
OS2SubXOff: 0
OS2SubYOff: 286
OS2SupXSize: 1434
OS2SupYSize: 1331
OS2SupXOff: 0
OS2SupYOff: 976
OS2StrikeYSize: 102
OS2StrikeYPos: 498
OS2Vendor: 'newt'
OS2CodePages: 20000007.00000000
OS2UnicodeRanges: 00000007.00000000.00000000.00000000
Lookup: 258 0 0 "'kern' Horizontal Kerning lookup 0"  {"'kern' Horizontal Kerning lookup 0 subtable" [307,30,0] } ['kern' ('DFLT' <'dflt' > 'cyrl' <'dflt' > 'grek' <'dflt' > 'latn' <'dflt' > ) ]
MarkAttachClasses: 1
DEI: 91125
ShortTable: maxp 16
  0
  0
  0
  0
  0
  0
  0
  2
  1
  2
  22
  0
  256
  0
  0
  0
EndShort
TtTable: prep
PUSHW_1
 511
SCANCTRL
PUSHB_1
 1
SCANTYPE
SVTCA[y-axis]
MPPEM
PUSHB_1
 8
LT
IF
PUSHB_2
 1
 1
INSTCTRL
EIF
PUSHB_2
 70
 6
CALL
IF
POP
PUSHB_1
 16
EIF
MPPEM
PUSHB_1
 20
GT
IF
POP
PUSHB_1
 128
EIF
SCVTCI
PUSHB_1
 6
CALL
NOT
IF
SVTCA[y-axis]
PUSHB_1
 4
DUP
RCVT
PUSHB_1
 3
CALL
WCVTP
PUSHB_1
 8
DUP
RCVT
PUSHB_3
 4
 138
 2
CALL
PUSHB_1
 3
CALL
WCVTP
PUSHB_1
 7
DUP
RCVT
PUSHB_3
 8
 99
 2
CALL
PUSHB_1
 3
CALL
WCVTP
PUSHB_1
 6
DUP
RCVT
PUSHB_3
 7
 33
 2
CALL
PUSHB_1
 3
CALL
WCVTP
PUSHB_1
 5
DUP
RCVT
PUSHB_3
 6
 20
 2
CALL
PUSHB_1
 3
CALL
WCVTP
PUSHB_1
 9
DUP
RCVT

StartChar: exclam
Encoding: 33 33 4
Width: 486
Flags: W
HStem: -23 208<154 331> 1442 20G<154 331>
VStem: 154 177<-23 185 1035.84 1462>
LayerCount: 2
Fore
SplineSet
331 1462 m 1,0,-1
 331 1234 l 1,1,-1
 275 377 l 1,2,-1
 216 377 l 1,3,-1
 154 1234 l 1,4,-1
 154 1462 l 1,5,-1
 331 1462 l 1,0,-1
154 -23 m 1,6,-1
 154 185 l 1,7,-1
 331 185 l 1,8,-1
 331 -23 l 1,9,-1
 154 -23 l 1,6,-1
EndSplineSet
EndChar

StartChar: quotedbl
Encoding: 34 34 5
Width: 710
Flags: W
HStem: 1063 492<167 281 459 574>
VStem: 137 144<1319.89 1555> 167 114<1063 1298.11> 429 145<1319.89 1555> 459 115<1063 1298.11>
LayerCount: 2
Fore
SplineSet
459 1063 m 1,0,-1
 429 1555 l 1,1,-1
 574 1555 l 1,2,-1
 574 1063 l 1,3,-1
 459 1063 l 1,0,-1
167 1063 m 1,4,-1
 137 1555 l 1,5,-1
 281 1555 l 1,6,-1
 281 1063 l 1,7,-1
 167 1063 l 1,4,-1
EndSplineSet
EndChar

StartChar: numbersign
Encoding: 35 35 6
Width: 1134
Flags: W
HStem: -23 21G<189 321.695 549 703.972> 410 126<101 262 422 633 804 941> 931 124<177 345 527 737 894 1018> 1442 20G<448.921 606 828.511 960>
VStem: 189 129<-23 106> 453 153<1309 1462> 549 151<-23 128> 832 128<1334 1462>
DStem2: 189 -23 318 -23 0.190392 0.981708<24.5606 438.978 593.136 941.714 1122.63 1508.1> 345 930 502 931 0.190392 0.981708<-939.315 -526.291 -372.133 0 157.365 542.831> 549 -23 700 -23 0.187203 0.982321<28.2677 441.07 596.854 972.329 1123.53 1123.53>
LayerCount: 2
Fore
SplineSet
1032 1055 m 1,0,-1
 1018 931 l 1,1,-1
 871 931 l 1,2,-1
 804 536 l 1,3,-1
 951 536 l 1,4,-1
 941 410 l 1,5,-1
 786 410 l 1,6,-1
 700 -23 l 1,7,-1
 549 -23 l 1,8,-1
 633 410 l 1,9,-1
 398 410 l 1,10,-1
 318 -23 l 1,11,-1
 189 -23 l 1,12,-1
 262 410 l 1,13,-1
 91 410 l 1,14,-1
 101 536 l 1,15,-1
 284 536 l 1,16,-1
 345 930 l 1,17,-1
 168 930 l 1,18,-1
 177 1055 l 1,19,-1
 370 1055 l 1,20,-1
 453 1462 l 1,21,-1
 606 1462 l 1,22,-1
 527 1055 l 1,23,-1
 761 1055 l 1,24,-1
 832 1462 l 1,25,-1
 960 1462 l 1,26,-1
 894 1055 l 1,27,-1
 1032 1055 l 1,0,-1
737 931 m 1,28,-1
 502 931 l 1,29,-1
 422 536 l 1,30,-1
 658 536 l 1,31,-1
 737 931 l 1,28,-1
EndSplineSet
EndChar

StartChar: dollar
Encoding: 36 36 7
Width: 1158
Flags: W
HStem: -23 164<308.492 535 643 751.281> 1317 168<367.25 535 643 845.195>
VStem: 113 173<976.807 1239.14> 535 108<-173 -23 148 628 865 1317 1489 1591> 867 181<245.908 516.017>
DStem2: 478 884 420 705 0.945238 -0.326383<-176.028 60.0798 239.518 437.387>
LayerCount: 2
Fore
SplineSet
535 1591 m 1,0,-1
 643 1591 l 1,1,-1
 643 1485 l 1,2,3
 875 1467 875 1467 995 1378 c 1,4,-1
 939 1225 l 1,5,6
 827.683555174 1300.01760412 827.683555174 1300.01760412 643 1317 c 1,7,-1
 643 828 l 1,8,9
 950.208 740.226285714 950.208 740.226285714 1020 564.5 c 0,10,11
 1048 494 1048 494 1048 356 c 128,-1,12
 1048 218 1048 218 940 114 c 128,-1,13
 832 10 832 10 643 -15 c 1,14,-1
 643 -173 l 1,15,-1
 535 -173 l 1,16,-1
 535 -23 l 1,17,18
 297 -18 297 -18 113 100 c 1,19,-1
 174 261 l 1,20,21
 318 147 318 147 535 141 c 1,22,-1
 535 669 l 1,23,-1
 420 705 l 1,24,25
 113 808.744827586 113 808.744827586 113 1083 c 0,26,27
 113 1265 113 1265 232 1373.5 c 128,-1,28
 351 1482 351 1482 535 1489 c 1,29,-1
 535 1591 l 1,0,-1
643 148 m 1,30,31
 867 190.666666667 867 190.666666667 867 392 c 0,32,33
 867 550.823529412 867 550.823529412 643 628 c 1,34,-1
 643 148 l 1,30,31
535 1321 m 1,35,36
 286 1308.00869565 286 1308.00869565 286 1100 c 0,37,38
 286 951.2 286 951.2 478 884 c 1,39,-1
 535 865 l 1,40,-1
 535 1321 l 1,35,36
EndSplineSet
EndChar

StartChar: percent
Encoding: 37 37 8
Width: 1877
Flags: W
HStem: -15 113<1297.72 1563.42> 640 114<1298.71 1564.7> 728 116<303.701 535.217> 1378 111<308.656 532.985> 1442 20G<1185.15 1358>
VStem: 103 127<924.544 1287.01> 611 129<926.725 1288.34> 1079 126<198.492 538.957> 1657 127<199.639 538.648>
DStem2: 401 -4 536 -4 0.489074 0.872242<66.025 1667.52>
LayerCount: 2
Fore
SplineSet
1172 646 m 128,-1,1
 1265 754 1265 754 1432.5 754 c 128,-1,2
 1600 754 1600 754 1692 647.5 c 128,-1,3
 1784 541 1784 541 1784 371 c 128,-1,4
 1784 201 1784 201 1690.5 93 c 128,-1,5
 1597 -15 1597 -15 1430 -15 c 128,-1,6
 1263 -15 1263 -15 1171 92.5 c 128,-1,7
 1079 200 1079 200 1079 369 c 128,-1,0
 1079 538 1079 538 1172 646 c 128,-1,1
1431 640 m 128,-1,9
 1324 640 1324 640 1264.5 561 c 128,-1,10
 1205 482 1205 482 1205 368 c 128,-1,11
 1205 254 1205 254 1264.5 176 c 128,-1,12
 1324 98 1324 98 1431 98 c 128,-1,13
 1538 98 1538 98 1597.5 177 c 128,-1,14
 1657 256 1657 256 1657 370 c 128,-1,15
 1657 484 1657 484 1597.5 562 c 128,-1,8
 1538 640 1538 640 1431 640 c 128,-1,9
190 1380 m 128,-1,17
 277 1489 277 1489 421.5 1489 c 128,-1,18
 566 1489 566 1489 653 1381 c 128,-1,19
 740 1273 740 1273 740 1106.5 c 128,-1,20
 740 940 740 940 652 834 c 128,-1,21
 564 728 564 728 419.5 728 c 128,-1,22
 275 728 275 728 189 833.5 c 128,-1,23
 103 939 103 939 103 1105 c 128,-1,16
 103 1271 103 1271 190 1380 c 128,-1,17
401 -4 m 1,24,-1
 1196 1462 l 1,25,-1
 1358 1462 l 1,26,-1
 536 -4 l 1,27,-1
 401 -4 l 1,24,-1
420 1378 m 128,-1,29
 330 1378 330 1378 280 1298 c 128,-1,30
 230 1218 230 1218 230 1104 c 128,-1,31
 230 990 230 990 279.5 917 c 128,-1,32
 329 844 329 844 420 844 c 128,-1,33
 511 844 511 844 561 918 c 128,-1,34
 611 992 611 992 611 1106 c 128,-1,35
 611 1220 611 1220 560.5 1299 c 128,-1,28
 510 1378 510 1378 420 1378 c 128,-1,29
EndSplineSet
EndChar

StartChar: ampersand
Encoding: 38 38 9
Width: 1477
Flags: W
HStem: -23 155<418.283 851.528> 1345 144<515.358 798.956>
VStem: 104 177<254.811 548.5> 268 187<1036.51 1285.18> 858 188<1051.83 1286.7>
DStem2: 707 804 544 726 0.684982 -0.72856<0 587.23>
LayerCount: 2
Fore
SplineSet
104 395 m 0,0,1
 104 668.367088608 104 668.367088608 441 839 c 1,2,3
 300.279761905 997.68452381 300.279761905 997.68452381 284.139880952 1057.8422619 c 128,-1,4
 268 1118 268 1118 268 1165 c 0,5,6
 268 1315 268 1315 374 1402 c 128,-1,7
 480 1489 480 1489 621 1489 c 128,-1,8
 762 1489 762 1489 848.5 1456.5 c 0,9,10
 1046 1382.29479769 1046 1382.29479769 1046 1173.43687253 c 128,-1,11
 1046 964.578947368 1046 964.578947368 707 804 c 1,12,-1
 1108 375 l 1,13,14
 1188 459 1188 459 1250 599 c 1,15,-1
 1371 507 l 1,16,17
 1308 370 1308 370 1212 257 c 1,18,-1
 1393 41 l 1,19,20
 1294 6 1294 6 1236 -11 c 1,21,-1
 1100 143 l 1,22,23
 896 -23 896 -23 631.5 -23 c 128,-1,24
 367 -23 367 -23 235.5 87.5 c 128,-1,25
 104 198 104 198 104 395 c 0,0,1
985 259 m 1,26,-1
 544 726 l 1,27,28
 281 592.412698413 281 592.412698413 281 406 c 0,29,30
 281 277 281 277 373 204.5 c 128,-1,31
 465 132 465 132 645 132 c 128,-1,32
 825 132 825 132 985 259 c 1,26,-1
801 1299.5 m 128,-1,34
 744 1345 744 1345 655.5 1345 c 128,-1,35
 567 1345 567 1345 511 1297 c 128,-1,36
 455 1249 455 1249 455 1173 c 0,37,38
 455 1056.05263158 455 1056.05263158 605 910 c 1,39,40
 800.036026201 1004.37227074 800.036026201 1004.37227074 839.5 1086.5 c 0,41,42
 858 1125 858 1125 858 1189.5 c 128,-1,33
 858 1254 858 1254 801 1299.5 c 128,-1,34
EndSplineSet
EndChar

StartChar: quotesingle
Encoding: 39 39 10
Width: 417
Flags: W
HStem: 1063 494<168 281>
VStem: 137 144<1328.55 1557> 168 113<1063 1291.45>
LayerCount: 2
Fore
SplineSet
168 1063 m 1,0,-1
 137 1557 l 1,1,-1
 281 1557 l 1,2,-1
 281 1063 l 1,3,-1
 168 1063 l 1,0,-1
EndSplineSet
EndChar

StartChar: parenleft
Encoding: 40 40 11
Width: 612
Flags: W
HStem: 1485 20G<247.5 518>
VStem: 125 165<276.18 997.497> 373 147<-223 -76>
LayerCount: 2
Fore
SplineSet
518 1505 m 1,0,1
 290 1088 290 1088 290 639.716981132 c 128,-1,2
 290 191.433962264 290 191.433962264 520 -223 c 1,3,-1
 373 -223 l 1,4,5
 125 204.357142857 125 204.357142857 125 632.178571429 c 128,-1,6
 125 1060 125 1060 370 1505 c 1,7,-1
 518 1505 l 1,0,1
EndSplineSet
EndChar

StartChar: parenright
Encoding: 41 41 12
Width: 612
Flags: W
HStem: 1485 20G<93 364.5>
VStem: 93 145<-223 -78> 322 166<275.681 995.524>
LayerCount: 2
Fore
SplineSet
241 1505 m 1,0,1
 488 1056 488 1056 488 631.101769912 c 128,-1,2
 488 206.203539823 488 206.203539823 238 -223 c 1,3,-1
 93 -223 l 1,4,5
 322 189.632075472 322 189.632075472 322 637.816037736 c 128,-1,6
 322 1086 322 1086 93 1505 c 1,7,-1
 241 1505 l 1,0,1
EndSplineSet
EndChar

StartChar: asterisk
Encoding: 42 42 13
Width: 1081
Flags: W
LayerCount: 2
Fore
SplineSet
641 915 m 1,0,1
 682.317073171 866.170731707 682.317073171 866.170731707 897 568 c 1,2,3
 875 551 875 551 830 521 c 128,-1,4
 785 491 785 491 762 474 c 1,5,-1
 537 843 l 1,6,-1
 320 474 l 1,7,-1
 184 568 l 1,8,-1
 438 915 l 1,9,-1
 91 1050 l 1,10,-1
 159 1213 l 1,11,-1
 483 1019 l 1,12,-1
 451 1442 l 1,13,-1
 629 1442 l 1,14,-1
 600 1019 l 1,15,-1
 921 1213 l 1,16,17
 981.6 1071.6 981.6 1071.6 992 1050 c 1,18,-1
 641 915 l 1,0,1
EndSplineSet
EndChar

StartChar: plus
Encoding: 43 43 14
Width: 1081
Flags: W
HStem: 0 21G<484 619> 472 134<101 484 621 989>
VStem: 484 135<0 472 606 1065>
LayerCount: 2
Fore
SplineSet
101 606 m 1,0,-1
 487 606 l 1,1,-1
 487 1065 l 1,2,-1
 621 1065 l 1,3,-1
 621 606 l 1,4,-1
 989 606 l 1,5,-1
 989 472 l 1,6,-1
 619 472 l 1,7,-1
 619 0 l 1,8,-1
 484 0 l 1,9,-1
 484 472 l 1,10,-1
 101 472 l 1,11,-1
 101 606 l 1,0,-1
EndSplineSet
EndChar

StartChar: comma
Encoding: 44 44 15
Width: 508
Flags: W
HStem: -276 506<220 240>
VStem: 126 256
LayerCount: 2
Fore
SplineSet
382 230 m 1,0,-1
 240 -276 l 1,1,-1
 126 -276 l 1,2,-1
 220 230 l 1,3,-1
 382 230 l 1,0,-1
EndSplineSet
EndChar

StartChar: hyphen
Encoding: 45 45 16
Width: 731
Flags: W
HStem: 521 142<139 600>
VStem: 139 461<521 663>
LayerCount: 2
Fore
SplineSet
139 521 m 1,0,-1
 139 663 l 1,1,-1
 600 663 l 1,2,-1
 600 521 l 1,3,-1
 139 521 l 1,0,-1
EndSplineSet
EndChar

StartChar: period
Encoding: 46 46 17
Width: 472
Flags: W
HStem: 0 245<134 342>
VStem: 134 208<0 245>
LayerCount: 2
Fore
SplineSet
134 0 m 1,0,-1
 134 245 l 1,1,-1
 342 245 l 1,2,-1
 342 0 l 1,3,-1
 134 0 l 1,0,-1
EndSplineSet
EndChar

StartChar: slash
Encoding: 47 47 18
Width: 952
Flags: W
HStem: 1446 20G<717.971 872>
DStem2: 50 -218 194 -218 0.373479 0.927639<53.781 1814.62>
LayerCount: 2
Fore
SplineSet
194 -218 m 1,0,-1
 50 -218 l 1,1,-1
 726 1466 l 1,2,-1
 872 1466 l 1,3,-1
 194 -218 l 1,0,-1
EndSplineSet
EndChar

StartChar: zero
Encoding: 48 48 19
Width: 1275
Flags: W
HStem: -23 167<495.76 782.156> 1323 166<495.247 782.651>
VStem: 126 192<396.219 1072.52> 960 189<398.986 1073.01>
LayerCount: 2
Fore
SplineSet
639 -23 m 128,-1,1
 506 -23 506 -23 406 32.5 c 128,-1,2
 306 88 306 88 245.5 190 c 0,3,4
 126 391.47107438 126 391.47107438 126 678.23553719 c 128,-1,5
 126 965 126 965 180.5 1132.5 c 128,-1,6
 235 1300 235 1300 351.5 1394.5 c 128,-1,7
 468 1489 468 1489 639 1489 c 128,-1,8
 810 1489 810 1489 925.5 1394.5 c 0,9,10
 1149 1211.63636364 1149 1211.63636364 1149 731 c 0,11,12
 1149 187.286432161 1149 187.286432161 871.5 32.5 c 0,13,0
 772 -23 772 -23 639 -23 c 128,-1,1
639 1323 m 128,-1,15
 485 1323 485 1323 401.5 1165.5 c 128,-1,16
 318 1008 318 1008 318 734.5 c 128,-1,17
 318 461 318 461 401.5 302.5 c 128,-1,18
 485 144 485 144 639 144 c 128,-1,19
 793 144 793 144 876.5 302.5 c 128,-1,20
 960 461 960 461 960 734.5 c 128,-1,21
 960 1008 960 1008 876.5 1165.5 c 128,-1,14
 793 1323 793 1323 639 1323 c 128,-1,15
EndSplineSet
EndChar

StartChar: one
Encoding: 49 49 20
Width: 666
Flags: W
HStem: 0 21G<330 509> 1442 20G<255.5 509>
VStem: 330 179<0 1295>
LayerCount: 2
Fore
SplineSet
330 1462 m 1,0,-1
 509 1462 l 1,1,-1
 509 0 l 1,2,-1
 330 0 l 1,3,-1
 330 1295 l 1,4,5
 207 1213 207 1213 85 1158 c 1,6,-1
 85 1315 l 1,7,8
 181 1357 181 1357 330 1462 c 1,0,-1
EndSplineSet
EndChar

StartChar: two
Encoding: 50 50 21
Width: 1102
Flags: W
HStem: 0 154<301 968> 1323 166<301.673 689.395>
VStem: 787 193<897.423 1227.21>
DStem2: 126 189 301 154 0.67224 0.740333<91.7303 1007.42>
LayerCount: 2
Fore
SplineSet
787 1061 m 0,0,1
 787 1323 787 1323 509 1323 c 0,2,3
 313 1323 313 1323 188 1197 c 1,4,-1
 130 1354 l 1,5,6
 277 1489 277 1489 501 1489 c 128,-1,7
 725 1489 725 1489 852.5 1378.5 c 128,-1,8
 980 1268 980 1268 980 1077 c 0,9,10
 980 907.514018692 980 907.514018692 852.5 739.5 c 0,11,12
 799 669 799 669 707 569 c 1,13,-1
 301 154 l 1,14,-1
 968 154 l 1,15,-1
 968 0 l 1,16,-1
 126 0 l 1,17,-1
 126 189 l 1,18,-1
 590 700 l 1,19,20
 787 892 787 892 787 1061 c 0,0,1
EndSplineSet
EndChar

StartChar: three
Encoding: 51 51 22
Width: 1128
Flags: W
HStem: -23 155<273.809 707.486> 662 175<329 640.857> 1332 157<272.264 689.076>
VStem: 777 192<945.917 1245.45> 830 175<243.404 528.456>
LayerCount: 2
Fore
SplineSet
969 1120 m 0,0,1
 969 843.056 969 843.056 706 761 c 1,2,3
 845 732 845 732 925 635.5 c 128,-1,4
 1005 539 1005 539 1005 370.5 c 128,-1,5
 1005 202 1005 202 864 89.5 c 128,-1,6
 723 -23 723 -23 545.5 -23 c 0,7,8
 237.086956522 -23 237.086956522 -23 111 93 c 1,9,-1
 167 240 l 1,10,11
 307 132 307 132 478.5 132 c 0,12,13
 830 132 830 132 830 392 c 0,14,15
 830 646.90625 830 646.90625 411 660 c 0,16,17
 379 661 379 661 329 662 c 1,18,-1
 329 837 l 1,19,20
 569 837 569 837 638 876 c 128,-1,21
 707 915 707 915 729 942 c 0,22,23
 777 1000.90909091 777 1000.90909091 777 1097 c 0,24,25
 777 1332 777 1332 502 1332 c 0,26,27
 300.204081633 1332 300.204081633 1332 167 1225 c 1,28,-1
 111 1376 l 1,29,30
 260 1489 260 1489 540 1489 c 0,31,32
 786.298245614 1489 786.298245614 1489 907.5 1320.5 c 0,33,34
 969 1235 969 1235 969 1120 c 0,0,1
EndSplineSet
EndChar

StartChar: four
Encoding: 52 52 23
Width: 1180
Flags: W
HStem: 0 21G<762 930> 371 138<262 762 930 1101> 1442 20G<728.991 930>
VStem: 762 168<0 371 509 1232>
DStem2: 86 524 262 509 0.573697 0.819068<88.6846 967.719>
LayerCount: 2
Fore
SplineSet
1101 371 m 1,0,-1
 930 371 l 1,1,-1
 930 0 l 1,2,-1
 762 0 l 1,3,-1
 762 371 l 1,4,-1
 86 371 l 1,5,-1
 86 524 l 1,6,-1
 743 1462 l 1,7,-1
 930 1462 l 1,8,-1
 930 509 l 1,9,-1
 1101 509 l 1,10,-1
 1101 371 l 1,0,-1
762 1232 m 1,11,-1
 262 509 l 1,12,-1
 762 509 l 1,13,-1
 762 1232 l 1,11,-1
EndSplineSet
EndChar

StartChar: five
Encoding: 53 53 24
Width: 1182
Flags: W
HStem: -23 162<294.25 710.933> 776 157<403.128 743.783> 1297 165<369 994>
VStem: 873 181<295.67 645.355>
LayerCount: 2
Fore
SplineSet
994 1462 m 1,0,-1
 994 1297 l 1,1,-1
 369 1297 l 1,2,3
 355 881 355 881 354 861 c 1,4,5
 468 933 468 933 589 933 c 128,-1,6
 710 933 710 933 797.5 897.5 c 128,-1,7
 885 862 885 862 940.5 800 c 0,8,9
 1054 673.207207207 1054 673.207207207 1054 461.603603604 c 128,-1,10
 1054 250 1054 250 908.5 113.5 c 128,-1,11
 763 -23 763 -23 512.5 -23 c 128,-1,12
 262 -23 262 -23 111 114 c 1,13,-1
 176 255 l 1,14,15
 322 139 322 139 502.5 139 c 128,-1,16
 683 139 683 139 778 232 c 128,-1,17
 873 325 873 325 873 467 c 128,-1,18
 873 609 873 609 792.5 692.5 c 128,-1,19
 712 776 712 776 564 776 c 128,-1,20
 416 776 416 776 327 677 c 1,21,-1
 188 696 l 1,22,-1
 227 1462 l 1,23,-1
 994 1462 l 1,0,-1
EndSplineSet
EndChar

StartChar: six
Encoding: 54 54 25
Width: 1234
Flags: W
HStem: -23 160<429.025 798.756> 759 153<460.703 807.852> 1442 20G<736 991>
VStem: 108 174<280.566 611.536> 744 247<1215 1462> 953 183<287.491 616.664>
DStem2: 528 1224 429 852 0.677579 0.73545<-339.609 321.394>
LayerCount: 2
Fore
SplineSet
429 852 m 1,0,1
 537.461538462 912 537.461538462 912 712.230769231 912 c 128,-1,2
 887 912 887 912 1011.5 788 c 128,-1,3
 1136 664 1136 664 1136 456 c 0,4,5
 1136 250 1136 250 1002 116 c 0,6,7
 863 -23 863 -23 617.5 -23 c 128,-1,8
 372 -23 372 -23 240 111.5 c 128,-1,9
 108 246 108 246 108 459 c 128,-1,10
 108 672 108 672 218 838 c 128,-1,11
 328 1004 328 1004 528 1224 c 128,-1,12
 728 1444 728 1444 744 1462 c 1,13,-1
 991 1462 l 1,14,-1
 429 852 l 1,0,1
370 668.5 m 128,-1,16
 282 578 282 578 282 444 c 128,-1,17
 282 310 282 310 372 223.5 c 128,-1,18
 462 137 462 137 613.5 137 c 128,-1,19
 765 137 765 137 859 225.5 c 128,-1,20
 953 314 953 314 953 450 c 128,-1,21
 953 586 953 586 864.5 672.5 c 128,-1,22
 776 759 776 759 617 759 c 128,-1,15
 458 759 458 759 370 668.5 c 128,-1,16
EndSplineSet
EndChar

StartChar: seven
Encoding: 55 55 26
Width: 1084
Flags: W
HStem: 0 21G<270 460.075> 1303 159<86 784>
DStem2: 270 0 452 0 0.374405 0.927265<68.1417 1400.67>
LayerCount: 2
Fore
SplineSet
270 0 m 1,0,-1
 784 1303 l 1,1,-1
 86 1303 l 1,2,-1
 86 1462 l 1,3,-1
 987 1462 l 1,4,-1
 987 1325 l 1,5,-1
 452 0 l 1,6,-1
 270 0 l 1,0,-1
EndSplineSet
EndChar

StartChar: eight
Encoding: 56 56 27
Width: 1225
Flags: W
HStem: -23 167<422.199 812.31> 1323 166<437.318 797.154>
VStem: 132 171<252.873 537.274> 158 177<971.214 1234.51> 897 176<971.025 1234.51> 928 171<248.976 535.427>
LayerCount: 2
Fore
SplineSet
835 764 m 1,0,1
 1099 671.297709924 1099 671.297709924 1099 375 c 0,2,3
 1099 119.813953488 1099 119.813953488 861.5 21.5 c 0,4,5
 754 -23 754 -23 618 -23 c 128,-1,6
 482 -23 482 -23 373.5 21.5 c 0,7,8
 132 120.548387097 132 120.548387097 132 395.950249886 c 128,-1,9
 132 671.352112676 132 671.352112676 418 764 c 1,10,11
 158 852 158 852 158 1120 c 0,12,13
 158 1293 158 1293 286 1391 c 128,-1,14
 414 1489 414 1489 617.5 1489 c 128,-1,15
 821 1489 821 1489 947 1391 c 128,-1,16
 1073 1293 1073 1293 1073 1120 c 0,17,18
 1073 852 1073 852 835 764 c 1,0,1
618 686 m 1,19,20
 303 617.232394366 303 617.232394366 303 390 c 0,21,22
 303 272 303 272 390.5 208 c 128,-1,23
 478 144 478 144 617.5 144 c 128,-1,24
 757 144 757 144 842.5 207.5 c 128,-1,25
 928 271 928 271 928 388 c 0,26,27
 928 618.323943662 928 618.323943662 618 686 c 1,19,20
618 844 m 1,28,29
 897 902.208633094 897 902.208633094 897 1114 c 0,30,31
 897 1211 897 1211 816 1267 c 128,-1,32
 735 1323 735 1323 618 1323 c 128,-1,33
 501 1323 501 1323 418 1267 c 128,-1,34
 335 1211 335 1211 335 1114 c 0,35,36
 335 903 335 903 618 844 c 1,28,29
EndSplineSet
EndChar

StartChar: nine
Encoding: 57 57 28
Width: 1231
Flags: W
HStem: -23 21G<252 513.5> 557 150<425.242 771.39> 1332 157<439.461 802.111>
VStem: 108 183<843.272 1185.37> 940 172<847.615 1193.56>
DStem2: 252 -23 488 -23 0.652448 0.757834<153.978 843.725>
LayerCount: 2
Fore
SplineSet
803 617 m 1,0,1
 694.538461538 557 694.538461538 557 523.269230769 557 c 128,-1,2
 352 557 352 557 230 680 c 128,-1,3
 108 803 108 803 108 1010 c 0,4,5
 108 1337.4375 108 1337.4375 400 1451.5 c 0,6,7
 496 1489 496 1489 615 1489 c 128,-1,8
 734 1489 734 1489 829.5 1452.5 c 128,-1,9
 925 1416 925 1416 986 1351 c 0,10,11
 1112 1216.73770492 1112 1216.73770492 1112 1006 c 0,12,13
 1112 853.720930233 1112 853.720930233 1076 775.860465116 c 128,-1,14
 1040 698 1040 698 1023.5 664 c 128,-1,15
 1007 630 1007 630 969 575.5 c 128,-1,16
 931 521 931 521 904.5 484.5 c 128,-1,17
 878 448 878 448 821.5 379 c 128,-1,18
 765 310 765 310 727.5 264.5 c 128,-1,19
 690 219 690 219 614.5 129 c 128,-1,20
 539 39 539 39 488 -23 c 1,21,-1
 252 -23 l 1,22,-1
 803 617 l 1,0,1
906 866.5 m 128,-1,24
 940 937 940 937 940 1048 c 128,-1,25
 940 1159 940 1159 855 1245.5 c 128,-1,26
 770 1332 770 1332 620 1332 c 128,-1,27
 470 1332 470 1332 380.5 1242.5 c 128,-1,28
 291 1153 291 1153 291 1015.5 c 128,-1,29
 291 878 291 878 374 792.5 c 128,-1,30
 457 707 457 707 589 707 c 128,-1,31
 721 707 721 707 796.5 751.5 c 128,-1,23
 872 796 872 796 906 866.5 c 128,-1,24
EndSplineSet
EndChar

StartChar: colon
Encoding: 58 58 29
Width: 494
Flags: W
HStem: -25 233<146 352> 893 231<146 352>
VStem: 146 206<-25 208 893 1124>
LayerCount: 2
Fore
SplineSet
146 893 m 1,0,-1
 146 1124 l 1,1,-1
 352 1124 l 1,2,-1
 352 893 l 1,3,-1
 146 893 l 1,0,-1
146 -25 m 1,4,-1
 146 208 l 1,5,-1
 352 208 l 1,6,-1
 352 -25 l 1,7,-1
 146 -25 l 1,4,-1
EndSplineSet
EndChar

StartChar: semicolon
Encoding: 59 59 30
Width: 518
Flags: W
HStem: -310 21G<138 255.931> 893 231<174 380>
VStem: 174 206<893 1124>
LayerCount: 2
Fore
SplineSet
174 893 m 1,0,-1
 174 1124 l 1,1,-1
 380 1124 l 1,2,-1
 380 893 l 1,3,-1
 174 893 l 1,0,-1
376 197 m 1,4,-1
 251 -310 l 1,5,-1
 138 -310 l 1,6,-1
 194 197 l 1,7,-1
 376 197 l 1,4,-1
EndSplineSet
EndChar

StartChar: less
Encoding: 60 60 31
Width: 1179
Flags: W
DStem2: 294 596 103 547 0.886866 -0.462026<0 852.249>
LayerCount: 2
Fore
SplineSet
1061 982 m 1,0,-1
 294 596 l 1,1,-1
 1057 216 l 1,2,-1
 1057 50 l 1,3,-1
 103 547 l 1,4,-1
 103 642 l 1,5,-1
 1061 1149 l 1,6,-1
 1061 982 l 1,0,-1
EndSplineSet
EndChar

StartChar: equal
Encoding: 61 61 32
Width: 1286
Flags: W
HStem: 305 147<145 1146> 741 150<143 1146>
LayerCount: 2
Fore
SplineSet
145 452 m 1,0,-1
 1146 452 l 1,1,-1
 1146 305 l 1,2,-1
 145 305 l 1,3,-1
 145 452 l 1,0,-1
143 891 m 1,4,-1
 1146 891 l 1,5,-1
 1146 741 l 1,6,-1
 143 741 l 1,7,-1
 143 891 l 1,4,-1
EndSplineSet
EndChar

StartChar: greater
Encoding: 62 62 33
Width: 1182
Flags: W
DStem2: 126 230 126 62 0.893681 0.448702<0 848.789> 130 1160 130 997 0.878457 -0.477822<77.8849 937.041>
LayerCount: 2
Fore
SplineSet
126 230 m 1,0,-1
 891 598 l 1,1,-1
 130 997 l 1,2,-1
 130 1160 l 1,3,-1
 1086 640 l 1,4,-1
 1086 544 l 1,5,-1
 126 62 l 1,6,-1
 126 230 l 1,0,-1
EndSplineSet
EndChar

StartChar: question
Encoding: 63 63 34
Width: 867
Flags: W
HStem: 0 230<253 473> 1343 146<192 540.426>
VStem: 253 220<0 230> 280 143<436 692.093> 612 155<995.096 1274.86>
DStem2: 446 865 558.5 793 0.717119 0.69695<-193.152 266.164>
LayerCount: 2
Fore
SplineSet
128 1257 m 2,0,-1
 86 1383 l 1,1,2
 222 1489 222 1489 390 1489 c 128,-1,3
 558 1489 558 1489 662.5 1401 c 128,-1,4
 767 1313 767 1313 767 1154 c 0,5,6
 767 1028.83606557 767 1028.83606557 717.5 963.918032787 c 128,-1,7
 668 899 668 899 631.5 863 c 128,-1,8
 595 827 595 827 558.5 793 c 128,-1,9
 522 759 522 759 491.5 724.5 c 0,10,11
 423 647.016393443 423 647.016393443 423 547 c 2,12,-1
 423 436 l 1,13,-1
 289 436 l 1,14,15
 280 552 280 552 280 606 c 128,-1,16
 280 660 280 660 304.5 706.5 c 128,-1,17
 329 753 329 753 366 788.5 c 128,-1,18
 403 824 403 824 446 865 c 128,-1,19
 489 906 489 906 526 944 c 0,20,21
 612 1032.32432432 612 1032.32432432 612 1137.16216216 c 0,22,23
 612 1343 612 1343 367 1343 c 0,24,25
 258 1343 258 1343 193.5 1300 c 128,-1,26
 129 1257 129 1257 128 1257 c 2,0,-1
253 0 m 1,27,-1
 253 230 l 1,28,-1
 473 230 l 1,29,-1
 473 0 l 1,30,-1
 253 0 l 1,27,-1
EndSplineSet
EndChar

StartChar: at
Encoding: 64 64 35
Width: 1797
Flags: W
HStem: -239 121<659.408 1163.76> 146 121<1182.99 1382.27> 165 126<735.434 949.094> 868 118<835.904 1138.11> 1254 120<673.585 1200.76>
VStem: 110 129<308.744 815.913> 569 133<322.575 706.635> 1569 127<588.848 912.924>
DStem2: 1109.5 706 1263 707 0.20184 0.979419<-311.658 151.11>
LayerCount: 2
Fore
SplineSet
1423 -54 m 1,0,1
 1221.18181818 -239 1221.18181818 -239 906 -239 c 0,2,3
 568.799043062 -239 568.799043062 -239 342 -17.5 c 0,4,5
 110 209.079439252 110 209.079439252 110 569 c 0,6,7
 110 904.589861751 110 904.589861751 346.5 1140 c 0,8,9
 581.583333333 1374 581.583333333 1374 925 1374 c 0,10,11
 1251.52 1374 1251.52 1374 1472 1188.5 c 0,12,13
 1696 1000.03846154 1696 1000.03846154 1696 688 c 1,14,15
 1573.27027027 403.783783784 1573.27027027 403.783783784 1517.13513514 330.891891892 c 128,-1,16
 1461 258 1461 258 1420.5 220 c 0,17,18
 1341.63157895 146 1341.63157895 146 1239 146 c 0,19,20
 1078 146 1078 146 1055 304 c 1,21,22
 960 165 960 165 833 165 c 128,-1,23
 706 165 706 165 637.5 250 c 128,-1,24
 569 335 569 335 569 458 c 128,-1,25
 569 581 569 581 593 669.5 c 128,-1,26
 617 758 617 758 665 830 c 0,27,28
 769 986 769 986 944 986 c 128,-1,29
 1119 986 1119 986 1302 925 c 1,30,31
 1280 839 1280 839 1263 707 c 0,32,33
 1227.00820606 427.534305904 1227.00820606 427.534305904 1171 373 c 1,34,35
 1171 267 1171 267 1260 267 c 0,36,37
 1363.07207207 267 1363.07207207 267 1436.03603604 356 c 0,38,39
 1569 518.186813187 1569 518.186813187 1569 690 c 128,-1,40
 1569 862 1569 862 1484.5 991 c 0,41,42
 1312.2248062 1254 1312.2248062 1254 920 1254 c 0,43,44
 735 1254 735 1254 578.5 1164 c 128,-1,45
 422 1074 422 1074 330.5 916 c 128,-1,46
 239 758 239 758 239 586.5 c 128,-1,47
 239 415 239 415 292.5 284.5 c 128,-1,48
 346 154 346 154 437.5 67 c 0,49,50
 632.068965517 -118 632.068965517 -118 902.034482759 -118 c 128,-1,51
 1172 -118 1172 -118 1353 34 c 1,52,-1
 1423 -54 l 1,0,1
841 291 m 0,53,54
 1021.88888889 291 1021.88888889 291 1109.5 706 c 0,55,56
 1119 751 1119 751 1128 796 c 128,-1,57
 1137 841 1137 841 1140 854 c 1,58,59
 1090 868 1090 868 997 868 c 128,-1,60
 904 868 904 868 848.5 833 c 128,-1,61
 793 798 793 798 762 739 c 0,62,63
 702 624.806451613 702 624.806451613 702 457.903225806 c 128,-1,64
 702 291 702 291 841 291 c 0,53,54
EndSplineSet
EndChar

StartChar: A
Encoding: 65 65 36
Width: 1515
Flags: W
HStem: 0 21G<94 283.78 1233.77 1423> 473 158<518 1008> 1477 20G<660.331 887.255>
DStem2: 94 0 276 0 0.358018 0.933715<65.1592 572.682 740.974 1452.04> 880 1497 775 1294 0.340987 -0.940068<155.03 857.745 1027.42 1530.38>
LayerCount: 2
Fore
SplineSet
94 0 m 1,0,-1
 668 1497 l 1,1,-1
 880 1497 l 1,2,-1
 1423 0 l 1,3,-1
 1241 0 l 1,4,-1
 1070 473 l 1,5,-1
 460 473 l 1,6,-1
 276 0 l 1,7,-1
 94 0 l 1,0,-1
1008 631 m 1,8,-1
 775 1294 l 1,9,-1
 518 631 l 1,10,-1
 1008 631 l 1,8,-1
EndSplineSet
EndChar

StartChar: B
Encoding: 66 66 37
Width: 1359
Flags: W
HStem: 0 156<332 902.703> 677 144<332 874.4> 1306 156<332 866.234>
VStem: 155 177<156 677 821 1306> 974 185<915.647 1210.79> 1041 180<269.295 582.228>
LayerCount: 2
Fore
SplineSet
1016 1377 m 128,-1,1
 1159 1292 1159 1292 1159 1067.31481481 c 128,-1,2
 1159 842.62962963 1159 842.62962963 947 770 c 1,3,4
 1082 741 1082 741 1151.5 647 c 128,-1,5
 1221 553 1221 553 1221 426 c 0,6,7
 1221 0 1221 0 678 0 c 2,8,-1
 155 0 l 1,9,-1
 155 1462 l 1,10,-1
 591 1462 l 2,11,0
 873 1462 873 1462 1016 1377 c 128,-1,1
676 821 m 2,12,13
 974 821 974 821 974 1065 c 0,14,15
 974 1270.81914894 974 1270.81914894 746 1297.5 c 0,16,17
 673.363636364 1306 673.363636364 1306 558 1306 c 2,18,-1
 332 1306 l 1,19,-1
 332 821 l 1,20,-1
 676 821 l 2,12,13
332 677 m 1,21,-1
 332 156 l 1,22,-1
 645 156 l 2,23,24
 846 156 846 156 943.5 218.5 c 128,-1,25
 1041 281 1041 281 1041 423 c 128,-1,26
 1041 565 1041 565 956.5 621 c 128,-1,27
 872 677 872 677 696 677 c 2,28,-1
 332 677 l 1,21,-1
EndSplineSet
EndChar

StartChar: C
Encoding: 67 67 38
Width: 1374
Flags: W
HStem: -23 166<617.523 1092.02> 1359 166<618.21 1088>
VStem: 121 189<475.786 1016.9>
LayerCount: 2
Fore
SplineSet
1210 253 m 1,0,-1
 1268 107 l 1,1,2
 1117 -23 1117 -23 830 -23 c 0,3,4
 418.369230769 -23 418.369230769 -23 231 297.5 c 0,5,6
 121 485.657894737 121 485.657894737 121 679.328947368 c 128,-1,7
 121 873 121 873 147.5 987.5 c 128,-1,8
 174 1102 174 1102 231 1201 c 128,-1,9
 288 1300 288 1300 370 1371.5 c 0,10,11
 546.041958042 1525 546.041958042 1525 831.020979021 1525 c 128,-1,12
 1116 1525 1116 1525 1268 1394 c 1,13,-1
 1209 1237 l 1,14,15
 1064.81818182 1359 1064.81818182 1359 887.909090909 1359 c 128,-1,16
 711 1359 711 1359 605.5 1309 c 128,-1,17
 500 1259 500 1259 436.5 1172 c 0,18,19
 310 998.68503937 310 998.68503937 310 745 c 0,20,21
 310 433.088709677 310 433.088709677 495 264.5 c 0,22,23
 628.327433628 143 628.327433628 143 847.663716814 143 c 128,-1,24
 1067 143 1067 143 1210 253 c 1,0,-1
EndSplineSet
EndChar

StartChar: D
Encoding: 68 68 39
Width: 1574
Flags: W
HStem: 0 156<332 899.566> 1341 156<332 878.697>
VStem: 155 177<156 1341> 1246 193<487.052 1024.89>
LayerCount: 2
Fore
SplineSet
521 1497 m 2,0,1
 1439 1497 1439 1497 1439 748 c 0,2,3
 1439 204.713804714 1439 204.713804714 947.5 47.5 c 0,4,5
 799 0 799 0 620 0 c 2,6,-1
 155 0 l 1,7,-1
 155 1497 l 1,8,-1
 521 1497 l 2,0,1
332 1341 m 1,9,-1
 332 156 l 1,10,-1
 638 156 l 2,11,12
 913 156 913 156 1079.5 309 c 128,-1,13
 1246 462 1246 462 1246 744 c 0,14,15
 1246 975.111111111 1246 975.111111111 1177.5 1074.05555556 c 128,-1,16
 1109 1173 1109 1173 1048 1219 c 128,-1,17
 987 1265 987 1265 906 1291.5 c 0,18,19
 754.698113208 1341 754.698113208 1341 542 1341 c 2,20,-1
 332 1341 l 1,9,-1
EndSplineSet
EndChar

StartChar: E
Encoding: 69 69 40
Width: 1169
Flags: W
HStem: 0 156<332 1031> 680 159<332 975> 1341 156<332 1003>
VStem: 155 177<156 680 839 1341>
LayerCount: 2
Fore
SplineSet
975 839 m 1,0,-1
 975 680 l 1,1,-1
 332 680 l 1,2,-1
 332 156 l 1,3,-1
 1046 156 l 1,4,-1
 1031 0 l 1,5,-1
 155 0 l 1,6,-1
 155 1497 l 1,7,-1
 1017 1497 l 1,8,-1
 1003 1341 l 1,9,-1
 332 1341 l 1,10,-1
 332 839 l 1,11,-1
 975 839 l 1,0,-1
EndSplineSet
EndChar

StartChar: F
Encoding: 70 70 41
Width: 1095
Flags: W
HStem: 0 21G<155 331> 670 160<331 947> 1341 156<331 967>
VStem: 155 176<0 670 830 1341>
LayerCount: 2
Fore
SplineSet
947 830 m 1,0,-1
 947 670 l 1,1,-1
 331 670 l 1,2,-1
 331 0 l 1,3,-1
 155 0 l 1,4,-1
 155 1497 l 1,5,-1
 981 1497 l 1,6,-1
 967 1341 l 1,7,-1
 331 1341 l 1,8,-1
 331 830 l 1,9,-1
 947 830 l 1,0,-1
EndSplineSet
EndChar

StartChar: G
Encoding: 71 71 42
Width: 1489
Flags: W
HStem: -23 162<616.351 1081.5> 615 149<817 1187> 1363 162<625.89 1106.74>
VStem: 121 189<477.726 1018.83> 1187 154<211.734 615>
LayerCount: 2
Fore
SplineSet
1243 1237 m 1,0,1
 1089.50909091 1363 1089.50909091 1363 901.254545455 1363 c 128,-1,2
 713 1363 713 1363 607 1312.5 c 128,-1,3
 501 1262 501 1262 437.5 1175 c 0,4,5
 310 1000.31496063 310 1000.31496063 310 745 c 0,6,7
 310 496.173228346 310 496.173228346 437.5 324.5 c 0,8,9
 575.269005848 139 575.269005848 139 850 139 c 0,10,11
 1025 139 1025 139 1187 234 c 1,12,-1
 1187 615 l 1,13,-1
 817 615 l 1,14,-1
 817 764 l 1,15,-1
 1341 764 l 1,16,-1
 1341 131 l 1,17,18
 1103 -23 1103 -23 831 -23 c 0,19,20
 418.369230769 -23 418.369230769 -23 231 297.5 c 0,21,22
 121 485.657894737 121 485.657894737 121 695.828947368 c 128,-1,23
 121 906 121 906 164.5 1044.5 c 128,-1,24
 208 1183 208 1183 293 1291.5 c 0,25,26
 475.926267281 1525 475.926267281 1525 831 1525 c 0,27,28
 1147.484375 1525 1147.484375 1525 1301 1394 c 1,29,-1
 1243 1237 l 1,0,1
EndSplineSet
EndChar

StartChar: H
Encoding: 72 72 43
Width: 1483
Flags: W
HStem: 0 21G<155 331 1148 1324> 696 152<331 1148> 1477 20G<155 331 1148 1324>
VStem: 155 176<0 696 848 1497> 1148 176<0 696 848 1497>
LayerCount: 2
Fore
SplineSet
1148 696 m 1,0,-1
 331 696 l 1,1,-1
 331 0 l 1,2,-1
 155 0 l 1,3,-1
 155 1497 l 1,4,-1
 331 1497 l 1,5,-1
 331 848 l 1,6,-1
 1148 848 l 1,7,-1
 1148 1497 l 1,8,-1
 1324 1497 l 1,9,-1
 1324 0 l 1,10,-1
 1148 0 l 1,11,-1
 1148 696 l 1,0,-1
EndSplineSet
EndChar

StartChar: I
Encoding: 73 73 44
Width: 490
Flags: W
HStem: 0 21G<155 331> 1477 20G<155 331>
VStem: 155 176<0 1497>
LayerCount: 2
Fore
SplineSet
331 1497 m 1,0,-1
 331 0 l 1,1,-1
 155 0 l 1,2,-1
 155 1497 l 1,3,-1
 331 1497 l 1,0,-1
EndSplineSet
EndChar

StartChar: J
Encoding: 74 74 45
Width: 665
Flags: W
HStem: -26 157<94 278.053> 1477 20G<331 510>
VStem: 331 179<182.082 1497>
LayerCount: 2
Fore
SplineSet
331 384 m 2,0,-1
 331 1497 l 1,1,-1
 510 1497 l 1,2,-1
 510 433 l 2,3,4
 510 201.942857143 510 201.942857143 480.5 145.471428571 c 128,-1,5
 451 89 451 89 423 58 c 128,-1,6
 395 27 395 27 353.5 10.5 c 0,7,8
 261.696969697 -26 261.696969697 -26 123 -26 c 2,9,-1
 94 -26 l 1,10,-1
 94 131 l 1,11,-1
 141 131 l 1,12,13
 288.939618644 136.582627119 288.939618644 136.582627119 316 234 c 0,14,15
 331 288 331 288 331 384 c 2,0,-1
EndSplineSet
EndChar

StartChar: K
Encoding: 75 75 46
Width: 1340
Flags: W
HStem: 0 21G<155 331 1030.4 1271> 1477 20G<155 331 951.448 1202>
VStem: 155 176<0 581 770 1497> 969 233<1264 1497> 1048 223<0 223>
DStem2: 331 770 590 778 0.659602 0.751615<176.85 967.25> 590 778 448 682 0.658642 -0.752457<0 887.069>
LayerCount: 2
Fore
SplineSet
590 778 m 1,0,-1
 1271 0 l 1,1,-1
 1048 0 l 1,2,-1
 448 682 l 1,3,-1
 331 581 l 1,4,-1
 331 0 l 1,5,-1
 155 0 l 1,6,-1
 155 1497 l 1,7,-1
 331 1497 l 1,8,-1
 331 770 l 1,9,-1
 969 1497 l 1,10,-1
 1202 1497 l 1,11,-1
 590 778 l 1,0,-1
EndSplineSet
EndChar

StartChar: L
Encoding: 76 76 47
Width: 1062
Flags: W
HStem: 0 156<332 977> 1477 20G<155 332>
VStem: 155 177<156 1497>
LayerCount: 2
Fore
SplineSet
155 1497 m 1,0,-1
 332 1497 l 1,1,-1
 332 156 l 1,2,-1
 977 156 l 1,3,-1
 977 0 l 1,4,-1
 155 0 l 1,5,-1
 155 1497 l 1,0,-1
EndSplineSet
EndChar

StartChar: M
Encoding: 77 77 48
Width: 1801
Flags: W
HStem: 0 21G<155 322 1476 1642> 1477 20G<155 376.72 1429.39 1642>
VStem: 155 167<0 1159> 1476 166<0 1153>
DStem2: 367 1497 322 1159 0.437129 -0.899399<284.326 1233.05> 906 388 1004 163 0.43318 0.901307<0 936.413>
LayerCount: 2
Fore
SplineSet
322 1159 m 1,0,-1
 322 0 l 1,1,-1
 155 0 l 1,2,-1
 155 1497 l 1,3,-1
 367 1497 l 1,4,-1
 906 388 l 1,5,-1
 1439 1497 l 1,6,-1
 1642 1497 l 1,7,-1
 1642 0 l 1,8,-1
 1476 0 l 1,9,-1
 1476 1153 l 1,10,-1
 1004 163 l 1,11,-1
 803 163 l 1,12,-1
 322 1159 l 1,0,-1
EndSplineSet
EndChar

StartChar: N
Encoding: 78 78 49
Width: 1508
Flags: W
HStem: 0 21G<155 317 1138.31 1349> 1477 20G<155 362.676 1188 1349>
VStem: 155 162<0 1230> 1188 161<261 1497>
DStem2: 349 1497 317 1230 0.561632 -0.827387<202.94 1493.86>
LayerCount: 2
Fore
SplineSet
1349 0 m 1,0,-1
 1152 0 l 1,1,-1
 408 1087 l 1,2,-1
 317 1230 l 1,3,-1
 317 0 l 1,4,-1
 155 0 l 1,5,-1
 155 1497 l 1,6,-1
 349 1497 l 1,7,-1
 1095 406 l 1,8,-1
 1188 261 l 1,9,-1
 1188 1497 l 1,10,-1
 1349 1497 l 1,11,-1
 1349 0 l 1,0,-1
EndSplineSet
EndChar

StartChar: O
Encoding: 79 79 50
Width: 1716
Flags: W
HStem: -23 162<621.037 1078.5> 1363 162<622.155 1079.58>
VStem: 121 189<467.019 1019.39> 1391 189<477.304 1030.07>
LayerCount: 2
Fore
SplineSet
851 -23 m 0,0,1
 675 -23 675 -23 535.5 34 c 128,-1,2
 396 91 396 91 306 193.5 c 0,3,4
 121 404.194444444 121 404.194444444 121 755.097222222 c 128,-1,5
 121 1106 121 1106 314 1315.5 c 128,-1,6
 507 1525 507 1525 851 1525 c 128,-1,7
 1195 1525 1195 1525 1387.5 1315.5 c 128,-1,8
 1580 1106 1580 1106 1580 746 c 0,9,10
 1580 403.055555556 1580 403.055555556 1396 193.5 c 0,11,12
 1205.90243902 -23 1205.90243902 -23 851 -23 c 0,0,1
851 1363 m 128,-1,14
 719 1363 719 1363 614.5 1315.5 c 128,-1,15
 510 1268 510 1268 444.5 1184 c 0,16,17
 310 1011.51145038 310 1011.51145038 310 746 c 0,18,19
 310 321.423076923 310 321.423076923 614 185.5 c 0,20,21
 718 139 718 139 851 139 c 128,-1,22
 984 139 984 139 1088 185.5 c 128,-1,23
 1192 232 1192 232 1257.5 315 c 0,24,25
 1391 484.167938931 1391 484.167938931 1391 746 c 0,26,27
 1391 1176.65384615 1391 1176.65384615 1087 1315.5 c 0,28,13
 983 1363 983 1363 851 1363 c 128,-1,14
EndSplineSet
EndChar

StartChar: P
Encoding: 80 80 51
Width: 1287
Flags: W
HStem: 0 21G<155 331> 629 155<331 867.094> 1341 156<331 866.965>
VStem: 155 176<0 629 784 1341> 1002 166<913.486 1222.07>
LayerCount: 2
Fore
SplineSet
155 0 m 1,0,-1
 155 1497 l 1,1,-1
 637 1497 l 2,2,3
 889 1497 889 1497 1028.5 1389 c 128,-1,4
 1168 1281 1168 1281 1168 1076 c 128,-1,5
 1168 871 1168 871 1033 750 c 128,-1,6
 898 629 898 629 664 629 c 2,7,-1
 331 629 l 1,8,-1
 331 0 l 1,9,-1
 155 0 l 1,0,-1
331 1341 m 1,10,-1
 331 784 l 1,11,-1
 681 784 l 2,12,13
 827 784 827 784 914.5 863 c 128,-1,14
 1002 942 1002 942 1002 1070.5 c 128,-1,15
 1002 1199 1002 1199 911 1270 c 128,-1,16
 820 1341 820 1341 656 1341 c 2,17,-1
 331 1341 l 1,10,-1
EndSplineSet
EndChar

StartChar: Q
Encoding: 81 81 52
Width: 1715
Flags: W
HStem: -426 21G<1251 1290.67> -23 162<621.037 1078.5> 1363 162<622.155 1079.58>
VStem: 121 189<467.019 1019.39> 1391 189<477.304 1030.07>
DStem2: 1372 -290 1248.5 -403.5 0.707107 -0.707107<-370.725 23.3345>
LayerCount: 2
Fore
SplineSet
851 -23 m 0,0,1
 675 -23 675 -23 535.5 34 c 128,-1,2
 396 91 396 91 306 193.5 c 0,3,4
 121 404.194444444 121 404.194444444 121 755.097222222 c 128,-1,5
 121 1106 121 1106 314 1315.5 c 128,-1,6
 507 1525 507 1525 851 1525 c 128,-1,7
 1195 1525 1195 1525 1387.5 1315.5 c 128,-1,8
 1580 1106 1580 1106 1580 746 c 0,9,10
 1580 403.055555556 1580 403.055555556 1396 193.5 c 0,11,12
 1205.90243902 -23 1205.90243902 -23 851 -23 c 0,0,1
851 1363 m 128,-1,14
 719 1363 719 1363 614.5 1315.5 c 128,-1,15
 510 1268 510 1268 444.5 1184 c 0,16,17
 310 1011.51145038 310 1011.51145038 310 746 c 0,18,19
 310 321.423076923 310 321.423076923 614 185.5 c 0,20,21
 718 139 718 139 851 139 c 128,-1,22
 984 139 984 139 1088 185.5 c 128,-1,23
 1192 232 1192 232 1257.5 315 c 0,24,25
 1391 484.167938931 1391 484.167938931 1391 746 c 0,26,27
 1391 1176.65384615 1391 1176.65384615 1087 1315.5 c 0,28,13
 983 1363 983 1363 851 1363 c 128,-1,14
958 -8 m 1,29,-1
 1132 21 l 1,30,31
 1227.14285714 -169.285714286 1227.14285714 -169.285714286 1372 -290 c 1,32,-1
 1389 -306 l 1,33,-1
 1271 -426 l 1,34,-1
 1248.5 -403.5 l 2,35,36
 1059.71875 -214.71875 1059.71875 -214.71875 958 -8 c 1,29,-1
EndSplineSet
EndChar

StartChar: R
Encoding: 82 82 53
Width: 1389
Flags: W
HStem: 0 21G<155 331 1084.1 1275> 682 159<331 747.117> 1341 156<331 922.365>
VStem: 155 176<0 682 841 1341> 1035 174<955.305 1243.77>
LayerCount: 2
Fore
SplineSet
1209 1105 m 0,0,1
 1209 794.537414966 1209 794.537414966 917 727 c 1,2,3
 1029 625 1029 625 1072 535 c 1,4,-1
 1275 0 l 1,5,-1
 1093 0 l 1,6,-1
 882 474 l 1,7,8
 825 595 825 595 749 674 c 1,9,10
 689 682 689 682 596 682 c 2,11,-1
 331 682 l 1,12,-1
 331 0 l 1,13,-1
 155 0 l 1,14,-1
 155 1497 l 1,15,-1
 614 1497 l 2,16,17
 1033.88888889 1497 1033.88888889 1497 1149 1330.5 c 0,18,19
 1209 1243.71428571 1209 1243.71428571 1209 1105 c 0,0,1
657 841 m 2,20,21
 1035 841 1035 841 1035 1102 c 0,22,23
 1035 1341 1035 1341 698 1341 c 2,24,-1
 331 1341 l 1,25,-1
 331 841 l 1,26,-1
 657 841 l 2,20,21
EndSplineSet
EndChar

StartChar: S
Encoding: 83 83 54
Width: 1335
Flags: W
HStem: -23 162<355.56 906.944> 1357 168<431.969 982.419>
VStem: 137 176<1005.29 1261.11> 1022 178<242.799 540.822>
DStem2: 546 904 476 725 0.976436 -0.215807<-185.854 457.384>
LayerCount: 2
Fore
SplineSet
191 261 m 1,0,1
 360.087719298 139 360.087719298 139 691.043859649 139 c 128,-1,2
 1022 139 1022 139 1022 392 c 0,3,4
 1022 612.373333333 1022 612.373333333 748 669 c 2,5,-1
 476 725 l 1,6,7
 137 799.15625 137 799.15625 137 1119 c 0,8,9
 137 1310 137 1310 289 1417.5 c 128,-1,10
 441 1525 441 1525 635.5 1525 c 0,11,12
 994.173076923 1525 994.173076923 1525 1150 1414 c 1,13,-1
 1090 1261 l 1,14,15
 946 1357 946 1357 689 1357 c 0,16,17
 313 1357 313 1357 313 1136 c 0,18,19
 313 955.777777778 313 955.777777778 546 904 c 2,20,-1
 822 843 l 1,21,22
 1200 753 1200 753 1200 401 c 0,23,24
 1200 87.5894736842 1200 87.5894736842 883 2.5 c 0,25,26
 788 -23 788 -23 672 -23 c 0,27,28
 343 -23 343 -23 133 100 c 1,29,-1
 191 261 l 1,0,1
EndSplineSet
EndChar

StartChar: T
Encoding: 84 84 55
Width: 1167
Flags: W
HStem: 0 21G<495 671> 1341 156<68 495 671 1100>
VStem: 495 176<0 1341>
LayerCount: 2
Fore
SplineSet
68 1341 m 1,0,-1
 68 1497 l 1,1,-1
 1100 1497 l 1,2,-1
 1100 1341 l 1,3,-1
 671 1341 l 1,4,-1
 671 0 l 1,5,-1
 495 0 l 1,6,-1
 495 1341 l 1,7,-1
 68 1341 l 1,0,-1
EndSplineSet
EndChar

StartChar: U
Encoding: 85 85 56
Width: 1420
Flags: W
HStem: -23 166<479.792 933.403> 1477 20G<146 322 1094 1269>
VStem: 146 176<302.9 1497> 1094 175<308.387 1497>
LayerCount: 2
Fore
SplineSet
932.5 4 m 0,0,1
 835 -23 835 -23 691.5 -23 c 128,-1,2
 548 -23 548 -23 436.5 17.5 c 128,-1,3
 325 58 325 58 262.5 135.5 c 0,4,5
 146 279.96 146 279.96 146 541 c 2,6,-1
 146 1497 l 1,7,-1
 322 1497 l 1,8,-1
 322 547 l 2,9,10
 322 330 322 330 412.5 236.5 c 128,-1,11
 503 143 503 143 707 143 c 128,-1,12
 911 143 911 143 1002.5 237 c 128,-1,13
 1094 331 1094 331 1094 547 c 2,14,-1
 1094 1497 l 1,15,-1
 1269 1497 l 1,16,-1
 1269 541 l 2,17,18
 1269 97.1846153846 1269 97.1846153846 932.5 4 c 0,0,1
EndSplineSet
EndChar

StartChar: V
Encoding: 86 86 57
Width: 1416
Flags: W
HStem: 0 21G<581.026 780.722> 1477 20G<66 263.544 1161.45 1351>
VStem: 66 191<1306 1497>
DStem2: 614 406 588 0 0.329254 -0.944241<-727.826 248.721>
LayerCount: 2
Fore
SplineSet
684 167 m 1,0,-1
 757 406 l 1,1,-1
 1169 1497 l 1,2,-1
 1351 1497 l 1,3,-1
 773 0 l 1,4,-1
 588 0 l 1,5,-1
 66 1497 l 1,6,-1
 257 1497 l 1,7,-1
 614 406 l 1,8,-1
 684 167 l 1,0,-1
EndSplineSet
EndChar

StartChar: W
Encoding: 87 87 58
Width: 2108
Flags: W
HStem: 0 21G<443.03 662.346 1440.67 1661.97> 1477 20G<76 263.6 946.923 1168.99 1842.48 2029>
VStem: 76 183<1314 1497> 1847 182<1315 1497>
DStem2: 259 1497 76 1497 0.241163 -0.970485<0 1333.74>
LayerCount: 2
Fore
SplineSet
1553 195 m 1,0,-1
 1847 1497 l 1,1,-1
 2029 1497 l 1,2,-1
 1657 0 l 1,3,-1
 1447 0 l 1,4,-1
 1052 1248 l 1,5,-1
 656 0 l 1,6,-1
 448 0 l 1,7,-1
 76 1497 l 1,8,-1
 259 1497 l 1,9,-1
 558 197 l 1,10,-1
 953 1497 l 1,11,-1
 1163 1497 l 1,12,-1
 1553 195 l 1,0,-1
EndSplineSet
EndChar

StartChar: X
Encoding: 88 88 59
Width: 1457
Flags: W
HStem: 0 21G<93 301.147 1152.35 1370> 1477 20G<125 352.322 1157.79 1362>
VStem: 93 195<0 195> 125 214<1283 1497> 1165 205<0 205 1292 1497>
DStem2: 93 0 288 0 0.582931 0.812521<113.672 765.783 1103.09 1845.33> 339 1497 125 1497 0.57055 -0.821263<0 726.796 1288.54 1700.7>
LayerCount: 2
Fore
SplineSet
93 0 m 1,0,-1
 618 781 l 1,1,-1
 125 1497 l 1,2,-1
 339 1497 l 1,3,-1
 742 892 l 1,4,-1
 1172 1497 l 1,5,-1
 1362 1497 l 1,6,-1
 863 781 l 1,7,-1
 1370 0 l 1,8,-1
 1165 0 l 1,9,-1
 735 680 l 1,10,-1
 288 0 l 1,11,-1
 93 0 l 1,0,-1
EndSplineSet
EndChar

StartChar: Y
Encoding: 89 89 60
Width: 1366
Flags: W
HStem: 0 21G<572 749> 1477 20G<61 260.933 1100.9 1305>
VStem: 61 188<1309 1497> 572 177<0 614> 1113 192<1305 1497>
DStem2: 249 1497 61 1497 0.500882 -0.865516<0 837.184> 678 778 749 614 0.532839 0.846217<0 840.215>
LayerCount: 2
Fore
SplineSet
1305 1497 m 1,0,-1
 749 614 l 1,1,-1
 749 0 l 1,2,-1
 572 0 l 1,3,-1
 572 614 l 1,4,-1
 61 1497 l 1,5,-1
 249 1497 l 1,6,-1
 678 778 l 1,7,-1
 1113 1497 l 1,8,-1
 1305 1497 l 1,0,-1
EndSplineSet
EndChar

StartChar: Z
Encoding: 90 90 61
Width: 1287
Flags: W
HStem: 0 156<344 1178> 1335 162<154 951>
DStem2: 120 139 344 156 0.56928 0.822144<141.495 1456.36>
LayerCount: 2
Fore
SplineSet
1186 1497 m 1,0,-1
 1186 1372 l 1,1,-1
 344 156 l 1,2,-1
 1178 156 l 1,3,-1
 1178 0 l 1,4,-1
 120 0 l 1,5,-1
 120 139 l 1,6,-1
 951 1335 l 1,7,-1
 154 1335 l 1,8,-1
 154 1497 l 1,9,-1
 1186 1497 l 1,0,-1
EndSplineSet
EndChar

StartChar: bracketleft
Encoding: 91 91 62
Width: 590
Flags: W
HStem: -261 122<336 477> 1381 124<336 477>
VStem: 158 319<-261 -139 1381 1505> 158 178<-139 1381>
LayerCount: 2
Fore
SplineSet
477 -139 m 1,0,-1
 477 -261 l 1,1,-1
 158 -261 l 1,2,-1
 158 1505 l 1,3,-1
 477 1505 l 1,4,-1
 477 1381 l 1,5,-1
 336 1381 l 1,6,-1
 336 -139 l 1,7,-1
 477 -139 l 1,0,-1
EndSplineSet
EndChar

StartChar: backslash
Encoding: 92 92 63
Width: 935
Flags: W
HStem: 1446 20G<82 238.209>
DStem2: 230 1466 82 1466 0.38072 -0.92469<0 1658.82>
LayerCount: 2
Fore
SplineSet
881 -120 m 1,0,-1
 735 -120 l 1,1,-1
 82 1466 l 1,2,-1
 230 1466 l 1,3,-1
 881 -120 l 1,0,-1
EndSplineSet
EndChar

StartChar: bracketright
Encoding: 93 93 64
Width: 590
Flags: W
HStem: -261 122<111 255> 1381 124<111 255>
VStem: 111 319<-261 -139 1381 1505> 255 175<-139 1381>
LayerCount: 2
Fore
SplineSet
111 -261 m 1,0,-1
 111 -139 l 1,1,-1
 255 -139 l 1,2,-1
 255 1381 l 1,3,-1
 111 1381 l 1,4,-1
 111 1505 l 1,5,-1
 430 1505 l 1,6,-1
 430 -261 l 1,7,-1
 111 -261 l 1,0,-1
EndSplineSet
EndChar

StartChar: asciicircum
Encoding: 94 94 65
Width: 1204
Flags: W
DStem2: 90 627 227 627 0.439487 0.898249<60.2097 893.831> 651 1559 595 1375 0.444135 -0.89596<139.985 980.711>
LayerCount: 2
Fore
SplineSet
227 627 m 1,0,-1
 90 627 l 1,1,-1
 546 1559 l 1,2,-1
 651 1559 l 1,3,-1
 1113 627 l 1,4,-1
 979 627 l 1,5,-1
 595 1375 l 1,6,-1
 227 627 l 1,0,-1
EndSplineSet
EndChar

StartChar: underscore
Encoding: 95 95 66
Width: 1252
Flags: W
HStem: -292 136<150 1102>
LayerCount: 2
Fore
SplineSet
1102 -156 m 1,0,-1
 1102 -292 l 1,1,-1
 150 -292 l 1,2,-1
 150 -156 l 1,3,-1
 1102 -156 l 1,0,-1
EndSplineSet
EndChar

StartChar: grave
Encoding: 96 96 67
Width: 643
Flags: W
HStem: 1267 336
VStem: 104 414
LayerCount: 2
Fore
SplineSet
387 1267 m 1,0,-1
 104 1603 l 1,1,-1
 315 1603 l 1,2,-1
 518 1267 l 1,3,-1
 387 1267 l 1,0,-1
EndSplineSet
EndChar

StartChar: a
Encoding: 97 97 68
Width: 1117
Flags: W
HStem: -25 144<344.785 694.888> 0 21G<834.548 965> 500 109.5<391.91 794.587> 976 148<322.564 736.965>
VStem: 127 168<167.229 426.849> 796 169<172.384 500 613.596 914.07> 841 124<0 44.4416>
LayerCount: 2
Fore
SplineSet
190 1036 m 1,0,1
 346.444444444 1124 346.444444444 1124 578 1124 c 0,2,3
 965 1124 965 1124 965 806 c 2,4,-1
 965 0 l 1,5,-1
 841 0 l 1,6,-1
 821 62 l 1,7,8
 584 -25 584 -25 443 -25 c 128,-1,9
 302 -25 302 -25 214.5 59.5 c 128,-1,10
 127 144 127 144 127 249 c 128,-1,11
 127 354 127 354 143.5 402 c 128,-1,12
 160 450 160 450 185.5 482 c 128,-1,13
 211 514 211 514 255.5 537 c 128,-1,14
 300 560 300 560 340.5 572 c 128,-1,15
 381 584 381 584 445 592 c 128,-1,16
 509 600 509 600 555.5 603 c 128,-1,17
 602 606 602 606 676.5 609.5 c 128,-1,18
 751 613 751 613 796 617 c 1,19,-1
 796 781 l 2,20,21
 796 976 796 976 582.636363636 976 c 128,-1,22
 369.272727273 976 369.272727273 976 224 882 c 1,23,-1
 190 1036 l 1,0,1
295 301 m 0,24,25
 295 119 295 119 482.3 119 c 0,26,27
 577.6 119 577.6 119 796 184 c 1,28,-1
 796 500 l 1,29,30
 477 484 477 484 386 453.5 c 128,-1,31
 295 423 295 423 295 301 c 0,24,25
EndSplineSet
EndChar

StartChar: b
Encoding: 98 98 69
Width: 1274
Flags: W
HStem: -25 148<480.703 809.173> 0 21G<155 321.405> 976 148<483.588 818.171> 1490 20G<155 324>
VStem: 155 169<0 148 302.319 799.662 939 1510> 967 173<311.12 787.735>
LayerCount: 2
Fore
SplineSet
324 939 m 1,0,1
 436.608695652 1124 436.608695652 1124 671 1124 c 0,2,3
 1013.57575758 1124 1013.57575758 1124 1112 776 c 0,4,5
 1140 677 1140 677 1140 558 c 128,-1,6
 1140 439 1140 439 1112.5 335.5 c 128,-1,7
 1085 232 1085 232 1030 150 c 0,8,9
 912.62195122 -25 912.62195122 -25 684.81097561 -25 c 128,-1,10
 457 -25 457 -25 324 148 c 1,11,-1
 321 0 l 1,12,-1
 155 0 l 1,13,-1
 155 1510 l 1,14,-1
 324 1510 l 1,15,-1
 324 939 l 1,0,1
354 766 m 128,-1,17
 321 673 321 673 321 550.5 c 128,-1,18
 321 428 321 428 354 334 c 0,19,20
 428.074468085 123 428.074468085 123 651 123 c 0,21,22
 887.25 123 887.25 123 950.5 399 c 0,23,24
 967 471 967 471 967 550.5 c 128,-1,25
 967 630 967 630 950.5 702 c 128,-1,26
 934 774 934 774 898.5 837.5 c 0,27,28
 821.070866142 976 821.070866142 976 680.035433071 976 c 128,-1,29
 539 976 539 976 463 917.5 c 128,-1,16
 387 859 387 859 354 766 c 128,-1,17
EndSplineSet
EndChar

StartChar: c
Encoding: 99 99 70
Width: 1101
Flags: W
HStem: -25 143<474.534 862.505> 982 142<477.903 856.789>
VStem: 112 174<326.056 770.463>
LayerCount: 2
Fore
SplineSet
978 75 m 1,0,1
 863.714285714 -25 863.714285714 -25 691.357142857 -25 c 128,-1,2
 519 -25 519 -25 414 22 c 128,-1,3
 309 69 309 69 244 149.5 c 0,4,5
 112 312.976923077 112 312.976923077 112 554 c 0,6,7
 112 842.864 112 842.864 305.5 1008.5 c 0,8,9
 440.429906542 1124 440.429906542 1124 596.214953271 1124 c 0,10,11
 866.886363636 1124 866.886363636 1124 977 1029 c 1,12,-1
 926 902 l 1,13,14
 792 982 792 982 643 982 c 128,-1,15
 494 982 494 982 390 863 c 128,-1,16
 286 744 286 744 286 552 c 128,-1,17
 286 360 286 360 385 239 c 128,-1,18
 484 118 484 118 644 118 c 128,-1,19
 804 118 804 118 927 197 c 1,20,-1
 978 75 l 1,0,1
EndSplineSet
EndChar

StartChar: d
Encoding: 100 100 71
Width: 1240
Flags: W
HStem: -25 148<436.985 760.912> 0 21G<914.595 1081> 976 148<441.267 759.196> 1490 20G<912 1081>
VStem: 114 173<311.677 789.72> 912 169<0 148 301.306 800.422 939 1510>
LayerCount: 2
Fore
SplineSet
912 939 m 1,0,-1
 912 1510 l 1,1,-1
 1081 1510 l 1,2,-1
 1081 0 l 1,3,-1
 915 0 l 1,4,-1
 912 148 l 1,5,6
 782 -25 782 -25 574 -25 c 0,7,8
 235.043478261 -25 235.043478261 -25 141 335.5 c 0,9,10
 114 439 114 439 114 558 c 128,-1,11
 114 677 114 677 141.5 776 c 128,-1,12
 169 875 169 875 223 954 c 0,13,14
 339.202531646 1124 339.202531646 1124 569.296917997 1124 c 128,-1,15
 799.391304348 1124 799.391304348 1124 912 939 c 1,0,-1
896.5 383 m 0,16,17
 915 459 915 459 915 550.5 c 128,-1,18
 915 642 915 642 896.5 717 c 128,-1,19
 878 792 878 792 840 851 c 0,20,21
 759.491525424 976 759.491525424 976 594 976 c 0,22,23
 366.291666667 976 366.291666667 976 303.5 702 c 0,24,25
 287 630 287 630 287 550.5 c 128,-1,26
 287 471 287 471 303.5 399 c 128,-1,27
 320 327 320 327 354 263 c 0,28,29
 428.375 123 428.375 123 594 123 c 0,30,31
 833.210526316 123 833.210526316 123 896.5 383 c 0,16,17
EndSplineSet
EndChar

StartChar: e
Encoding: 101 101 72
Width: 1182
Flags: W
HStem: -25 144<462.903 837.954> 519 116<292 877> 984 140<453.893 753.029>
VStem: 114 172<308.063 519 635 791.701> 877 162<635 847.473>
LayerCount: 2
Fore
SplineSet
286 519 m 1,0,1
 305.565217391 119 305.565217391 119 652.685483871 119 c 0,2,3
 833.370967742 119 833.370967742 119 963 260 c 1,4,-1
 1023 133 l 1,5,6
 873.901408451 -25 873.901408451 -25 630.450704225 -25 c 128,-1,7
 387 -25 387 -25 250.5 135 c 128,-1,8
 114 295 114 295 114 503 c 128,-1,9
 114 711 114 711 175 839.5 c 0,10,11
 305.124315828 1113.61433744 305.124315828 1113.61433744 598 1124 c 0,12,13
 808 1131 808 1131 923.5 985.5 c 128,-1,14
 1039 840 1039 840 1039 583 c 1,15,-1
 1037 519 l 1,16,-1
 286 519 l 1,0,1
803.5 894 m 128,-1,18
 731 984 731 984 606 984 c 128,-1,19
 481 984 481 984 394 890.5 c 128,-1,20
 307 797 307 797 292 635 c 1,21,-1
 877 635 l 1,22,17
 876 804 876 804 803.5 894 c 128,-1,18
EndSplineSet
EndChar

StartChar: f
Encoding: 102 102 73
Width: 775
Flags: W
HStem: 0 21G<244 417> 985 113<88 244 417 639> 1408 128<486 692>
VStem: 244 173<0 985 1098 1330.99>
LayerCount: 2
Fore
SplineSet
88 985 m 1,0,-1
 88 1098 l 1,1,-1
 244 1098 l 1,2,3
 244 1342 244 1342 348 1439 c 128,-1,4
 452 1536 452 1536 692 1536 c 1,5,-1
 692 1408 l 1,6,7
 517.538461538 1408 517.538461538 1408 476.769230769 1355 c 0,8,9
 417 1277.3 417 1277.3 417 1098 c 1,10,-1
 639 1098 l 1,11,-1
 639 985 l 1,12,-1
 417 985 l 1,13,-1
 417 0 l 1,14,-1
 244 0 l 1,15,-1
 244 985 l 1,16,-1
 88 985 l 1,0,-1
EndSplineSet
EndChar

StartChar: g
Encoding: 103 103 74
Width: 1262
Flags: W
HStem: -507 164<358 781.125> 0 158<442.509 777.304> 971 153<441.761 778.578> 1078 20G<935 1108>
VStem: 115 172<341.381 791.263> 935 168<-189.334 184 328.774 794.208 951 1098>
LayerCount: 2
Fore
SplineSet
916.5 401 m 128,-1,1
 935 471 935 471 935 558.5 c 128,-1,2
 935 646 935 646 916.5 719 c 128,-1,3
 898 792 898 792 859.5 849.5 c 0,4,5
 778.147826087 971 778.147826087 971 603 971 c 0,6,7
 368.797101449 971 368.797101449 971 304 708 c 0,8,9
 287 639 287 639 287 571.5 c 128,-1,10
 287 504 287 504 297 448 c 128,-1,11
 307 392 307 392 331 338.5 c 128,-1,12
 355 285 355 285 390.5 245.5 c 0,13,14
 469.139240506 158 469.139240506 158 580.569620253 158 c 128,-1,15
 692 158 692 158 757 189 c 128,-1,16
 822 220 822 220 860 275.5 c 128,-1,0
 898 331 898 331 916.5 401 c 128,-1,1
935 184 m 1,17,18
 815.703296703 -1.84741111298e-13 815.703296703 -1.84741111298e-13 566 0 c 0,19,20
 238.705263158 0 238.705263158 0 141 357 c 0,21,22
 115 452 115 452 115 550.5 c 128,-1,23
 115 649 115 649 132 733 c 128,-1,24
 149 817 149 817 186 889.5 c 128,-1,25
 223 962 223 962 278 1013.5 c 0,26,27
 396.009708738 1124 396.009708738 1124 599.004854369 1124 c 128,-1,28
 802 1124 802 1124 935 951 c 1,29,-1
 935 1098 l 1,30,-1
 1108 1098 l 1,31,32
 1103 846 1103 846 1103 816 c 2,33,-1
 1103 159 l 2,34,35
 1103 -120.130434783 1103 -120.130434783 1065 -203.565217391 c 128,-1,36
 1027 -287 1027 -287 983.5 -343 c 128,-1,37
 940 -399 940 -399 878.5 -431.5 c 0,38,39
 735.630769231 -507 735.630769231 -507 510 -507 c 2,40,-1
 358 -507 l 1,41,-1
 358 -343 l 1,42,-1
 514 -343 l 1,43,44
 780.612031386 -340.004359198 780.612031386 -340.004359198 856 -242 c 0,45,46
 929.756544503 -146.116492147 929.756544503 -146.116492147 932.378272251 -42.5582460733 c 128,-1,47
 935 61 935 61 935 143 c 2,48,-1
 935 184 l 1,17,18
EndSplineSet
EndChar

StartChar: h
Encoding: 104 104 75
Width: 1199
Flags: W
HStem: 0 21G<155 323 882 1048> 971 153<494.458 802.789> 1490 20G<155 323>
VStem: 155 168<0 814.459 945 1510> 882 166<0 882.124>
LayerCount: 2
Fore
SplineSet
323 727 m 1,0,-1
 323 0 l 1,1,-1
 155 0 l 1,2,-1
 155 1510 l 1,3,-1
 323 1510 l 1,4,-1
 323 945 l 1,5,6
 459 1124 459 1124 716 1124 c 0,7,8
 1048 1124 1048 1124 1048 677 c 2,9,-1
 1048 0 l 1,10,-1
 882 0 l 1,11,-1
 882 600 l 2,12,13
 882 839.428571429 882 839.428571429 818.5 912 c 0,14,15
 766.875 971 766.875 971 653.9375 971 c 128,-1,16
 541 971 541 971 444 892.5 c 128,-1,17
 347 814 347 814 323 727 c 1,0,-1
EndSplineSet
EndChar

StartChar: i
Encoding: 105 105 76
Width: 484
Flags: W
HStem: 0 21G<156 325> 1078 20G<156 325> 1292 198<156 325>
VStem: 156 169<0 1098 1292 1490>
LayerCount: 2
Fore
SplineSet
325 1098 m 1,0,-1
 325 0 l 1,1,-1
 156 0 l 1,2,-1
 156 1098 l 1,3,-1
 325 1098 l 1,0,-1
325 1490 m 1,4,-1
 325 1292 l 1,5,-1
 156 1292 l 1,6,-1
 156 1490 l 1,7,-1
 325 1490 l 1,4,-1
EndSplineSet
EndChar

StartChar: j
Encoding: 106 106 77
Width: 561
Flags: W
HStem: -310 21G<55 62> 1078 20G<233 402> 1292 198<233 402>
VStem: 233 169<-88.8906 1098 1292 1490>
LayerCount: 2
Fore
SplineSet
402 1098 m 1,0,-1
 402 180 l 2,1,2
 402 -121.027027027 402 -121.027027027 334.5 -194 c 0,3,4
 256.158991228 -278.692982456 256.158991228 -278.692982456 62 -308 c 1,5,-1
 55 -310 l 1,6,-1
 55 -141 l 1,7,-1
 62 -141 l 1,8,9
 169.840707965 -126.022123894 169.840707965 -126.022123894 190.920353982 -90.0110619469 c 128,-1,10
 212 -54 212 -54 219 -38 c 128,-1,11
 226 -22 226 -22 229 9 c 0,12,13
 233 50.3333333333 233 50.3333333333 233 126 c 2,14,-1
 233 1098 l 1,15,-1
 402 1098 l 1,0,-1
402 1490 m 1,16,-1
 402 1292 l 1,17,-1
 233 1292 l 1,18,-1
 233 1490 l 1,19,-1
 402 1490 l 1,16,-1
EndSplineSet
EndChar

StartChar: k
Encoding: 107 107 78
Width: 1151
Flags: W
HStem: 0 21G<155 325 822.737 1053> 1078 20G<784.811 1047> 1490 20G<155 325>
VStem: 155 170<0 448 644 1510> 806 241<857 1098> 838 215<0 215>
DStem2: 325 644 582 627 0.70256 0.711625<168.46 661.009> 582 627 432 532 0.600612 -0.799541<0 655.069>
LayerCount: 2
Fore
SplineSet
155 1510 m 1,0,-1
 325 1510 l 1,1,-1
 325 644 l 1,2,-1
 806 1098 l 1,3,-1
 1047 1098 l 1,4,-1
 582 627 l 1,5,-1
 1053 0 l 1,6,-1
 838 0 l 1,7,-1
 432 532 l 1,8,-1
 325 448 l 1,9,-1
 325 0 l 1,10,-1
 155 0 l 1,11,-1
 155 1510 l 1,0,-1
EndSplineSet
EndChar

StartChar: l
Encoding: 108 108 79
Width: 656
Flags: W
HStem: -11 144<377.084 572> 1490 20G<151 322>
VStem: 151 171<185.555 1510>
LayerCount: 2
Fore
SplineSet
151 479 m 2,0,-1
 151 1510 l 1,1,-1
 322 1510 l 1,2,-1
 322 425 l 2,3,4
 322 219.790697674 322 219.790697674 355 191.395348837 c 0,5,6
 422.864864865 133 422.864864865 133 528 133 c 2,7,-1
 572 133 l 1,8,-1
 572 -11 l 1,9,-1
 528 -11 l 2,10,11
 276.787878788 -11 276.787878788 -11 210 105 c 0,12,13
 151 207.473684211 151 207.473684211 151 479 c 2,0,-1
EndSplineSet
EndChar

StartChar: m
Encoding: 109 109 80
Width: 1854
Flags: W
HStem: 0 21G<149 321 857 1028 1531 1703> 971 153<479.414 762.838 1174.84 1446.2> 1078 20G<147 305.569>
VStem: 147 157<945 1098> 149 172<0 808.352> 857 171<0 814.669> 1531 172<0 883.812>
LayerCount: 2
Fore
SplineSet
1355 1124 m 0,0,1
 1703 1124 1703 1124 1703 697 c 2,2,-1
 1703 0 l 1,3,-1
 1531 0 l 1,4,-1
 1531 573 l 2,5,6
 1531 827.14893617 1531 827.14893617 1490.5 880.574468085 c 0,7,8
 1421.9516129 971 1421.9516129 971 1314.97580645 971 c 128,-1,9
 1208 971 1208 971 1118 879 c 128,-1,10
 1028 787 1028 787 1028 650 c 2,11,-1
 1028 0 l 1,12,-1
 857 0 l 1,13,-1
 857 608 l 2,14,15
 857 971 857 971 637 971 c 0,16,17
 516 971 516 971 430.5 889.5 c 128,-1,18
 345 808 345 808 321 691 c 1,19,-1
 321 0 l 1,20,-1
 149 0 l 1,21,-1
 149 820 l 2,22,23
 149 1007 149 1007 147 1098 c 1,24,-1
 304 1098 l 1,25,-1
 316 945 l 1,26,27
 450.25 1124 450.25 1124 682.125 1124 c 128,-1,28
 914 1124 914 1124 985 921 c 1,29,30
 1118.4537037 1124 1118.4537037 1124 1355 1124 c 0,0,1
EndSplineSet
EndChar

StartChar: n
Encoding: 110 110 81
Width: 1194
Flags: W
HStem: 0 21G<150 318 875 1043> 971 153<486.503 800.098> 1078 20G<147 302.569>
VStem: 147 154<945 1098> 150 168<0 819.196> 875 168<0 893.122>
LayerCount: 2
Fore
SplineSet
313 945 m 1,0,1
 442.046511628 1124 442.046511628 1124 697 1124 c 0,2,3
 1043 1124 1043 1124 1043 657 c 2,4,-1
 1043 0 l 1,5,-1
 875 0 l 1,6,-1
 875 551 l 2,7,8
 875 850.935483871 875 850.935483871 817.5 914 c 0,9,10
 765.529411765 971 765.529411765 971 650.264705882 971 c 128,-1,11
 535 971 535 971 437.5 893.5 c 128,-1,12
 340 816 340 816 318 731 c 1,13,-1
 318 0 l 1,14,-1
 150 0 l 1,15,-1
 150 831 l 1,16,-1
 147 1098 l 1,17,-1
 301 1098 l 1,18,-1
 313 945 l 1,0,1
EndSplineSet
EndChar

StartChar: o
Encoding: 111 111 82
Width: 1303
Flags: W
HStem: -25 143<472.3 816.501> 982 142<479.063 828.31>
VStem: 112 173<326.032 768.611> 995 174<315.047 781.484>
LayerCount: 2
Fore
SplineSet
1110 838 m 128,-1,1
 1169 709 1169 709 1169 571.5 c 128,-1,2
 1169 434 1169 434 1133 330.5 c 128,-1,3
 1097 227 1097 227 1031 147.5 c 0,4,5
 887.79245283 -25 887.79245283 -25 684.896226415 -25 c 128,-1,6
 482 -25 482 -25 359.5 53 c 0,7,8
 112 210.591836735 112 210.591836735 112 547 c 0,9,10
 112 787.392592593 112 787.392592593 253.5 953 c 0,11,12
 399.607594937 1124 399.607594937 1124 605.303797468 1124 c 128,-1,13
 811 1124 811 1124 931 1045.5 c 128,-1,0
 1051 967 1051 967 1110 838 c 128,-1,1
959 336 m 128,-1,15
 995 431 995 431 995 534 c 128,-1,16
 995 637 995 637 974.5 713.5 c 128,-1,17
 954 790 954 790 913 851 c 0,18,19
 824.950819672 982 824.950819672 982 678.475409836 982 c 128,-1,20
 532 982 532 982 448.5 918.5 c 0,21,22
 285 794.161676647 285 794.161676647 285 544 c 0,23,24
 285 297.369047619 285 297.369047619 448 179 c 0,25,26
 532 118 532 118 647 118 c 128,-1,27
 762 118 762 118 842.5 179.5 c 128,-1,14
 923 241 923 241 959 336 c 128,-1,15
EndSplineSet
EndChar

StartChar: p
Encoding: 112 112 83
Width: 1252
Flags: W
HStem: -459 21G<147 316> -25 148<468.945 787.733> 976 148<472.961 794.677> 1079 20G<147 313.405>
VStem: 147 169<-459 160 298.578 804.731 951 1099> 942 173<309.28 787.323>
LayerCount: 2
Fore
SplineSet
316 160 m 1,0,-1
 316 -459 l 1,1,-1
 147 -459 l 1,2,-1
 147 1099 l 1,3,-1
 313 1099 l 1,4,-1
 316 951 l 1,5,6
 444 1124 444 1124 655 1124 c 0,7,8
 993.956521739 1124 993.956521739 1124 1088 763.5 c 0,9,10
 1115 660 1115 660 1115 541 c 128,-1,11
 1115 422 1115 422 1087.5 323 c 128,-1,12
 1060 224 1060 224 1006 145 c 0,13,14
 889.797468354 -25 889.797468354 -25 659.203082003 -25 c 128,-1,15
 428.608695652 -25 428.608695652 -25 316 160 c 1,0,-1
345 765.5 m 128,-1,17
 313 672 313 672 313 564.5 c 128,-1,18
 313 457 313 457 331.5 382 c 128,-1,19
 350 307 350 307 388 248 c 0,20,21
 468.508474576 123 468.508474576 123 635 123 c 0,22,23
 862.708333333 123 862.708333333 123 925.5 397 c 0,24,25
 942 469 942 469 942 548.5 c 128,-1,26
 942 628 942 628 925.5 700 c 128,-1,27
 909 772 909 772 875 836 c 0,28,29
 800.625 976 800.625 976 662.8125 976 c 128,-1,30
 525 976 525 976 451 917.5 c 128,-1,16
 377 859 377 859 345 765.5 c 128,-1,17
EndSplineSet
EndChar

StartChar: q
Encoding: 113 113 84
Width: 1276
Flags: W
HStem: -459 21G<944 1114> -25 155<446.41 780.223> 971 153<447.872 784.374> 1078 20G<944.862 1121>
VStem: 118 172<318.616 784.98> 944 170<-459 162 312.25 789.141 953 1098>
LayerCount: 2
Fore
SplineSet
944 162 m 1,0,1
 817.322580645 -25 817.322580645 -25 564 -25 c 0,2,3
 203.55 -25 203.55 -25 132.5 367 c 0,4,5
 118 447 118 447 118 553.5 c 128,-1,6
 118 660 118 660 145.5 764 c 128,-1,7
 173 868 173 868 228 949.5 c 0,8,9
 345.760736196 1124 345.760736196 1124 577.880368098 1124 c 128,-1,10
 810 1124 810 1124 944 953 c 1,11,-1
 945 1098 l 1,12,-1
 1121 1098 l 1,13,14
 1114 846 1114 846 1114 816 c 2,15,-1
 1114 -459 l 1,16,-1
 944 -459 l 1,17,-1
 944 162 l 1,0,1
925.5 386 m 0,18,19
 945 461 945 461 945 550.5 c 128,-1,20
 945 640 945 640 925.5 714.5 c 128,-1,21
 906 789 906 789 866.5 847.5 c 0,22,23
 783.111111111 971 783.111111111 971 606 971 c 0,24,25
 412.891891892 971 412.891891892 971 333.5 783.5 c 0,26,27
 290 680.765957447 290 680.765957447 290 576.882978723 c 128,-1,28
 290 473 290 473 307 401.5 c 128,-1,29
 324 330 324 330 359 267.5 c 0,30,31
 436 130 436 130 606 130 c 0,32,33
 858.94 130 858.94 130 925.5 386 c 0,18,19
EndSplineSet
EndChar

StartChar: r
Encoding: 114 114 85
Width: 752
Flags: W
HStem: 0 21G<150 320> 955 171<435.947 648> 1078 20G<147 295.117>
VStem: 147 147<919 1098> 150 170<0 834.25>
LayerCount: 2
Fore
SplineSet
304 919 m 1,0,1
 402.475728155 1126 402.475728155 1126 582 1126 c 2,2,-1
 648 1126 l 1,3,-1
 648 955 l 1,4,-1
 555 955 l 2,5,6
 476 955 476 955 414.5 896 c 128,-1,7
 353 837 353 837 336.5 767 c 128,-1,8
 320 697 320 697 320 604 c 2,9,-1
 320 0 l 1,10,-1
 150 0 l 1,11,-1
 150 845 l 1,12,-1
 147 1098 l 1,13,-1
 294 1098 l 1,14,-1
 304 919 l 1,0,1
EndSplineSet
EndChar

StartChar: s
Encoding: 115 115 86
Width: 1021
Flags: W
HStem: -25 151<279.893 670.233> 971 153<354.193 736.473>
VStem: 149 165<717.227 929.838> 717 163<172.697 398.782>
DStem2: 614 625 432 494 0.970143 -0.242536<-279.179 125.668>
LayerCount: 2
Fore
SplineSet
794 893 m 1,0,1
 691 971 691 971 502.5 971 c 128,-1,2
 314 971 314 971 314 820 c 0,3,4
 314 753 314 753 348.5 719.5 c 128,-1,5
 383 686 383 686 478 659 c 1,6,-1
 614 625 l 1,7,8
 744 587 744 587 812 516.5 c 128,-1,9
 880 446 880 446 880 298 c 128,-1,10
 880 150 880 150 785 62.5 c 128,-1,11
 690 -25 690 -25 546 -25 c 0,12,13
 263.882352941 -25 263.882352941 -25 138 82 c 1,14,-1
 182 224 l 1,15,16
 321.65 126 321.65 126 519.325 126 c 128,-1,17
 717 126 717 126 717 292 c 0,18,19
 717 412 717 412 560 461 c 1,20,-1
 432 494 l 1,21,22
 149 573.073529412 149 573.073529412 149 810 c 0,23,24
 149 961 149 961 252 1042.5 c 128,-1,25
 355 1124 355 1124 537 1124 c 128,-1,26
 719 1124 719 1124 839 1031 c 1,27,-1
 794 893 l 1,0,1
EndSplineSet
EndChar

StartChar: t
Encoding: 116 116 87
Width: 837
Flags: W
HStem: -11 144<486.648 720> 973 125<89 254 423 709> 1442 20G<366.667 423>
VStem: 254 169<192.724 973 1098 1402>
LayerCount: 2
Fore
SplineSet
89 973 m 1,0,-1
 89 1098 l 1,1,-1
 254 1098 l 1,2,-1
 254 1402 l 1,3,-1
 423 1462 l 1,4,-1
 423 1098 l 1,5,-1
 709 1098 l 1,6,-1
 709 973 l 1,7,-1
 423 973 l 1,8,-1
 423 429 l 2,9,10
 423 296 423 296 442 234 c 0,11,12
 472.951612903 133 472.951612903 133 676 133 c 2,13,-1
 720 133 l 1,14,-1
 720 -11 l 1,15,-1
 696 -11 l 2,16,17
 419.826086957 -11 419.826086957 -11 343 74.5 c 0,18,19
 263.270762998 163.230925051 263.270762998 163.230925051 258.635381499 279.115462525 c 128,-1,20
 254 395 254 395 254 483 c 2,21,-1
 254 973 l 1,22,-1
 89 973 l 1,0,-1
EndSplineSet
EndChar

StartChar: u
Encoding: 117 117 88
Width: 1147
Flags: W
HStem: -25 155<418.047 721.025> 1078 20G<137 308 829 998>
VStem: 137 171<233.059 1098> 829 169<237.897 1098>
LayerCount: 2
Fore
SplineSet
783.5 23.5 m 0,0,1
 688 -25 688 -25 584.5 -25 c 128,-1,2
 481 -25 481 -25 403.5 3.5 c 128,-1,3
 326 32 326 32 266 86 c 0,4,5
 137 202.1 137 202.1 137 421 c 2,6,-1
 137 1098 l 1,7,-1
 308 1098 l 1,8,-1
 308 419 l 2,9,10
 308 263.631578947 308 263.631578947 368 212.315789474 c 0,11,12
 464.246153846 130 464.246153846 130 542.123076923 130 c 128,-1,13
 620 130 620 130 665 146 c 128,-1,14
 710 162 710 162 747.5 194.5 c 0,15,16
 829 265.133333333 829 265.133333333 829 419 c 2,17,-1
 829 1098 l 1,18,-1
 998 1098 l 1,19,-1
 998 421 l 2,20,21
 998 132.434554974 998 132.434554974 783.5 23.5 c 0,0,1
EndSplineSet
EndChar

StartChar: v
Encoding: 118 118 89
Width: 1202
Flags: W
HStem: 0 21G<478.787 672.869> 1078 20G<90 287.2 904.985 1097>
DStem2: 280 1098 90 1098 0.339265 -0.940691<0 690.837>
LayerCount: 2
Fore
SplineSet
486 0 m 1,0,-1
 90 1098 l 1,1,-1
 280 1098 l 1,2,-1
 514 448 l 1,3,-1
 581 224 l 1,4,-1
 684 448 l 1,5,-1
 912 1098 l 1,6,-1
 1097 1098 l 1,7,-1
 665 0 l 1,8,-1
 486 0 l 1,0,-1
EndSplineSet
EndChar

StartChar: w
Encoding: 119 119 90
Width: 1753
Flags: W
HStem: 0 21G<411.171 592.495 1141.91 1319.9> 1078 20G<97 285.135 773.874 989.747 1452.05 1638>
VStem: 97 183<915 1098> 1457 181<917 1098>
DStem2: 508 210 586 0 0.308869 0.951104<0 763.268> 984 1098 876 893 0.291375 -0.956609<164.636 919.652>
LayerCount: 2
Fore
SplineSet
97 1098 m 1,0,-1
 280 1098 l 1,1,-1
 508 210 l 1,2,-1
 780 1098 l 1,3,-1
 984 1098 l 1,4,-1
 1238 214 l 1,5,-1
 1457 1098 l 1,6,-1
 1638 1098 l 1,7,-1
 1314 0 l 1,8,-1
 1148 0 l 1,9,-1
 876 893 l 1,10,-1
 586 0 l 1,11,-1
 417 0 l 1,12,-1
 97 1098 l 1,0,-1
EndSplineSet
EndChar

StartChar: x
Encoding: 120 120 91
Width: 1208
Flags: W
HStem: 0 21G<107 314.994 889.516 1099> 1078 20G<124 338.254 890.002 1086>
VStem: 107 195<0 195> 124 202<896 1098> 902 197<0 197 901 1098>
DStem2: 107 0 302 0 0.561574 0.827426<109.507 669.546> 326 1098 124 1098 0.550799 -0.834638<0 535.653> 606 641 734 558 0.546078 0.837734<0.366121 545.03> 734 558 608 471 0.547411 -0.836864<3.83338 558.935>
LayerCount: 2
Fore
SplineSet
107 0 m 1,0,-1
 483 554 l 1,1,-1
 124 1098 l 1,2,-1
 326 1098 l 1,3,-1
 606 641 l 1,4,-1
 903 1098 l 1,5,-1
 1086 1098 l 1,6,-1
 734 558 l 1,7,-1
 1099 0 l 1,8,-1
 902 0 l 1,9,-1
 608 471 l 1,10,-1
 302 0 l 1,11,-1
 107 0 l 1,0,-1
EndSplineSet
EndChar

StartChar: y
Encoding: 121 121 92
Width: 1191
Flags: W
HStem: -510 167<165 350.799> 1078 20G<88 275.425 906.043 1086>
DStem2: 268 1098 88 1098 0.359155 -0.933278<0 956.749> 435 -202 618.5 -197 0.345103 0.938565<-118.564 234.919 435.529 1385.09>
LayerCount: 2
Fore
SplineSet
601 201 m 1,0,-1
 913 1098 l 1,1,-1
 1086 1098 l 1,2,-1
 684 -15 l 2,3,4
 676 -36 676 -36 655 -97 c 128,-1,5
 634 -158 634 -158 618.5 -197 c 128,-1,6
 603 -236 603 -236 572 -297 c 128,-1,7
 541 -358 541 -358 509 -388 c 128,-1,8
 477 -418 477 -418 428.5 -451 c 0,9,10
 341.787878788 -510 341.787878788 -510 165 -510 c 1,11,-1
 165 -343 l 1,12,13
 374.571428571 -343 374.571428571 -343 435 -202 c 0,14,15
 467.340425532 -126.539007092 467.340425532 -126.539007092 499 30 c 1,16,-1
 88 1098 l 1,17,-1
 268 1098 l 1,18,-1
 601 201 l 1,0,-1
EndSplineSet
EndChar

StartChar: z
Encoding: 122 122 93
Width: 956
Flags: W
HStem: 0 153<326 823> 945 153<146 611>
DStem2: 132 139 326 153 0.511689 0.859171<111.296 937.591>
LayerCount: 2
Fore
SplineSet
611 945 m 1,0,-1
 146 945 l 1,1,-1
 146 1098 l 1,2,-1
 809 1098 l 1,3,-1
 809 964 l 1,4,-1
 326 153 l 1,5,-1
 823 153 l 1,6,-1
 823 0 l 1,7,-1
 132 0 l 1,8,-1
 132 139 l 1,9,-1
 611 945 l 1,0,-1
EndSplineSet
EndChar

StartChar: braceleft
Encoding: 123 123 94
Width: 670
Flags: W
HStem: -238 137<452.889 578> 614 150<89 226.325> 1479 137<456.754 578>
VStem: 89 197<515.5 862.5> 272 161<-76.7444 578.185 810.046 1455.63>
CounterMasks: 1 e0
LayerCount: 2
Fore
SplineSet
433 988 m 2,0,1
 433 760.790697674 433 760.790697674 286 689 c 1,2,3
 433 617.209302326 433 617.209302326 433 390 c 2,4,-1
 433 156 l 2,5,6
 433 -47.8 433 -47.8 456 -63.9 c 128,-1,7
 479 -80 479 -80 495 -88.5 c 0,8,9
 518.529411765 -101 518.529411765 -101 578 -101 c 1,10,-1
 578 -238 l 1,11,12
 415 -238 415 -238 343.5 -170 c 128,-1,13
 272 -102 272 -102 272 53 c 2,14,-1
 272 335 l 2,15,16
 272 531.384615385 272 531.384615385 242 563.692307692 c 0,17,18
 195.285714286 614 195.285714286 614 149 614 c 2,19,-1
 89 614 l 1,20,-1
 89 764 l 1,21,-1
 149 764 l 2,22,23
 272 764 272 764 272 1043 c 2,24,-1
 272 1326 l 2,25,26
 272 1481 272 1481 343.5 1548.5 c 128,-1,27
 415 1616 415 1616 578 1616 c 1,28,-1
 578 1479 l 1,29,30
 462.368421053 1479 462.368421053 1479 446.5 1412 c 0,31,32
 433 1355 433 1355 433 1223 c 2,33,-1
 433 988 l 2,0,1
EndSplineSet
EndChar

StartChar: bar
Encoding: 124 124 95
Width: 470
Flags: W
VStem: 160 150<-303 1603>
LayerCount: 2
Fore
SplineSet
310 1603 m 1,0,-1
 310 -303 l 1,1,-1
 160 -303 l 1,2,-1
 160 1603 l 1,3,-1
 310 1603 l 1,0,-1
EndSplineSet
EndChar

StartChar: braceright
Encoding: 125 125 96
Width: 680
Flags: W
HStem: -238 137<98 219.513> 614 150<453.119 590> 1479 137<98 219.513>
VStem: 246 161<-80.25 578.843 803.416 1455.63>
CounterMasks: 1 e0
LayerCount: 2
Fore
SplineSet
246 390 m 2,0,1
 246 618.186046512 246 618.186046512 391 689 c 1,2,3
 246 758.910714286 246 758.910714286 246 988 c 2,4,-1
 246 1223 l 2,5,6
 246 1424 246 1424 207.5 1451.5 c 128,-1,7
 169 1479 169 1479 98 1479 c 1,8,-1
 98 1616 l 1,9,10
 261 1616 261 1616 334 1548.5 c 128,-1,11
 407 1481 407 1481 407 1326 c 2,12,-1
 407 1043 l 2,13,14
 407 812.604651163 407 812.604651163 480.5 775 c 0,15,16
 502 764 502 764 531 764 c 2,17,-1
 590 764 l 1,18,-1
 590 614 l 1,19,-1
 531 614 l 2,20,21
 472 614 472 614 452.5 581 c 128,-1,22
 433 548 433 548 424.5 524 c 128,-1,23
 416 500 416 500 412.5 464.5 c 0,24,25
 407 408.714285714 407 408.714285714 407 335 c 2,26,-1
 407 53 l 2,27,28
 407 -102 407 -102 334 -170 c 128,-1,29
 261 -238 261 -238 98 -238 c 1,30,-1
 98 -101 l 1,31,32
 194.8 -101 194.8 -101 214.9 -67.5 c 128,-1,33
 235 -34 235 -34 239.5 1 c 0,34,35
 246 51.5555555556 246 51.5555555556 246 156 c 2,36,-1
 246 390 l 2,0,1
EndSplineSet
EndChar

StartChar: asciitilde
Encoding: 126 126 97
Width: 1340
Flags: W
HStem: 442 145<781.618 1018.9> 614 146<322.789 576.319>
VStem: 137 103<465.788 523.424> 1097 112<675.998 742.248>
LayerCount: 2
Fore
SplineSet
1209 737 m 1,0,1
 1154.37037037 442 1154.37037037 442 915 442 c 0,2,3
 863 442 863 442 770.5 485 c 0,4,5
 493 614 493 614 427 614 c 128,-1,6
 361 614 361 614 309 556 c 128,-1,7
 257 498 257 498 240 415 c 1,8,-1
 137 474 l 1,9,10
 159 595 159 595 236 677.5 c 128,-1,11
 313 760 313 760 400.5 760 c 128,-1,12
 488 760 488 760 562.5 733 c 128,-1,13
 637 706 637 706 698 673.5 c 0,14,15
 860.353846154 587 860.353846154 587 921.676923077 587 c 128,-1,16
 983 587 983 587 1031.5 643 c 128,-1,17
 1080 699 1080 699 1097 778 c 1,18,-1
 1209 737 l 1,0,1
EndSplineSet
EndChar

StartChar: exclamdown
Encoding: 161 161 99
Width: 497
Flags: W
HStem: -415 21G<196 332> 953 221<152 341>
VStem: 152 189<953 1174> 196 136<-415 747>
LayerCount: 2
Fore
SplineSet
152 953 m 1,0,-1
 152 1174 l 1,1,-1
 341 1174 l 1,2,-1
 341 953 l 1,3,-1
 152 953 l 1,0,-1
332 747 m 1,4,-1
 332 -415 l 1,5,-1
 196 -415 l 1,6,-1
 196 747 l 1,7,-1
 332 747 l 1,4,-1
EndSplineSet
EndChar

StartChar: cent
Encoding: 162 162 100
Width: 1024
Flags: W
HStem: -25 142<649 796.343> -14 146<418.643 505> 980 152<442.929 562 705 798.715>
VStem: 108 152<308.805 773.897> 490 132<-276 -144> 589 129<1230 1359>
DStem2: 490 -276 622 -276 0.0604398 0.998172<7.97805 264.264 408.705 1258.06 1405.28 1637.99>
LayerCount: 2
Fore
SplineSet
933 976 m 1,0,-1
 867 863 l 1,1,2
 806 957 806 957 697 980 c 1,3,-1
 649 117 l 1,4,5
 783 122 783 122 900 243 c 1,6,-1
 939 93 l 1,7,8
 822 -19 822 -19 640 -25 c 1,9,-1
 622 -276 l 1,10,-1
 490 -276 l 1,11,-1
 505 -14 l 1,12,13
 238.636297553 28.0574267022 238.636297553 28.0574267022 148.5 284 c 0,14,15
 108 399 108 399 108 530 c 128,-1,16
 108 661 108 661 136.5 764 c 128,-1,17
 165 867 165 867 220.5 947.5 c 0,18,19
 339.407249706 1119.9690739 339.407249706 1119.9690739 570 1132 c 1,20,-1
 589 1359 l 1,21,-1
 718 1359 l 1,22,-1
 705 1124 l 1,23,24
 853 1101 853 1101 933 976 c 1,0,-1
340 837 m 128,-1,26
 260 717 260 717 260 552 c 0,27,28
 260 198 260 198 514 132 c 1,29,-1
 562 980 l 1,30,25
 420 957 420 957 340 837 c 128,-1,26
EndSplineSet
EndChar

StartChar: sterling
Encoding: 163 163 101
Width: 1165
Flags: W
HStem: 0 162<345.484 1052> 707 142<104 278 438 852> 1422 164<557.258 876.376>
VStem: 278 160<246.07 707 849 1290.92>
LayerCount: 2
Fore
SplineSet
717 1422 m 0,0,1
 438 1422 438 1422 438 1069 c 2,2,-1
 438 849 l 1,3,-1
 852 849 l 1,4,-1
 852 707 l 1,5,-1
 438 707 l 1,6,-1
 438 530 l 2,7,8
 438 250.275862069 438 250.275862069 343 152 c 1,9,10
 423 162 423 162 438 162 c 2,11,-1
 1052 162 l 1,12,-1
 1052 0 l 1,13,-1
 136 0 l 1,14,-1
 114 137 l 1,15,16
 211 187 211 187 244.5 263.5 c 128,-1,17
 278 340 278 340 278 467 c 2,18,-1
 278 707 l 1,19,-1
 104 707 l 1,20,-1
 104 849 l 1,21,-1
 278 849 l 1,22,-1
 278 976 l 2,23,24
 278 1220.84615385 278 1220.84615385 312.5 1308.42307692 c 128,-1,25
 347 1396 347 1396 380.5 1443 c 128,-1,26
 414 1490 414 1490 459.5 1520 c 0,27,28
 559.6 1586 559.6 1586 753.8 1586 c 128,-1,29
 948 1586 948 1586 1059 1400 c 1,30,-1
 976 1292 l 1,31,32
 864 1422 864 1422 717 1422 c 0,0,1
EndSplineSet
EndChar

StartChar: currency
Encoding: 164 164 102
Width: 1023
Flags: W
HStem: 294 77<397.127 658.373> 1055 77<364.365 653.555>
VStem: 139 80<528.29 893.741> 804 83<521.003 902.223>
DStem2: 203 1400 168 1383 0.452261 -0.891886<0 334.517 1172.27 1502.46> 258 59 295 44 0.34982 0.936817<0 282.454 1121.9 1428.2>
LayerCount: 2
Fore
SplineSet
354 324 m 1,0,1
 139 410.401869159 139 410.401869159 139 697.47934367 c 128,-1,2
 139 984.556818182 139 984.556818182 314 1082 c 1,3,-1
 168 1383 l 1,4,-1
 203 1400 l 1,5,-1
 354 1102 l 1,6,7
 428 1132 428 1132 498.5 1132 c 128,-1,8
 569 1132 569 1132 645 1114 c 1,9,-1
 752 1400 l 1,10,-1
 795 1383 l 1,11,-1
 688 1096 l 1,12,13
 887 999 887 999 887 734.104166667 c 128,-1,14
 887 469.208333333 887 469.208333333 740 361 c 1,15,-1
 883 59 l 1,16,-1
 851 44 l 1,17,-1
 703 339 l 1,18,19
 618 294 618 294 540.5 294 c 128,-1,20
 463 294 463 294 395 310 c 1,21,-1
 295 44 l 1,22,-1
 258 59 l 1,23,-1
 354 324 l 1,0,1
729 468.5 m 128,-1,25
 804 566 804 566 804 685 c 128,-1,26
 804 804 804 804 773.5 880.5 c 0,27,28
 703.928104575 1055 703.928104575 1055 510 1055 c 0,29,30
 325.516129032 1055 325.516129032 1055 251.5 878.5 c 0,31,32
 219 801 219 801 219 709 c 128,-1,33
 219 617 219 617 251.5 541.5 c 0,34,35
 324.894039735 371 324.894039735 371 489.447019868 371 c 128,-1,24
 654 371 654 371 729 468.5 c 128,-1,25
EndSplineSet
EndChar

StartChar: yen
Encoding: 165 165 103
Width: 1270
Flags: W
HStem: 0 21G<565 717> 305 151<182 564 717 1094> 617 154<177 528 742 1091>
VStem: 565 152<0 305 456 617>
DStem2: 290 1527 111 1527 0.482985 -0.875628<0 758.704> 648 858 742 771 0.494404 0.869232<0 759.007>
LayerCount: 2
Fore
SplineSet
717 305 m 1,0,-1
 717 0 l 1,1,-1
 565 0 l 1,2,-1
 565 305 l 1,3,-1
 182 305 l 1,4,-1
 174 456 l 1,5,-1
 564 456 l 1,6,-1
 564 617 l 1,7,-1
 177 617 l 1,8,-1
 177 771 l 1,9,-1
 528 771 l 1,10,-1
 111 1527 l 1,11,-1
 290 1527 l 1,12,-1
 577 1011 l 1,13,-1
 648 858 l 1,14,-1
 1007 1527 l 1,15,-1
 1172 1527 l 1,16,-1
 742 771 l 1,17,-1
 1091 771 l 1,18,-1
 1091 617 l 1,19,-1
 716 617 l 1,20,-1
 716 456 l 1,21,-1
 1094 456 l 1,22,-1
 1094 305 l 1,23,-1
 717 305 l 1,0,-1
EndSplineSet
EndChar

StartChar: brokenbar
Encoding: 166 166 104
Width: 449
Flags: W
VStem: 151 150<-301 339 964 1603>
LayerCount: 2
Fore
SplineSet
301 1603 m 1,0,-1
 301 964 l 1,1,-1
 151 964 l 1,2,-1
 151 1603 l 1,3,-1
 301 1603 l 1,0,-1
301 339 m 1,4,-1
 301 -301 l 1,5,-1
 151 -301 l 1,6,-1
 151 339 l 1,7,-1
 301 339 l 1,4,-1
EndSplineSet
EndChar

StartChar: section
Encoding: 167 167 105
Width: 978
Flags: W
HStem: -50 145<221.177 594.513> 1460 148<377.667 753.894>
VStem: 144 156<698.811 902.61> 176 155<1207.64 1413.81> 667 155<160.871 356.378> 685 156<679.346 878.534>
DStem2: 456 623.5 360 490 0.911758 -0.410728<-172.336 111.077> 526.5 1112.5 436 980 0.900802 -0.43423<-47.5561 267.814>
LayerCount: 2
Fore
SplineSet
311 1050 m 1,0,1
 176 1149.7826087 176 1149.7826087 176 1302.39130435 c 128,-1,2
 176 1455 176 1455 278 1531.5 c 128,-1,3
 380 1608 380 1608 519.5 1608 c 128,-1,4
 659 1608 659 1608 773 1563 c 1,5,-1
 774 1405 l 1,6,7
 678.347826087 1460 678.347826087 1460 556 1460 c 0,8,9
 331 1460 331 1460 331 1314 c 0,10,11
 331 1249 331 1249 379.5 1203 c 128,-1,12
 428 1157 428 1157 526.5 1112.5 c 128,-1,13
 625 1068 625 1068 671 1041 c 128,-1,14
 717 1014 717 1014 758.5 977 c 0,15,16
 841 903.445783133 841 903.445783133 841 770.722891566 c 128,-1,17
 841 638 841 638 676 517 c 1,18,19
 822 426.521126761 822 426.521126761 822 273.76056338 c 128,-1,20
 822 121 822 121 709.5 35.5 c 128,-1,21
 597 -50 597 -50 435.5 -50 c 128,-1,22
 274 -50 274 -50 167 4 c 1,23,-1
 167 166 l 1,24,25
 294 95 294 95 413.5 95 c 128,-1,26
 533 95 533 95 600 142.5 c 128,-1,27
 667 190 667 190 667 257 c 128,-1,28
 667 324 667 324 623 358 c 128,-1,29
 579 392 579 392 516.5 419.5 c 128,-1,30
 454 447 454 447 448 450 c 2,31,-1
 360 490 l 1,32,33
 144 595 144 595 144 774.626666667 c 128,-1,34
 144 954.253333333 144 954.253333333 311 1050 c 1,0,1
436 980 m 1,35,36
 300 894.451612903 300 894.451612903 300 798 c 0,37,38
 300 696.120689655 300 696.120689655 456 623.5 c 0,39,40
 485 610 485 610 536 589 c 1,41,42
 685 689.935483871 685 689.935483871 685 778 c 0,43,44
 685 849.360655738 685 849.360655738 638 880.180327869 c 128,-1,45
 591 911 591 911 562.5 924.5 c 128,-1,46
 534 938 534 938 494.5 954 c 128,-1,47
 455 970 455 970 436 980 c 1,35,36
EndSplineSet
EndChar

StartChar: dieresis
Encoding: 168 168 106
Width: 770
Flags: W
HStem: 1259 177<137 291 481 636>
VStem: 137 154<1259 1436> 481 155<1259 1436>
LayerCount: 2
Fore
SplineSet
636 1259 m 1,0,-1
 481 1259 l 1,1,-1
 481 1436 l 1,2,-1
 636 1436 l 1,3,-1
 636 1259 l 1,0,-1
291 1259 m 1,4,-1
 137 1259 l 1,5,-1
 137 1436 l 1,6,-1
 291 1436 l 1,7,-1
 291 1259 l 1,4,-1
EndSplineSet
EndChar

StartChar: copyright
Encoding: 169 169 107
Width: 1841
Flags: W
HStem: -36 129<658.173 1167.81> 270 141<774.775 1159.47> 1162 139<768.81 1140.88> 1471 125<662.592 1164.23>
VStem: 114 109<533.717 1029.23> 464 136<592.602 982.927> 1614 112<515.192 1021.64>
LayerCount: 2
Fore
SplineSet
1220 496 m 1,0,-1
 1260 366 l 1,1,2
 1125 270 1125 270 961.5 270 c 128,-1,3
 798 270 798 270 688.5 339 c 0,4,5
 464 480.465753425 464 480.465753425 464 746.732876712 c 128,-1,6
 464 1013 464 1013 593.5 1157 c 128,-1,7
 723 1301 723 1301 927 1301 c 128,-1,8
 1131 1301 1131 1301 1257 1191 c 1,9,-1
 1224 1061 l 1,10,11
 1110 1162 1110 1162 948.5 1162 c 128,-1,12
 787 1162 787 1162 693.5 1055.5 c 128,-1,13
 600 949 600 949 600 786 c 128,-1,14
 600 623 600 623 697 517 c 128,-1,15
 794 411 794 411 958 411 c 128,-1,16
 1122 411 1122 411 1220 496 c 1,0,-1
276.5 1053.5 m 128,-1,18
 223 926 223 926 223 782.5 c 128,-1,19
 223 639 223 639 276.5 511 c 128,-1,20
 330 383 330 383 421.5 291.5 c 0,21,22
 620 93 620 93 910 93 c 0,23,24
 1210.83695652 93 1210.83695652 93 1412 292 c 0,25,26
 1614 491.827956989 1614 491.827956989 1614 732.413978495 c 128,-1,27
 1614 973 1614 973 1521 1131.5 c 128,-1,28
 1428 1290 1428 1290 1265.5 1380.5 c 128,-1,29
 1103 1471 1103 1471 934 1471 c 128,-1,30
 765 1471 765 1471 638.5 1417.5 c 128,-1,31
 512 1364 512 1364 421 1272.5 c 128,-1,17
 330 1181 330 1181 276.5 1053.5 c 128,-1,18
915.5 -36 m 0,32,33
 750 -36 750 -36 602 29 c 128,-1,34
 454 94 454 94 347 204 c 0,35,36
 114 443.53271028 114 443.53271028 114 781 c 0,37,38
 114 1183.27692308 114 1183.27692308 439.5 1437 c 0,39,40
 643.480263158 1596 643.480263158 1596 859.740131579 1596 c 128,-1,41
 1076 1596 1076 1596 1229 1530.5 c 128,-1,42
 1382 1465 1382 1465 1490.5 1355 c 0,43,44
 1726 1116.24423963 1726 1116.24423963 1726 781 c 0,45,46
 1726 444.953488372 1726 444.953488372 1491.5 205 c 0,47,48
 1255.97727273 -36 1255.97727273 -36 915.5 -36 c 0,32,33
EndSplineSet
EndChar

StartChar: ordfeminine
Encoding: 170 170 108
Width: 807
Flags: W
HStem: 826 111<265.37 483.907> 1473 117<268.81 521.37>
VStem: 128 119<955.6 1141.91> 543 115<847 926 998.416 1195 1298.42 1451.06>
DStem2: 314 1276 384.5 1171.5 0.980285 0.197586<-92.3251 208.481>
LayerCount: 2
Fore
SplineSet
516.5 1437 m 128,-1,1
 490 1473 490 1473 384.789473684 1473 c 128,-1,2
 279.578947368 1473 279.578947368 1473 228 1375 c 1,3,-1
 167 1453 l 1,4,5
 231 1590 231 1590 419 1590 c 0,6,7
 525 1590 525 1590 592.5 1526 c 128,-1,8
 660 1462 660 1462 660 1330 c 2,9,-1
 658 982 l 2,10,11
 658 956 658 956 664 847 c 1,12,-1
 546 847 l 1,13,-1
 543 926 l 1,14,15
 475 826 475 826 364 826 c 128,-1,16
 253 826 253 826 190.5 887.5 c 128,-1,17
 128 949 128 949 128 1044.5 c 128,-1,18
 128 1140 128 1140 187.5 1201.5 c 128,-1,19
 247 1263 247 1263 314 1276 c 128,-1,20
 381 1289 381 1289 451.5 1294.5 c 128,-1,21
 522 1300 522 1300 543 1303 c 1,22,0
 543 1401 543 1401 516.5 1437 c 128,-1,1
247 1053 m 0,23,24
 247 937 247 937 369 937 c 0,25,26
 536 937 536 937 543 1168 c 1,27,-1
 543 1195 l 1,28,29
 514 1188 514 1188 466 1182.5 c 128,-1,30
 418 1177 418 1177 384.5 1171.5 c 128,-1,31
 351 1166 351 1166 317 1154.5 c 0,32,33
 247 1130.82352941 247 1130.82352941 247 1053 c 0,23,24
EndSplineSet
EndChar

StartChar: guillemotleft
Encoding: 171 171 109
Width: 983
Flags: W
VStem: 357 163<182 345 819 982>
DStem2: 270 583 119 583 0.529048 -0.848592<0 386.313> 119 583 270 583 0.544471 0.83878<82.2151 467.524>
LayerCount: 2
Fore
SplineSet
119 583 m 1,0,-1
 363 982 l 1,1,-1
 529 982 l 1,2,-1
 270 583 l 1,3,-1
 520 182 l 1,4,-1
 357 182 l 1,5,-1
 119 583 l 1,0,-1
462 583 m 1,6,-1
 726 982 l 1,7,-1
 864 982 l 1,8,-1
 633 583 l 1,9,-1
 858 182 l 1,10,-1
 722 182 l 1,11,-1
 462 583 l 1,6,-1
EndSplineSet
EndChar

StartChar: logicalnot
Encoding: 172 172 110
Width: 1280
Flags: W
HStem: 709 151<115 1003>
VStem: 1003 133<256 709>
LayerCount: 2
Fore
SplineSet
1136 256 m 1,0,-1
 1003 256 l 1,1,-1
 1003 709 l 1,2,-1
 115 709 l 1,3,-1
 115 860 l 1,4,-1
 1136 860 l 1,5,-1
 1136 256 l 1,0,-1
EndSplineSet
EndChar

StartChar: registered
Encoding: 174 174 111
Width: 1824
Flags: W
HStem: -25 124<652.182 1162.99> 716 127<731 918.212> 1149 128<731 1100.02> 1463 123<640.388 1160.85>
VStem: 117 123<526.922 1044.96> 599 132<301 716 843 1149> 1141 159<890.077 1107.51> 1582 124<517.327 1033.58>
DStem2: 1257 405.5 1023 525 0.514955 -0.857217<-401.737 33.4491>
LayerCount: 2
Fore
SplineSet
871 716 m 1,0,-1
 731 716 l 1,1,-1
 731 301 l 1,2,-1
 599 301 l 1,3,-1
 599 1277 l 1,4,-1
 857 1277 l 2,5,6
 1300 1277 1300 1277 1300 1007 c 0,7,8
 1300 902 1300 902 1230 827.5 c 128,-1,9
 1160 753 1160 753 1020 735 c 1,10,11
 1094.27868852 676.868852459 1094.27868852 676.868852459 1155.13934426 575.43442623 c 128,-1,12
 1216 474 1216 474 1257 405.5 c 128,-1,13
 1298 337 1298 337 1320 301 c 1,14,-1
 1148 301 l 1,15,-1
 1023 525 l 2,16,17
 952 654 952 654 871 716 c 1,0,-1
731 1149 m 1,18,-1
 731 843 l 1,19,-1
 857 843 l 2,20,21
 1005 843 1005 843 1073 875.5 c 128,-1,22
 1141 908 1141 908 1141 1000.5 c 128,-1,23
 1141 1093 1141 1093 1077.5 1121 c 128,-1,24
 1014 1149 1014 1149 847 1149 c 2,25,-1
 731 1149 l 1,18,-1
667.5 137.5 m 128,-1,27
 776 99 776 99 904.5 99 c 128,-1,28
 1033 99 1033 99 1145.5 137 c 128,-1,29
 1258 175 1258 175 1337 240.5 c 128,-1,30
 1416 306 1416 306 1472 392.5 c 0,31,32
 1582 562.410714286 1582 562.410714286 1582 722.205357143 c 128,-1,33
 1582 882 1582 882 1555 980.5 c 128,-1,34
 1528 1079 1528 1079 1471 1166.5 c 128,-1,35
 1414 1254 1414 1254 1334.5 1320 c 0,36,37
 1162.25 1463 1162.25 1463 897 1463 c 0,38,39
 533.862068966 1463 533.862068966 1463 348 1169 c 0,40,41
 240 998.163636364 240 998.163636364 240 839.081818182 c 128,-1,42
 240 680 240 680 267 581 c 128,-1,43
 294 482 294 482 349 395 c 128,-1,44
 404 308 404 308 481.5 242 c 128,-1,26
 559 176 559 176 667.5 137.5 c 128,-1,27
1661.5 1070 m 128,-1,46
 1706 937 1706 937 1706 780.5 c 128,-1,47
 1706 624 1706 624 1662 491 c 128,-1,48
 1618 358 1618 358 1542.5 264 c 128,-1,49
 1467 170 1467 170 1364.5 104 c 0,50,51
 1164.15909091 -25 1164.15909091 -25 902 -25 c 0,52,53
 514.267379679 -25 514.267379679 -25 280.5 264.5 c 0,54,55
 117 466.98013245 117 466.98013245 117 781 c 0,56,57
 117 1235.24 117 1235.24 453 1457 c 0,58,59
 648.454545455 1586 648.454545455 1586 835.727272727 1586 c 128,-1,60
 1023 1586 1023 1586 1140.5 1554.5 c 128,-1,61
 1258 1523 1258 1523 1361 1456.5 c 128,-1,62
 1464 1390 1464 1390 1540.5 1296.5 c 128,-1,45
 1617 1203 1617 1203 1661.5 1070 c 128,-1,46
EndSplineSet
EndChar

StartChar: uni00AF
Encoding: 175 175 112
Width: 1062
Flags: W
HStem: 1486 139<133 933>
LayerCount: 2
Fore
SplineSet
933 1625 m 1,0,-1
 933 1486 l 1,1,-1
 133 1486 l 1,2,-1
 133 1625 l 1,3,-1
 933 1625 l 1,0,-1
EndSplineSet
EndChar

StartChar: degree
Encoding: 176 176 113
Width: 816
Flags: W
HStem: 919 127<299.368 518.831> 1430 125<300.079 517.749>
VStem: 128 110<1109.92 1367.07> 581 109<1109.92 1367.07>
LayerCount: 2
Fore
SplineSet
530 1374.5 m 128,-1,1
 479 1430 479 1430 409.5 1430 c 128,-1,2
 340 1430 340 1430 289 1374.5 c 128,-1,3
 238 1319 238 1319 238 1238.5 c 128,-1,4
 238 1158 238 1158 288 1102 c 128,-1,5
 338 1046 338 1046 409 1046 c 128,-1,6
 480 1046 480 1046 530.5 1102 c 128,-1,7
 581 1158 581 1158 581 1238.5 c 128,-1,0
 581 1319 581 1319 530 1374.5 c 128,-1,1
409 919 m 128,-1,9
 295 919 295 919 211.5 1014 c 128,-1,10
 128 1109 128 1109 128 1239 c 128,-1,11
 128 1369 128 1369 211.5 1462 c 128,-1,12
 295 1555 295 1555 410 1555 c 128,-1,13
 525 1555 525 1555 607.5 1462 c 128,-1,14
 690 1369 690 1369 690 1239 c 128,-1,15
 690 1109 690 1109 606.5 1014 c 128,-1,8
 523 919 523 919 409 919 c 128,-1,9
EndSplineSet
EndChar

StartChar: plusminus
Encoding: 177 177 114
Width: 1234
Flags: W
HStem: 0 148<133 1111> 642 147<133 550 687 1108>
VStem: 550 133<240 642 789 1193>
LayerCount: 2
Fore
SplineSet
1111 0 m 1,0,-1
 133 0 l 1,1,-1
 133 148 l 1,2,-1
 1111 148 l 1,3,-1
 1111 0 l 1,0,-1
122 789 m 1,4,-1
 550 789 l 1,5,-1
 550 1193 l 1,6,-1
 683 1193 l 1,7,-1
 683 789 l 1,8,-1
 1108 789 l 1,9,-1
 1108 642 l 1,10,-1
 687 642 l 1,11,-1
 687 240 l 1,12,-1
 553 240 l 1,13,-1
 553 642 l 1,14,-1
 133 642 l 1,15,-1
 122 789 l 1,4,-1
EndSplineSet
EndChar

StartChar: twosuperior
Encoding: 178 178 115
Width: 763
Flags: W
HStem: 650 128<297 615> 1424 127<276.46 485.743>
VStem: 504 111<1173.32 1405.7>
LayerCount: 2
Fore
SplineSet
143 1367 m 1,0,1
 206.448275862 1551 206.448275862 1551 387 1551 c 0,2,3
 486 1551 486 1551 551.5 1483.5 c 128,-1,4
 617 1416 617 1416 617 1327.5 c 128,-1,5
 617 1239 617 1239 594.5 1174.5 c 128,-1,6
 572 1110 572 1110 521.5 1039.5 c 0,7,8
 446.747179126 935.142101551 446.747179126 935.142101551 297 778 c 1,9,-1
 615 778 l 1,10,-1
 615 650 l 1,11,-1
 134 650 l 1,12,-1
 134 769 l 1,13,14
 455.990585071 1127.78950908 455.990585071 1127.78950908 493 1240.5 c 0,15,16
 504 1274 504 1274 504 1303 c 0,17,18
 504 1424 504 1424 387.5 1424 c 128,-1,19
 271 1424 271 1424 217 1282 c 1,20,-1
 143 1367 l 1,0,1
EndSplineSet
EndChar

StartChar: threesuperior
Encoding: 179 179 116
Width: 756
Flags: W
HStem: 631 122<230.397 454.498> 1046 128<260 447.485> 1424 129<233.265 457.288>
VStem: 478 115<1205.93 1403.5> 498 115<794.269 1007.48>
LayerCount: 2
Fore
SplineSet
304 1174 m 2,0,1
 478 1174 478 1174 478 1299 c 128,-1,2
 478 1424 478 1424 352 1424 c 0,3,4
 272 1424 272 1424 185 1339 c 1,5,-1
 132 1442 l 1,6,7
 224.87755102 1553 224.87755102 1553 337.93877551 1553 c 128,-1,8
 451 1553 451 1553 522 1485 c 128,-1,9
 593 1417 593 1417 593 1295.5 c 128,-1,10
 593 1174 593 1174 498 1112 c 1,11,12
 613 1047 613 1047 613 912.5 c 128,-1,13
 613 778 613 778 537 704.5 c 128,-1,14
 461 631 461 631 340 631 c 128,-1,15
 219 631 219 631 132 735 c 1,16,-1
 187 838 l 1,17,18
 264 753 264 753 337.5 753 c 128,-1,19
 411 753 411 753 454.5 794 c 128,-1,20
 498 835 498 835 498 903 c 0,21,22
 498 1046 498 1046 308 1046 c 2,23,-1
 260 1046 l 1,24,-1
 260 1174 l 1,25,-1
 304 1174 l 2,0,1
EndSplineSet
EndChar

StartChar: acute
Encoding: 180 180 117
Width: 639
Flags: W
HStem: 1267 336
VStem: 128 413
LayerCount: 2
Fore
SplineSet
541 1603 m 1,0,-1
 257 1267 l 1,1,-1
 128 1267 l 1,2,-1
 330 1603 l 1,3,-1
 541 1603 l 1,0,-1
EndSplineSet
EndChar

StartChar: paragraph
Encoding: 182 182 118
Width: 1068
Flags: W
HStem: 1430 131<518.52 737 852 927>
VStem: 97 421<1016.01 1391.43> 393 125<-158 847> 737 115<-158 1430>
LayerCount: 2
Fore
SplineSet
518 -158 m 1,0,-1
 393 -158 l 1,1,-1
 393 847 l 1,2,3
 271 849 271 849 184 953 c 128,-1,4
 97 1057 97 1057 97 1218 c 0,5,6
 97 1561 97 1561 561 1561 c 2,7,-1
 927 1561 l 1,8,-1
 927 1430 l 1,9,-1
 852 1430 l 1,10,-1
 852 -158 l 1,11,-1
 737 -158 l 1,12,-1
 737 1430 l 1,13,-1
 518 1430 l 1,14,-1
 518 -158 l 1,0,-1
EndSplineSet
EndChar

StartChar: middot
Encoding: 183 183 119
Width: 468
Flags: W
HStem: 551 227<140 332>
VStem: 140 192<551 778>
LayerCount: 2
Fore
SplineSet
332 778 m 1,0,-1
 332 551 l 1,1,-1
 140 551 l 1,2,-1
 140 778 l 1,3,-1
 332 778 l 1,0,-1
EndSplineSet
EndChar

StartChar: cedilla
Encoding: 184 184 120
Width: 596
Flags: W
HStem: -425 88<120.927 347.526> -332 20G<120.242 167.5> -180 83<298 347.878>
VStem: 226 86<-70 16> 356 126<-327.123 -188.351>
LayerCount: 2
Fore
SplineSet
482 -257 m 0,0,1
 482 -425 482 -425 268 -425 c 0,2,3
 211 -425 211 -425 114 -403 c 1,4,-1
 122 -312 l 1,5,6
 213 -337 213 -337 256 -337 c 0,7,8
 356 -337 356 -337 356 -258.5 c 128,-1,9
 356 -180 356 -180 259 -180 c 1,10,-1
 198 -184 l 1,11,-1
 226 16 l 1,12,-1
 312 16 l 1,13,-1
 298 -97 l 1,14,-1
 305 -97 l 2,15,16
 381 -97 381 -97 431.5 -138 c 128,-1,17
 482 -179 482 -179 482 -257 c 0,0,1
EndSplineSet
EndChar

StartChar: onesuperior
Encoding: 185 185 121
Width: 613
Flags: W
HStem: 650 128<163 271 377 483>
VStem: 271 106<778 1369>
LayerCount: 2
Fore
SplineSet
136 1294 m 1,0,-1
 136 1436 l 1,1,2
 229 1474 229 1474 285 1519 c 1,3,-1
 377 1538 l 1,4,-1
 377 775 l 1,5,-1
 483 775 l 1,6,-1
 483 650 l 1,7,-1
 163 650 l 1,8,-1
 163 778 l 1,9,-1
 271 778 l 1,10,11
 271 1015 271 1015 270 1184 c 128,-1,12
 269 1353 269 1353 269 1369 c 1,13,14
 210 1330 210 1330 136 1294 c 1,0,-1
EndSplineSet
EndChar

StartChar: ordmasculine
Encoding: 186 186 122
Width: 899
Flags: W
HStem: 826 115<334.48 566.373> 1473 117<336.197 564.712>
VStem: 131 125<1027.22 1384.46> 645 124<1026.58 1383.47>
LayerCount: 2
Fore
SplineSet
217.5 1482 m 128,-1,1
 304 1590 304 1590 451.5 1590 c 128,-1,2
 599 1590 599 1590 684 1481 c 128,-1,3
 769 1372 769 1372 769 1207 c 128,-1,4
 769 1042 769 1042 684.5 934 c 128,-1,5
 600 826 600 826 450 826 c 128,-1,6
 300 826 300 826 215.5 933.5 c 128,-1,7
 131 1041 131 1041 131 1207.5 c 128,-1,0
 131 1374 131 1374 217.5 1482 c 128,-1,1
308 1396.5 m 128,-1,9
 256 1320 256 1320 256 1205.5 c 128,-1,10
 256 1091 256 1091 307.5 1016 c 128,-1,11
 359 941 359 941 451 941 c 128,-1,12
 543 941 543 941 594 1016.5 c 128,-1,13
 645 1092 645 1092 645 1205.5 c 128,-1,14
 645 1319 645 1319 593 1396 c 128,-1,15
 541 1473 541 1473 450.5 1473 c 128,-1,8
 360 1473 360 1473 308 1396.5 c 128,-1,9
EndSplineSet
EndChar

StartChar: guillemotright
Encoding: 187 187 123
Width: 1007
Flags: W
VStem: 491 162<182 344 820 982>
DStem2: 491 182 653 182 0.531698 0.846934<86.1351 475.834> 659 982 501 982 0.522058 -0.85291<0 382.98>
LayerCount: 2
Fore
SplineSet
895 585 m 1,0,-1
 653 182 l 1,1,-1
 491 182 l 1,2,-1
 744 585 l 1,3,-1
 501 982 l 1,4,-1
 659 982 l 1,5,-1
 895 585 l 1,0,-1
528 585 m 1,6,-1
 263 182 l 1,7,-1
 124 182 l 1,8,-1
 356 585 l 1,9,-1
 129 982 l 1,10,-1
 266 982 l 1,11,-1
 528 585 l 1,6,-1
EndSplineSet
EndChar

StartChar: onequarter
Encoding: 188 188 124
Width: 1609
Flags: W
HStem: 0 21G<293 437.023> 240 118<1066 1312 1422 1516> 650 125<147 255 361 473>
VStem: 255 106<778 1369> 293 132<0 132> 1212 143<1404 1547> 1313 107<40 240 358 716>
DStem2: 293 0 425 0 0.515229 0.857053<68.0102 1799.36> 923 339 1066 358 0.560488 0.828162<95.8849 530.808>
LayerCount: 2
Fore
SplineSet
120 1294 m 1,0,-1
 120 1436 l 1,1,2
 211 1473 211 1473 268 1519 c 1,3,-1
 361 1538 l 1,4,-1
 361 775 l 1,5,-1
 473 775 l 1,6,-1
 473 650 l 1,7,-1
 147 650 l 1,8,-1
 147 778 l 1,9,-1
 255 778 l 1,10,11
 255 1015 255 1015 254 1184 c 128,-1,12
 253 1353 253 1353 253 1369 c 1,13,14
 194 1330 194 1330 120 1294 c 1,0,-1
1212 1547 m 1,15,-1
 1355 1547 l 1,16,-1
 425 0 l 1,17,-1
 293 0 l 1,18,-1
 1212 1547 l 1,15,-1
1420 40 m 1,19,-1
 1313 40 l 1,20,-1
 1313 240 l 1,21,-1
 923 240 l 1,22,-1
 923 339 l 1,23,-1
 1302 899 l 1,24,-1
 1422 899 l 1,25,-1
 1422 358 l 1,26,-1
 1516 358 l 1,27,-1
 1526 240 l 1,28,-1
 1420 240 l 1,29,-1
 1420 40 l 1,19,-1
1066 358 m 1,30,-1
 1312 358 l 1,31,32
 1312 688 1312 688 1313 716 c 1,33,-1
 1066 358 l 1,30,-1
EndSplineSet
EndChar

StartChar: onehalf
Encoding: 189 189 125
Width: 1591
Flags: W
HStem: -30 129<1123 1457> 0 21G<245 391.153> 650 125<149 257 363 487> 745 127<1105.02 1348.94>
VStem: 245 134<0 134> 257 106<778 1369> 1165 154<1393 1547> 1370 113<510.259 722.686>
DStem2: 934 93 1123 99 0.686895 0.726756<134.184 679.117>
LayerCount: 2
Fore
SplineSet
122 1294 m 1,0,-1
 122 1436 l 1,1,2
 215 1474 215 1474 271 1519 c 1,3,-1
 363 1538 l 1,4,-1
 363 775 l 1,5,-1
 487 775 l 1,6,-1
 487 650 l 1,7,-1
 149 650 l 1,8,-1
 149 778 l 1,9,-1
 257 778 l 1,10,11
 257 1015 257 1015 256 1184 c 128,-1,12
 255 1353 255 1353 255 1369 c 1,13,14
 196 1330 196 1330 122 1294 c 1,0,-1
1165 1547 m 1,15,-1
 1319 1547 l 1,16,-1
 379 0 l 1,17,-1
 245 0 l 1,18,-1
 1165 1547 l 1,15,-1
943 689 m 1,19,20
 1016.62068966 872 1016.62068966 872 1230 872 c 0,21,22
 1344 872 1344 872 1413.5 806.5 c 128,-1,23
 1483 741 1483 741 1483 665.5 c 128,-1,24
 1483 590 1483 590 1472 550 c 128,-1,25
 1461 510 1461 510 1447 477.5 c 128,-1,26
 1433 445 1433 445 1401 401 c 128,-1,27
 1369 357 1369 357 1347.5 329.5 c 128,-1,28
 1326 302 1326 302 1277.5 252 c 0,29,30
 1218.98369565 191.673913043 1218.98369565 191.673913043 1123 99 c 1,31,-1
 1457 99 l 1,32,-1
 1457 -30 l 1,33,-1
 934 -30 l 1,34,-1
 934 93 l 1,35,36
 1226.51857969 370.283236994 1226.51857969 370.283236994 1274.75928984 435.641618497 c 0,37,38
 1370 564.677419355 1370 564.677419355 1370 627 c 0,39,40
 1370 745 1370 745 1232 745 c 128,-1,41
 1094 745 1094 745 1031 604 c 1,42,-1
 943 689 l 1,19,20
EndSplineSet
EndChar

StartChar: threequarters
Encoding: 190 190 126
Width: 1630
Flags: W
HStem: 0 21G<331 476.997> 245 116<1085 1331 1442 1538> 631 122<211.475 439.598> 1046 128<244 433.219> 1424 129<215.141 441.014>
VStem: 331 134<0 134> 462 138<1204.73 1401.95> 484 136<795.144 1006.65> 1249 144<1403 1547> 1334 107<44 245 361 721>
DStem2: 331 0 465 0 0.514414 0.857542<68.9315 1798.85> 942 343 1085 361 0.560488 0.828162<95.0568 532.757>
LayerCount: 2
Fore
SplineSet
288 1174 m 2,0,1
 462 1174 462 1174 462 1299 c 128,-1,2
 462 1424 462 1424 337 1424 c 0,3,4
 253 1424 253 1424 166 1339 c 1,5,-1
 116 1442 l 1,6,7
 208.87755102 1553 208.87755102 1553 304.93877551 1553 c 128,-1,8
 401 1553 401 1553 460 1524.5 c 0,9,10
 600 1456.87288136 600 1456.87288136 600 1315.93644068 c 128,-1,11
 600 1175 600 1175 487 1112 c 1,12,13
 620 1049 620 1049 620 914.5 c 128,-1,14
 620 780 620 780 534 705.5 c 128,-1,15
 448 631 448 631 325.5 631 c 128,-1,16
 203 631 203 631 116 735 c 1,17,-1
 168 838 l 1,18,19
 245 753 245 753 319 753 c 128,-1,20
 393 753 393 753 438.5 794 c 128,-1,21
 484 835 484 835 484 903 c 0,22,23
 484 1046 484 1046 293 1046 c 2,24,-1
 244 1046 l 1,25,-1
 244 1174 l 1,26,-1
 288 1174 l 2,0,1
1249 1547 m 1,27,-1
 1393 1547 l 1,28,-1
 465 0 l 1,29,-1
 331 0 l 1,30,-1
 1249 1547 l 1,27,-1
1441 44 m 1,31,-1
 1334 44 l 1,32,-1
 1334 245 l 1,33,-1
 942 245 l 1,34,-1
 942 343 l 1,35,-1
 1321 903 l 1,36,-1
 1442 903 l 1,37,-1
 1442 361 l 1,38,-1
 1538 361 l 1,39,-1
 1546 245 l 1,40,-1
 1441 245 l 1,41,-1
 1441 44 l 1,31,-1
1085 361 m 1,42,-1
 1331 361 l 1,43,44
 1331 636 1331 636 1334 721 c 1,45,-1
 1085 361 l 1,42,-1
EndSplineSet
EndChar

StartChar: AE
Encoding: 198 198 134
Width: 2092
Flags: W
HStem: 0 158<1342 1966> 427 162<564 1130> 724 158<1300 1911> 1409 159<1017 1069 1241 1946>
DStem2: 85 0 258 0 0.463416 0.886141<80.1709 561.431 743.913 743.913> 1241 1409 1069 1409 0.0806449 -0.996743<0 528.429 687.527 808.378 971.624 1255.07>
LayerCount: 2
Fore
SplineSet
1069 1409 m 1,0,-1
 1017 1409 l 1,1,-1
 564 589 l 1,2,-1
 1130 589 l 1,3,-1
 1069 1409 l 1,0,-1
85 0 m 1,4,-1
 905 1568 l 1,5,-1
 1946 1568 l 1,6,-1
 1946 1409 l 1,7,-1
 1241 1409 l 1,8,-1
 1280 882 l 1,9,-1
 1911 882 l 1,10,-1
 1911 724 l 1,11,-1
 1300 724 l 1,12,-1
 1342 158 l 1,13,-1
 1966 158 l 1,14,-1
 1966 0 l 1,15,-1
 1183 0 l 1,16,-1
 1152 427 l 1,17,-1
 480 427 l 1,18,-1
 258 0 l 1,19,-1
 85 0 l 1,4,-1
EndSplineSet
EndChar

StartChar: Eth
Encoding: 208 208 144
Width: 1635
Flags: W
HStem: 0 158<421 978.555> 707 149<100 269 421 637> 1409 159<421 951.934>
VStem: 269 152<158 707 856 1409> 1339 160<516.575 1063.74>
LayerCount: 2
Fore
SplineSet
269 0 m 1,0,-1
 269 707 l 1,1,-1
 100 707 l 1,2,-1
 100 856 l 1,3,-1
 269 856 l 1,4,-1
 269 1568 l 1,5,-1
 568 1568 l 2,6,7
 1107.86516854 1568 1107.86516854 1568 1328.5 1321 c 0,8,9
 1499 1130.12578616 1499 1130.12578616 1499 773.562893082 c 128,-1,10
 1499 417 1499 417 1286 208.5 c 128,-1,11
 1073 0 1073 0 677 0 c 2,12,-1
 269 0 l 1,0,-1
637 707 m 1,13,-1
 421 707 l 1,14,-1
 421 158 l 1,15,-1
 692 158 l 2,16,17
 1169.36160714 158 1169.36160714 158 1299.5 527 c 0,18,19
 1339 639 1339 639 1339 794.5 c 128,-1,20
 1339 950 1339 950 1292 1072.5 c 128,-1,21
 1245 1195 1245 1195 1148.5 1269 c 0,22,23
 965.932432432 1409 965.932432432 1409 591 1409 c 2,24,-1
 421 1409 l 1,25,-1
 421 856 l 1,26,-1
 637 856 l 1,27,-1
 637 707 l 1,13,-1
EndSplineSet
EndChar

StartChar: multiply
Encoding: 215 215 151
Width: 993
Flags: W
DStem2: 206 1027 115 917 0.655581 -0.755125<23.4059 426.514 593.396 994.338> 115 276 206 166 0.655581 0.755125<0 403.108 569.991 970.933>
LayerCount: 2
Fore
SplineSet
860 915 m 1,0,-1
 595 598 l 1,1,-1
 860 278 l 1,2,-1
 767 166 l 1,3,-1
 488 486 l 1,4,-1
 206 166 l 1,5,-1
 115 276 l 1,6,-1
 381 598 l 1,7,-1
 115 917 l 1,8,-1
 206 1027 l 1,9,-1
 488 707 l 1,10,-1
 767 1027 l 1,11,-1
 860 915 l 1,0,-1
EndSplineSet
EndChar

StartChar: Oslash
Encoding: 216 216 152
Width: 1717
Flags: W
HStem: -25 177<663.232 1076.28> 1409 177<624.032 1060.53>
VStem: 121 190<496.439 1059.78> 1390 191<505.677 1072.04>
DStem2: 419 -137 544 -180 0.374023 0.927419<6.87384 2029.29>
LayerCount: 2
Fore
SplineSet
1178 1745 m 1,0,-1
 1309 1699 l 1,1,-1
 544 -180 l 1,2,-1
 419 -137 l 1,3,-1
 1178 1745 l 1,0,-1
851 -25 m 128,-1,5
 617 -25 617 -25 450.5 79 c 0,6,7
 121 284.813813814 121 284.813813814 121 778 c 0,8,9
 121 1151 121 1151 314 1368.5 c 128,-1,10
 507 1586 507 1586 851 1586 c 128,-1,11
 1195 1586 1195 1586 1388 1368.5 c 128,-1,12
 1581 1151 1581 1151 1581 778 c 0,13,14
 1581 284.813813814 1581 284.813813814 1251.5 79 c 0,15,4
 1085 -25 1085 -25 851 -25 c 128,-1,5
851 1409 m 128,-1,17
 719 1409 719 1409 615 1360.5 c 128,-1,18
 511 1312 511 1312 445 1227 c 0,19,20
 311 1054.42424242 311 1054.42424242 311 785 c 0,21,22
 311 341.802884615 311 341.802884615 614 200.5 c 0,23,24
 718 152 718 152 851 152 c 128,-1,25
 984 152 984 152 1088 200.5 c 128,-1,26
 1192 249 1192 249 1257.5 335.5 c 0,27,28
 1390 510.480916031 1390 510.480916031 1390 785 c 0,29,30
 1390 1219.19711538 1390 1219.19711538 1087 1360.5 c 0,31,16
 983 1409 983 1409 851 1409 c 128,-1,17
EndSplineSet
EndChar

StartChar: Thorn
Encoding: 222 222 158
Width: 1334
Flags: W
HStem: 0 21G<155 320> 373 165<320 889.25> 1116 169<320 887.75>
VStem: 155 165<0 373 538 1116 1285 1557> 1036 169<673.84 987.538>
LayerCount: 2
Fore
SplineSet
641 1285 m 2,0,1
 1205 1285 1205 1285 1205 829 c 0,2,3
 1205 623 1205 623 1060 498 c 128,-1,4
 915 373 915 373 667 373 c 2,5,-1
 320 373 l 1,6,-1
 320 0 l 1,7,-1
 155 0 l 1,8,-1
 155 1557 l 1,9,-1
 320 1557 l 1,10,-1
 320 1285 l 1,11,-1
 641 1285 l 2,0,1
1036 826 m 0,12,13
 1036 1116 1036 1116 659 1116 c 2,14,-1
 320 1116 l 1,15,-1
 320 538 l 1,16,-1
 686 538 l 2,17,18
 846 538 846 538 941 618 c 128,-1,19
 1036 698 1036 698 1036 826 c 0,12,13
EndSplineSet
EndChar

StartChar: germandbls
Encoding: 223 223 159
Width: 1329
Flags: W
HStem: -28 165<620.831 940.543> 0 21G<152 326> 1430 156<444.17 756.863>
VStem: 152 174<0 1302.26> 833 201<1111.86 1360.93> 1012 188<207.456 465.844>
DStem2: 645.5 974.5 741 849 0.77603 0.630696<-5.04145 256.198> 741 849 699 671 0.851504 -0.524347<0 415.614>
LayerCount: 2
Fore
SplineSet
152 1107 m 2,0,1
 152 1586 152 1586 602 1586 c 0,2,3
 794 1586 794 1586 914 1494 c 128,-1,4
 1034 1402 1034 1402 1034 1243 c 0,5,6
 1034 1074.69230769 1034 1074.69230769 783.5 882 c 0,7,8
 751 857 751 857 741 849 c 1,9,10
 766 833 766 833 819.5 800.5 c 128,-1,11
 873 768 873 768 908 745 c 128,-1,12
 943 722 943 722 992.5 686.5 c 128,-1,13
 1042 651 1042 651 1074.5 617 c 128,-1,14
 1107 583 1107 583 1138 541 c 0,15,16
 1200 457 1200 457 1200 310.5 c 128,-1,17
 1200 164 1200 164 1095 68 c 128,-1,18
 990 -28 990 -28 861 -28 c 0,19,20
 609.428571429 -28 609.428571429 -28 477 75 c 1,21,22
 529.25 189 529.25 189 543 222 c 1,23,24
 685 137 685 137 793 137 c 128,-1,25
 901 137 901 137 956.5 194.5 c 128,-1,26
 1012 252 1012 252 1012 318.5 c 128,-1,27
 1012 385 1012 385 991.5 425.5 c 128,-1,28
 971 466 971 466 942 497 c 128,-1,29
 913 528 913 528 867 563 c 128,-1,30
 821 598 821 598 785.5 619.5 c 128,-1,31
 750 641 750 641 699 671 c 128,-1,32
 648 701 648 701 595.5 736.5 c 128,-1,33
 543 772 543 772 543 832 c 128,-1,34
 543 892 543 892 580.5 922.5 c 128,-1,35
 618 953 618 953 645.5 974.5 c 128,-1,36
 673 996 673 996 685.5 1006 c 128,-1,37
 698 1016 698 1016 722 1037.5 c 128,-1,38
 746 1059 746 1059 758 1073 c 128,-1,39
 770 1087 770 1087 787 1109 c 128,-1,40
 804 1131 804 1131 812 1150 c 0,41,42
 833 1199.875 833 1199.875 833 1264.9375 c 128,-1,43
 833 1330 833 1330 766 1380 c 128,-1,44
 699 1430 699 1430 602 1430 c 0,45,46
 326 1430 326 1430 326 1086 c 2,47,-1
 326 0 l 1,48,-1
 152 0 l 1,49,-1
 152 1107 l 2,0,1
EndSplineSet
EndChar

StartChar: ae
Encoding: 230 230 166
Width: 1846
Flags: W
HStem: -28 149<335.727 680.188 1079.26 1386.3> 517 146<395.931 813 967 1571> 988 146<381.562 717.87 1122.58 1442.68>
VStem: 126 148<179.873 429.543> 814 150<275.721 517 663 813.625> 1571 150<663 839.021>
LayerCount: 2
Fore
SplineSet
813 678 m 2,0,1
 813 988 813 988 571 988 c 0,2,3
 353 988 353 988 262 822 c 1,4,-1
 182 921 l 1,5,6
 277 1134 277 1134 583 1134 c 0,7,8
 691 1134 691 1134 789 1078 c 128,-1,9
 887 1022 887 1022 909 921 c 1,10,11
 1014.46601942 1134 1014.46601942 1134 1265 1134 c 0,12,13
 1721 1134 1721 1134 1721 563 c 2,14,-1
 1721 517 l 1,15,-1
 964 517 l 1,16,-1
 964 498 l 2,17,18
 964 121 964 121 1228 121 c 0,19,20
 1414.90217391 121 1414.90217391 121 1523 316 c 1,21,-1
 1600 222 l 1,22,23
 1478 -28 1478 -28 1232.52631579 -28 c 128,-1,24
 987.052631579 -28 987.052631579 -28 886 212 c 1,25,26
 758.601769912 -32 758.601769912 -32 472 -32 c 0,27,28
 310 -32 310 -32 218 58.5 c 128,-1,29
 126 149 126 149 126 262 c 128,-1,30
 126 375 126 375 145.5 430 c 128,-1,31
 165 485 165 485 196 522 c 128,-1,32
 227 559 227 559 280 585.5 c 128,-1,33
 333 612 333 612 384.5 626.5 c 128,-1,34
 436 641 436 641 514 649 c 0,35,36
 631 661 631 661 813 661 c 1,37,-1
 813 678 l 2,0,1
274 314 m 0,38,39
 274 117 274 117 507 117 c 0,40,41
 814 117 814 117 814 517 c 1,42,-1
 666 511 l 1,43,44
 337.943262411 505.439716312 337.943262411 505.439716312 288 389.5 c 0,45,46
 274 357 274 357 274 314 c 0,38,39
1571 675 m 1,47,48
 1543.13013699 988 1543.13013699 988 1285 988 c 0,49,50
 1148 988 1148 988 1062.5 893.5 c 128,-1,51
 977 799 977 799 967 663 c 1,52,-1
 1571 663 l 1,53,-1
 1571 675 l 1,47,48
EndSplineSet
EndChar

StartChar: eth
Encoding: 240 240 176
Width: 1271
Flags: W
HStem: -25 171<448.414 810.641> 808 163<440.109 774.796>
VStem: 108 182<303.851 656.666> 966 172<301.548 648.688>
DStem2: 247 1281 290 1145 0.923458 0.3837<0 203.383 447.91 685.987> 501 1588 434 1361 0.637174 -0.77072<0 132.263 341.367 723.491>
LayerCount: 2
Fore
SplineSet
815 907 m 1,0,-1
 532 1243 l 1,1,-1
 290 1145 l 1,2,-1
 247 1281 l 1,3,-1
 434 1361 l 1,4,-1
 252 1588 l 1,5,-1
 501 1588 l 1,6,-1
 619 1438 l 1,7,-1
 886 1549 l 1,8,-1
 935 1413 l 1,9,-1
 715 1322 l 1,10,11
 974.537366548 998.341637011 974.537366548 998.341637011 1022.26868327 906.170818505 c 128,-1,12
 1070 814 1070 814 1094.5 749.5 c 0,13,14
 1138 634.979591837 1138 634.979591837 1138 488.489795918 c 128,-1,15
 1138 342 1138 342 1081.5 227 c 0,16,17
 957.691304348 -25 957.691304348 -25 624 -25 c 0,18,19
 258.681081081 -25 258.681081081 -25 142.5 286.5 c 0,20,21
 108 379 108 379 108 486 c 0,22,23
 108 707 108 707 231.5 839 c 128,-1,24
 355 971 355 971 529.296296296 971 c 128,-1,25
 703.592592593 971 703.592592593 971 815 907 c 1,0,-1
874 238.5 m 128,-1,27
 966 331 966 331 966 473 c 128,-1,28
 966 615 966 615 875 711.5 c 128,-1,29
 784 808 784 808 625 808 c 128,-1,30
 466 808 466 808 378 716 c 128,-1,31
 290 624 290 624 290 479 c 128,-1,32
 290 334 290 334 384 240 c 128,-1,33
 478 146 478 146 630 146 c 128,-1,26
 782 146 782 146 874 238.5 c 128,-1,27
EndSplineSet
EndChar

StartChar: divide
Encoding: 247 247 183
Width: 1211
Flags: W
HStem: 22 227<491 682> 523 149<97 1098> 939 227<491 716>
VStem: 491 225<939 1166> 491 191<22 249>
LayerCount: 2
Fore
SplineSet
1098 523 m 1,0,-1
 97 523 l 1,1,-1
 97 672 l 1,2,-1
 1098 672 l 1,3,-1
 1098 523 l 1,0,-1
716 1166 m 1,4,-1
 716 939 l 1,5,-1
 491 939 l 1,6,-1
 491 1166 l 1,7,-1
 716 1166 l 1,4,-1
682 249 m 1,8,-1
 682 22 l 1,9,-1
 491 22 l 1,10,-1
 491 249 l 1,11,-1
 682 249 l 1,8,-1
EndSplineSet
EndChar

StartChar: oslash
Encoding: 248 248 184
Width: 1282
Flags: W
HStem: -25 142<520.775 810.883> 988 144<456.443 744.326>
VStem: 112 152<320.741 776.371> 994 154<329.361 792.47>
DStem2: 247 -247 347 -280 0.377478 0.926019<7.18919 314.736 463.698 1305.09 1460.82 1753.74>
LayerCount: 2
Fore
SplineSet
363 38 m 1,0,1
 112 175.64516129 112 175.64516129 112 551 c 0,2,3
 112 954.931034483 112 954.931034483 405.5 1086.5 c 0,4,5
 507 1132 507 1132 607.5 1132 c 128,-1,6
 708 1132 708 1132 801 1110 c 1,7,-1
 909 1377 l 1,8,-1
 1014 1341 l 1,9,-1
 904 1069 l 1,10,11
 1148 929.859504132 1148 929.859504132 1148 551 c 0,12,13
 1148 308.68 1148 308.68 1020.5 146.5 c 0,14,15
 885.672955975 -25 885.672955975 -25 630 -25 c 0,16,17
 563 -25 563 -25 465 -2 c 1,18,-1
 347 -280 l 1,19,-1
 247 -247 l 1,20,-1
 363 38 l 1,0,1
423 182 m 1,21,-1
 746 971 l 1,22,23
 667 988 667 988 591 988 c 128,-1,24
 515 988 515 988 430.5 925.5 c 0,25,26
 264 802.349112426 264 802.349112426 264 549.992738031 c 128,-1,27
 264 297.636363636 264 297.636363636 423 182 c 1,21,-1
844 919 m 1,28,-1
 519 135 l 1,29,30
 586 117 586 117 655 117 c 128,-1,31
 724 117 724 117 793.5 152 c 128,-1,32
 863 187 863 187 906 248 c 0,33,34
 994 372.837209302 994 372.837209302 994 587.134820867 c 128,-1,35
 994 801.432432432 994 801.432432432 844 919 c 1,28,-1
EndSplineSet
EndChar

StartChar: thorn
Encoding: 254 254 190
Width: 1293
Flags: W
HStem: -459 21G<162 333> -25 164<489.014 842.129> 964 160<495.382 831.001>
VStem: 162 171<-459 162 311.095 789.967 953 1603> 985 173<319.242 779.885>
LayerCount: 2
Fore
SplineSet
333 162 m 1,0,-1
 333 -459 l 1,1,-1
 162 -459 l 1,2,-1
 162 1322 l 1,3,-1
 157 1603 l 1,4,-1
 333 1603 l 1,5,-1
 333 953 l 1,6,7
 467 1124 467 1124 692 1124 c 0,8,9
 1037.2173913 1124 1037.2173913 1124 1131 764.5 c 0,10,11
 1158 661 1158 661 1158 554 c 128,-1,12
 1158 447 1158 447 1143.5 367 c 128,-1,13
 1129 287 1129 287 1096 214 c 128,-1,14
 1063 141 1063 141 1012.5 89 c 0,15,16
 901.788461538 -25 901.788461538 -25 680.732940447 -25 c 128,-1,17
 459.677419355 -25 459.677419355 -25 333 162 c 1,0,-1
349 712.5 m 128,-1,19
 329 639 329 639 329 535.5 c 128,-1,20
 329 432 329 432 363.5 341.5 c 0,21,22
 440.696132597 139 440.696132597 139 672 139 c 0,23,24
 808.259259259 139 808.259259259 139 863.62962963 204 c 128,-1,25
 919 269 919 269 942.5 323.5 c 128,-1,26
 966 378 966 378 975.5 434.5 c 128,-1,27
 985 491 985 491 985 551 c 128,-1,28
 985 611 985 611 975.5 667.5 c 128,-1,29
 966 724 966 724 942.5 779 c 128,-1,30
 919 834 919 834 884.5 874 c 0,31,32
 806.875 964 806.875 964 695.4375 964 c 128,-1,33
 584 964 584 964 517 932 c 128,-1,34
 450 900 450 900 409.5 843 c 128,-1,18
 369 786 369 786 349 712.5 c 128,-1,19
EndSplineSet
EndChar

StartChar: gcedilla
Encoding: 291 291 207
Width: 1268
Flags: W
HStem: -432 164<357 806.428> 0 166<434.649 777.674> 964 160<434.922 780.047> 1078 20G<938.862 1115>
VStem: 111 171<339.405 785.934> 941 166<-143.271 184 346.044 784.127 953 1098>
LayerCount: 2
Fore
SplineSet
919 407 m 128,-1,1
 939 478 939 478 939 578 c 128,-1,2
 939 678 939 678 905 766 c 0,3,4
 828.5 964 828.5 964 597 964 c 0,5,6
 404.867924528 964 404.867924528 964 325.5 785 c 0,7,8
 282 686.893617021 282 686.893617021 282 595.446808511 c 128,-1,9
 282 504 282 504 292 449.5 c 128,-1,10
 302 395 302 395 325.5 342.5 c 128,-1,11
 349 290 349 290 384 251.5 c 0,12,13
 461.727272727 166 461.727272727 166 573.363636364 166 c 128,-1,14
 685 166 685 166 752 196.5 c 128,-1,15
 819 227 819 227 859 281.5 c 128,-1,0
 899 336 899 336 919 407 c 128,-1,1
357 -432 m 1,16,-1
 357 -268 l 1,17,-1
 513 -268 l 2,18,19
 781.790322581 -268 781.790322581 -268 860.5 -188 c 0,20,21
 933.115922539 -114.193652501 933.115922539 -114.193652501 937.057961269 -30.0968262507 c 128,-1,22
 941 54 941 54 941 119 c 2,23,-1
 941 184 l 1,24,25
 825 0 825 0 567 0 c 0,26,27
 298.2 0 298.2 0 177.5 246.5 c 0,28,29
 111 382.309859155 111 382.309859155 111 515.654929577 c 128,-1,30
 111 649 111 649 128 733 c 128,-1,31
 145 817 145 817 181.5 889.5 c 128,-1,32
 218 962 218 962 272 1013.5 c 0,33,34
 387.86407767 1124 387.86407767 1124 595.932038835 1124 c 128,-1,35
 804 1124 804 1124 938 953 c 1,36,-1
 939 1098 l 1,37,-1
 1115 1098 l 1,38,39
 1107 846 1107 846 1107 816 c 2,40,-1
 1107 135 l 2,41,42
 1107 -101.043478261 1107 -101.043478261 1068.5 -173.02173913 c 128,-1,43
 1030 -245 1030 -245 986 -292.5 c 128,-1,44
 942 -340 942 -340 879.5 -367.5 c 0,45,46
 732.909090909 -432 732.909090909 -432 507 -432 c 2,47,-1
 357 -432 l 1,16,-1
793 1749 m 1,48,-1
 683 1250 l 1,49,-1
 488 1250 l 1,50,-1
 653 1749 l 1,51,-1
 793 1749 l 1,48,-1
EndSplineSet
EndChar

StartChar: hbar
Encoding: 295 295 208
Width: 1269
Flags: W
HStem: 0 21G<234 403 951 1120> 964 160<570.118 870.105> 1275 143<86 623>
VStem: 234 169<0 809.18 945 1601> 951 169<0 869.986>
LayerCount: 2
Fore
SplineSet
403 719 m 1,0,-1
 403 0 l 1,1,-1
 234 0 l 1,2,-1
 234 1601 l 1,3,-1
 403 1601 l 1,4,-1
 403 945 l 1,5,6
 531 1124 531 1124 769 1124 c 0,7,8
 1120 1124 1120 1124 1120 657 c 2,9,-1
 1120 0 l 1,10,-1
 951 0 l 1,11,-1
 951 551 l 2,12,13
 951 821.183673469 951 821.183673469 889.5 899 c 0,14,15
 838.129032258 964 838.129032258 964 727.564516129 964 c 128,-1,16
 617 964 617 964 521.5 885 c 128,-1,17
 426 806 426 806 403 719 c 1,0,-1
623 1275 m 1,18,-1
 86 1275 l 1,19,-1
 86 1418 l 1,20,-1
 623 1418 l 1,21,-1
 623 1275 l 1,18,-1
EndSplineSet
EndChar

StartChar: dotlessi
Encoding: 305 305 215
Width: 445
Flags: W
HStem: 0 21G<147 291> 1078 20G<147 291>
VStem: 147 144<0 1098>
LayerCount: 2
Fore
SplineSet
291 1098 m 1,0,-1
 291 0 l 1,1,-1
 147 0 l 1,2,-1
 147 1098 l 1,3,-1
 291 1098 l 1,0,-1
EndSplineSet
EndChar

StartChar: IJ
Encoding: 306 306 216
Width: 1464
Flags: W
HStem: -28 167<854 1073.33> 0 21G<155 334>
VStem: 155 179<0 1557> 1133 176<206.725 1557>
LayerCount: 2
Fore
SplineSet
334 1557 m 1,0,-1
 334 0 l 1,1,-1
 155 0 l 1,2,-1
 155 1557 l 1,3,-1
 334 1557 l 1,0,-1
1133 409 m 2,4,-1
 1133 1557 l 1,5,-1
 1309 1557 l 1,6,-1
 1309 461 l 2,7,8
 1309 149.2 1309 149.2 1223.5 67.5 c 0,9,10
 1123.55813953 -28 1123.55813953 -28 887 -28 c 2,11,-1
 854 -28 l 1,12,-1
 854 139 l 1,13,-1
 907 139 l 1,14,15
 1039.9884106 141.955298013 1039.9884106 141.955298013 1070.9942053 180.477649007 c 128,-1,16
 1102 219 1102 219 1111.5 238 c 128,-1,17
 1121 257 1121 257 1125.5 288 c 0,18,19
 1133 339.666666667 1133 339.666666667 1133 409 c 2,4,-1
EndSplineSet
EndChar

StartChar: ij
Encoding: 307 307 217
Width: 976
Flags: W
HStem: -310 21G<437 445> 0 21G<155 325> 1078 20G<155 325 647 817> 1359 198<155 325 647 817>
VStem: 155 170<0 1098 1359 1557> 647 170<-80.0573 1098 1359 1557>
LayerCount: 2
Fore
SplineSet
325 1098 m 1,0,-1
 325 0 l 1,1,-1
 155 0 l 1,2,-1
 155 1098 l 1,3,-1
 325 1098 l 1,0,-1
325 1557 m 1,4,-1
 325 1359 l 1,5,-1
 155 1359 l 1,6,-1
 155 1557 l 1,7,-1
 325 1557 l 1,4,-1
817 1098 m 1,8,-1
 817 180 l 2,9,10
 817 -120 817 -120 743 -194 c 0,11,12
 657.862745098 -279.137254902 657.862745098 -279.137254902 445 -308 c 1,13,-1
 437 -310 l 1,14,-1
 437 -141 l 1,15,-1
 445 -141 l 1,16,17
 598.982128351 -122.335499594 598.982128351 -122.335499594 628 -41.5 c 0,18,19
 647 11.4285714286 647 11.4285714286 647 126 c 2,20,-1
 647 1098 l 1,21,-1
 817 1098 l 1,8,-1
817 1557 m 1,22,-1
 817 1359 l 1,23,-1
 647 1359 l 1,24,-1
 647 1557 l 1,25,-1
 817 1557 l 1,22,-1
EndSplineSet
EndChar

StartChar: kgreenlandic
Encoding: 312 312 221
Width: 1104
Flags: W
HStem: 0 21G<147 293 802.051 1014> 1085 20G<147 293 756.871 981>
VStem: 147 146<0 506 600 1105> 776 205<900 1105> 823 191<0 191>
DStem2: 293 600 458 551 0.686469 0.727159<77.6367 698.78> 458 551 293 506 0.723294 -0.690541<0 644.49>
LayerCount: 2
Fore
SplineSet
147 1105 m 1,0,-1
 293 1105 l 1,1,-1
 293 600 l 1,2,-1
 776 1105 l 1,3,-1
 981 1105 l 1,4,-1
 458 551 l 1,5,6
 807 227 807 227 1014 0 c 1,7,-1
 823 0 l 1,8,-1
 293 506 l 1,9,-1
 293 0 l 1,10,-1
 147 0 l 1,11,-1
 147 1105 l 1,0,-1
EndSplineSet
EndChar

StartChar: Lslash
Encoding: 321 321 224
Width: 1184
Flags: W
HStem: 0 158<416 1099> 527 148<100 248> 959 146<569 715>
VStem: 266 150<158 650 915 1568>
DStem2: 416 915 416 768 0.842732 0.538334<0 275.663>
LayerCount: 2
Fore
SplineSet
1099 158 m 1,0,-1
 1099 0 l 1,1,-1
 266 0 l 1,2,-1
 266 650 l 1,3,-1
 100 527 l 1,4,-1
 100 675 l 1,5,-1
 266 798 l 1,6,-1
 266 1568 l 1,7,-1
 416 1568 l 1,8,-1
 416 915 l 1,9,-1
 715 1105 l 1,10,-1
 715 959 l 1,11,-1
 416 768 l 1,12,-1
 416 158 l 1,13,-1
 1099 158 l 1,0,-1
EndSplineSet
EndChar

StartChar: lslash
Encoding: 322 322 225
Width: 668
Flags: W
HStem: 0 21G<255 397> 636 145<107 252> 959 146<405 551>
VStem: 255 142<0 741 997 1608>
DStem2: 107 781 107 636 0.807791 0.589469<0 95.9743 361.585 463.585>
LayerCount: 2
Fore
SplineSet
255 1608 m 1,0,-1
 397 1608 l 1,1,-1
 397 997 l 1,2,-1
 551 1105 l 1,3,-1
 551 959 l 1,4,-1
 397 849 l 1,5,-1
 397 0 l 1,6,-1
 255 0 l 1,7,-1
 255 741 l 1,8,-1
 107 636 l 1,9,-1
 107 781 l 1,10,-1
 255 889 l 1,11,-1
 255 1608 l 1,0,-1
EndSplineSet
EndChar

StartChar: OE
Encoding: 338 338 228
Width: 2025
Flags: W
HStem: -25 160<617.51 1032.44> 0 158<1322 1905> 724 158<1322 1843> 1409 159<1322 1879> 1438 158<619.105 1049.31>
VStem: 123 163<497.792 1059.96> 1170 152<241.075 724 882 1348.3>
LayerCount: 2
Fore
SplineSet
1905 158 m 1,0,-1
 1905 0 l 1,1,-1
 1170 0 l 1,2,-1
 1170 112 l 1,3,4
 1021 -25 1021 -25 837 -25 c 0,5,6
 495 -25 495 -25 309 192 c 128,-1,7
 123 409 123 409 123 785 c 0,8,9
 123 1224.30994152 123 1224.30994152 387.5 1445.5 c 0,10,11
 567.468531469 1596 567.468531469 1596 795.734265734 1596 c 128,-1,12
 1024 1596 1024 1596 1170 1486 c 1,13,-1
 1170 1568 l 1,14,-1
 1879 1568 l 1,15,-1
 1879 1409 l 1,16,-1
 1322 1409 l 1,17,-1
 1322 882 l 1,18,-1
 1843 882 l 1,19,-1
 1843 724 l 1,20,-1
 1322 724 l 1,21,-1
 1322 158 l 1,22,-1
 1905 158 l 1,0,-1
869 135 m 0,23,24
 1035 135 1035 135 1170 284 c 1,25,-1
 1170 1312 l 1,26,27
 1033 1438 1033 1438 869.5 1438 c 128,-1,28
 706 1438 706 1438 599.5 1384.5 c 128,-1,29
 493 1331 493 1331 425.5 1239.5 c 0,30,31
 286 1050.4 286 1050.4 286 781 c 0,32,33
 286 503.562962963 286 503.562962963 424.5 323 c 0,34,35
 568.704545455 135 568.704545455 135 869 135 c 0,23,24
EndSplineSet
EndChar

StartChar: oe
Encoding: 339 339 229
Width: 1995
Flags: W
HStem: -25 162<469.289 825.37 1324.81 1629.5> 511 135<1178 1693> 966 158<489.956 825.829 1320 1585.17>
VStem: 114 174<331.094 757.778> 997 174<332.617 511 646 771.127>
LayerCount: 2
Fore
SplineSet
1261 239 m 128,-1,1
 1341 137 1341 137 1488.375 137 c 128,-1,2
 1635.75 137 1635.75 137 1725 290 c 1,3,-1
 1829 178 l 1,4,5
 1718 -25 1718 -25 1469.71875 -25 c 128,-1,6
 1221.4375 -25 1221.4375 -25 1087 214 c 1,7,8
 953.504504505 -25 953.504504505 -25 646 -25 c 0,9,10
 258.019607843 -25 258.019607843 -25 146.5 325 c 0,11,12
 114 427 114 427 114 547 c 128,-1,13
 114 667 114 667 147 770 c 128,-1,14
 180 873 180 873 244.5 953 c 0,15,16
 382.36875 1124 382.36875 1124 670.013078704 1124 c 128,-1,17
 957.657407407 1124 957.657407407 1124 1087 895 c 1,18,19
 1217.25688073 1124 1217.25688073 1124 1462 1124 c 0,20,21
 1637 1124 1637 1124 1747.5 976 c 128,-1,22
 1858 828 1858 828 1858 576 c 1,23,-1
 1856 511 l 1,24,-1
 1171 511 l 1,25,0
 1181 341 1181 341 1261 239 c 128,-1,1
976 392.5 m 0,26,27
 997 465 997 465 997 549 c 128,-1,28
 997 633 997 633 976.5 706 c 128,-1,29
 956 779 956 779 914.5 837 c 0,30,31
 825.775862069 961 825.775862069 961 679.387931034 961 c 128,-1,32
 533 961 533 961 450 900.5 c 128,-1,33
 367 840 367 840 327.5 747 c 128,-1,34
 288 654 288 654 288 544 c 128,-1,35
 288 434 288 434 327 343.5 c 0,36,37
 415.988950276 137 415.988950276 137 650 137 c 0,38,39
 901.993103448 137 901.993103448 137 976 392.5 c 0,26,27
1624 880 m 128,-1,41
 1563 966 1563 966 1457.5 966 c 128,-1,42
 1352 966 1352 966 1273.5 880 c 128,-1,43
 1195 794 1195 794 1178 646 c 1,44,-1
 1693 646 l 1,45,40
 1685 794 1685 794 1624 880 c 128,-1,41
EndSplineSet
EndChar

StartChar: florin
Encoding: 402 402 248
Width: 978
Flags: W
HStem: -358 148<40.5289 195.774> 865 150<265 412 615 790> 1393 154<701.306 903.702>
DStem2: 250.706 -21 460 130 0.171957 0.985104<-171.17 900.538 1083.21 1450.64>
LayerCount: 2
Fore
SplineSet
412 865 m 1,0,-1
 254 865 l 1,1,-1
 265 1015 l 1,2,-1
 438 1015 l 1,3,-1
 460 1178 l 1,4,5
 512.038461538 1547 512.038461538 1547 783 1547 c 0,6,7
 832 1547 832 1547 911 1525 c 1,8,-1
 903 1369 l 1,9,10
 849 1393 849 1393 791.5 1393 c 0,11,12
 679.388235294 1393 679.388235294 1393 654 1227 c 1,13,-1
 615 1015 l 1,14,-1
 801 1015 l 1,15,-1
 790 865 l 1,16,-1
 593 865 l 1,17,-1
 460 130 l 2,18,19
 416.29194764 -112.075366918 416.29194764 -112.075366918 374.14597382 -182.037683459 c 128,-1,20
 332 -252 332 -252 298.5 -287.5 c 0,21,22
 231.971830986 -358 231.971830986 -358 163.985915493 -358 c 128,-1,23
 96 -358 96 -358 28 -339 c 1,24,-1
 39 -192 l 1,25,26
 88 -210 88 -210 127.5 -210 c 0,27,28
 208.411764706 -210 208.411764706 -210 250.705882353 -21 c 128,-1,29
 293 168 293 168 347 487.5 c 128,-1,30
 401 807 401 807 412 865 c 1,0,-1
EndSplineSet
EndChar

StartChar: dotlessj
Encoding: 567 567 277
Width: 571
Flags: W
HStem: -461 156<28 201.251> 1078 20G<271 416>
VStem: 271 145<-225.02 1098>
LayerCount: 2
Fore
SplineSet
102 -305 m 0,0,1
 271 -305 271 -305 271 34 c 2,2,-1
 271 1098 l 1,3,-1
 416 1098 l 1,4,-1
 416 114 l 2,5,6
 416 -461 416 -461 135 -461 c 0,7,8
 90 -461 90 -461 28 -448 c 1,9,-1
 28 -292 l 1,10,11
 97 -305 97 -305 102 -305 c 0,0,1
EndSplineSet
EndChar

StartChar: circumflex
Encoding: 710 710 278
Width: 800
Flags: W
HStem: 1487 116<335 468>
VStem: 128 547
LayerCount: 2
Fore
SplineSet
128 1255 m 1,0,-1
 335 1603 l 1,1,-1
 468 1603 l 1,2,-1
 675 1255 l 1,3,-1
 561 1255 l 1,4,-1
 400 1487 l 1,5,-1
 239 1255 l 1,6,-1
 128 1255 l 1,0,-1
EndSplineSet
EndChar

StartChar: caron
Encoding: 711 711 279
Width: 785
Flags: W
HStem: 1255 346
VStem: 112 129<1472 1601> 541 137<1464 1601>
DStem2: 241 1601 112 1601 0.529558 -0.848274<0 275.704> 390 1369 461 1255 0.531319 0.847172<0 276.773>
LayerCount: 2
Fore
SplineSet
328 1255 m 1,0,-1
 112 1601 l 1,1,-1
 241 1601 l 1,2,-1
 390 1369 l 1,3,-1
 541 1601 l 1,4,-1
 678 1601 l 1,5,-1
 461 1255 l 1,6,-1
 328 1255 l 1,0,-1
EndSplineSet
EndChar

StartChar: breve
Encoding: 728 728 280
Width: 754
Flags: W
HStem: 1299 117<279.015 476.436>
VStem: 128 116<1453.65 1557> 513 117<1453.65 1557>
LayerCount: 2
Fore
SplineSet
554 1367.5 m 128,-1,1
 478 1299 478 1299 377.5 1299 c 128,-1,2
 277 1299 277 1299 202.5 1367 c 128,-1,3
 128 1435 128 1435 128 1557 c 1,4,-1
 244 1557 l 1,5,6
 244 1489 244 1489 281.5 1452.5 c 128,-1,7
 319 1416 319 1416 377 1416 c 128,-1,8
 435 1416 435 1416 474 1452.5 c 128,-1,9
 513 1489 513 1489 513 1557 c 1,10,-1
 630 1557 l 1,11,0
 630 1436 630 1436 554 1367.5 c 128,-1,1
EndSplineSet
EndChar

StartChar: dotaccent
Encoding: 729 729 281
Width: 411
Flags: W
HStem: 1341 176<137 280>
VStem: 137 143<1341 1517>
LayerCount: 2
Fore
SplineSet
280 1341 m 1,0,-1
 137 1341 l 1,1,-1
 137 1517 l 1,2,-1
 280 1517 l 1,3,-1
 280 1341 l 1,0,-1
EndSplineSet
EndChar

StartChar: ring
Encoding: 730 730 282
Width: 634
Flags: W
HStem: 1237 93<235.509 396.552> 1557 91<243.917 395.801>
VStem: 135 86<1343.39 1534.71> 416 88<1349.22 1539.06>
LayerCount: 2
Fore
SplineSet
221 1442 m 0,0,1
 221 1330 221 1330 320 1330 c 0,2,3
 359 1330 359 1330 387.5 1363 c 128,-1,4
 416 1396 416 1396 416 1442.5 c 128,-1,5
 416 1489 416 1489 388.5 1523 c 128,-1,6
 361 1557 361 1557 321 1557 c 128,-1,7
 281 1557 281 1557 251 1522.5 c 128,-1,8
 221 1488 221 1488 221 1442 c 0,0,1
190 1297 m 128,-1,10
 135 1357 135 1357 135 1443.5 c 128,-1,11
 135 1530 135 1530 189 1589 c 128,-1,12
 243 1648 243 1648 320 1648 c 128,-1,13
 397 1648 397 1648 450.5 1587.5 c 128,-1,14
 504 1527 504 1527 504 1442 c 128,-1,15
 504 1357 504 1357 450 1297 c 128,-1,16
 396 1237 396 1237 320.5 1237 c 128,-1,9
 245 1237 245 1237 190 1297 c 128,-1,10
EndSplineSet
EndChar

StartChar: ogonek
Encoding: 731 731 283
Width: 590
Flags: W
HStem: -419 116<263.002 465.705>
VStem: 118 125<-282.654 -121.097>
LayerCount: 2
Fore
SplineSet
423 0 m 1,0,1
 243 -135 243 -135 243 -214 c 0,2,3
 243 -252 243 -252 270.5 -277.5 c 128,-1,4
 298 -303 298 -303 345.5 -303 c 128,-1,5
 393 -303 393 -303 468 -270 c 1,6,-1
 468 -387 l 1,7,8
 396 -419 396 -419 311.5 -419 c 128,-1,9
 227 -419 227 -419 172.5 -372.5 c 128,-1,10
 118 -326 118 -326 118 -246.5 c 0,11,12
 118 -100.759036145 118 -100.759036145 309 12 c 1,13,-1
 423 0 l 1,0,1
EndSplineSet
EndChar

StartChar: tilde
Encoding: 732 732 284
Width: 885
Flags: W
HStem: 1279 141<479.785 638.944> 1393 142<251.852 412.216>
VStem: 134 107<1292 1386.68> 648 109<1423.52 1523>
LayerCount: 2
Fore
SplineSet
134 1292 m 1,0,1
 140.75 1535 140.75 1535 324 1535 c 0,2,3
 391.465116279 1535 391.465116279 1535 439.23255814 1495.5 c 0,4,5
 530.534883721 1420 530.534883721 1420 587.26744186 1420 c 128,-1,6
 644 1420 644 1420 648 1523 c 1,7,-1
 757 1523 l 1,8,9
 754 1417 754 1417 706.5 1348 c 128,-1,10
 659 1279 659 1279 595 1279 c 128,-1,11
 531 1279 531 1279 481 1307.5 c 128,-1,12
 431 1336 431 1336 386.5 1364.5 c 128,-1,13
 342 1393 342 1393 314 1393 c 0,14,15
 245 1393 245 1393 241 1292 c 1,16,-1
 134 1292 l 1,0,1
EndSplineSet
EndChar

StartChar: hungarumlaut
Encoding: 733 733 285
Width: 817
Flags: W
HStem: 1259 335
VStem: 128 585
LayerCount: 2
Fore
SplineSet
479 1594 m 1,0,-1
 227 1259 l 1,1,-1
 128 1259 l 1,2,-1
 326 1594 l 1,3,-1
 479 1594 l 1,0,-1
713 1594 m 1,4,-1
 463 1259 l 1,5,-1
 361 1259 l 1,6,-1
 563 1594 l 1,7,-1
 713 1594 l 1,4,-1
EndSplineSet
EndChar

StartChar: dotaccentcmb
Encoding: 775 775 286
Width: 411
Flags: W
HStem: 1341 176<137 280>
VStem: 137 143<1341 1517>
LayerCount: 2
Fore
SplineSet
280 1341 m 1,0,-1
 137 1341 l 1,1,-1
 137 1517 l 1,2,-1
 280 1517 l 1,3,-1
 280 1341 l 1,0,-1
EndSplineSet
EndChar

StartChar: uni030F
Encoding: 783 783 287
Width: 855
Flags: W
HStem: 1259 335
VStem: 109 620
LayerCount: 2
Fore
SplineSet
359 1259 m 1,0,-1
 109 1594 l 1,1,-1
 259 1594 l 1,2,-1
 461 1259 l 1,3,-1
 359 1259 l 1,0,-1
627 1259 m 1,4,-1
 380 1594 l 1,5,-1
 531 1594 l 1,6,-1
 729 1259 l 1,7,-1
 627 1259 l 1,4,-1
EndSplineSet
EndChar

StartChar: uni0311
Encoding: 785 785 288
Width: 767
Flags: W
HStem: 1440 117<285.015 482.436>
VStem: 134 116<1299 1402.35> 519 117<1299 1402.35>
LayerCount: 2
Fore
SplineSet
208.5 1489 m 128,-1,1
 283 1557 283 1557 383.5 1557 c 128,-1,2
 484 1557 484 1557 560 1488.5 c 128,-1,3
 636 1420 636 1420 636 1299 c 1,4,-1
 519 1299 l 1,5,6
 519 1367 519 1367 480 1403.5 c 128,-1,7
 441 1440 441 1440 383 1440 c 128,-1,8
 325 1440 325 1440 287.5 1403.5 c 128,-1,9
 250 1367 250 1367 250 1299 c 1,10,-1
 134 1299 l 1,11,0
 134 1421 134 1421 208.5 1489 c 128,-1,1
EndSplineSet
EndChar

StartChar: uni0326
Encoding: 806 806 289
Width: 555
Flags: W
HStem: -672 498<238 261>
VStem: 144 260
LayerCount: 2
Fore
SplineSet
144 -672 m 1,0,-1
 238 -174 l 1,1,-1
 404 -174 l 1,2,-1
 261 -672 l 1,3,-1
 144 -672 l 1,0,-1
EndSplineSet
EndChar

StartChar: Omega
Encoding: 937 937 293
Width: 1703
Flags: W
HStem: 0 148<169 483 1231 1536> 1409 152<646.971 1089.09>
VStem: 179 158<544.01 1082.04> 1384 157<546.674 1073.54>
LayerCount: 2
Fore
SplineSet
1541 831 m 0,0,1
 1541 408.935251799 1541 408.935251799 1231 148 c 1,2,-1
 1543 148 l 1,3,-1
 1536 0 l 1,4,-1
 1020 0 l 1,5,-1
 1015 130 l 1,6,7
 1182 246 1182 246 1283 424 c 128,-1,8
 1384 602 1384 602 1384 767.5 c 128,-1,9
 1384 933 1384 933 1350.5 1040.5 c 128,-1,10
 1317 1148 1317 1148 1253.5 1230.5 c 0,11,12
 1116.10909091 1409 1116.10909091 1409 873.054545455 1409 c 128,-1,13
 630 1409 630 1409 483.5 1245.5 c 128,-1,14
 337 1082 337 1082 337 843 c 0,15,16
 337 372.891566265 337 372.891566265 697 130 c 1,17,-1
 699 0 l 1,18,-1
 169 0 l 1,19,-1
 160 148 l 1,20,-1
 483 148 l 1,21,22
 179 389.103448276 179 389.103448276 179 836 c 0,23,24
 179 1166 179 1166 369 1363.5 c 128,-1,25
 559 1561 559 1561 871 1561 c 0,26,27
 1346.78947368 1561 1346.78947368 1561 1496 1120 c 0,28,29
 1541 987 1541 987 1541 831 c 0,0,1
EndSplineSet
EndChar

StartChar: mu
Encoding: 956 956 302
Width: 1184
Flags: W
HStem: -25 164<446.001 737.444> 1078 20G<160 329 853 1024>
VStem: 160 169<255.594 1098> 160 146<-218 97> 853 171<258.804 1098>
LayerCount: 2
Fore
SplineSet
592 -25 m 0,0,1
 397.5 -25 397.5 -25 306 97 c 1,2,-1
 306 -218 l 1,3,-1
 160 -218 l 1,4,-1
 160 1098 l 1,5,-1
 329 1098 l 1,6,-1
 329 419 l 2,7,8
 329 290 329 290 407.5 214.5 c 128,-1,9
 486 139 486 139 591.5 139 c 128,-1,10
 697 139 697 139 775 214 c 128,-1,11
 853 289 853 289 853 419 c 2,12,-1
 853 1098 l 1,13,-1
 1024 1098 l 1,14,-1
 1024 421 l 2,15,16
 1024 101.503225806 1024 101.503225806 757.5 3.5 c 0,17,18
 680 -25 680 -25 592 -25 c 0,0,1
EndSplineSet
EndChar

StartChar: pi
Encoding: 960 960 304
Width: 1456
Flags: W
HStem: -8 166<1054.67 1267.49> 976 144<213.828 420 570 976 1114 1296>
VStem: 420 150<489.062 976> 976 138<173.13 976>
LayerCount: 2
Fore
SplineSet
160 1053 m 1,0,1
 230.435897436 1120 230.435897436 1120 470 1120 c 2,2,-1
 1296 1120 l 1,3,-1
 1296 976 l 1,4,-1
 1114 976 l 1,5,-1
 1114 312 l 2,6,7
 1114 158 1114 158 1202 158 c 0,8,9
 1223 158 1223 158 1274 172 c 1,10,-1
 1268 108 l 1,11,12
 1268 62 1268 62 1282 6 c 1,13,14
 1203 -8 1203 -8 1130 -8 c 0,15,16
 976 -8 976 -8 976 301 c 2,17,-1
 976 976 l 1,18,-1
 570 976 l 1,19,20
 545.365313653 187.6900369 545.365313653 187.6900369 446 0 c 1,21,-1
 298 0 l 1,22,23
 403 230 403 230 420 976 c 1,24,25
 272 973 272 973 176 911 c 1,26,-1
 160 1053 l 1,0,1
EndSplineSet
EndChar

StartChar: uni0403
Encoding: 1027 1027 311
Width: 1094
Flags: W
HStem: 0 21G<160 336> 1308 154<336 1016>
VStem: 160 176<0 1308>
LayerCount: 2
Fore
SplineSet
1016 1308 m 1,0,-1
 336 1308 l 1,1,-1
 336 0 l 1,2,-1
 160 0 l 1,3,-1
 160 1462 l 1,4,-1
 1016 1462 l 1,5,-1
 1016 1308 l 1,0,-1
EndSplineSet
EndChar

StartChar: uni0406
Encoding: 1030 1030 313
Width: 499
Flags: W
HStem: 0 21G<160 339> 1442 20G<160 339>
VStem: 160 179<0 1462>
LayerCount: 2
Fore
SplineSet
339 1462 m 1,0,-1
 339 0 l 1,1,-1
 160 0 l 1,2,-1
 160 1462 l 1,3,-1
 339 1462 l 1,0,-1
EndSplineSet
EndChar

StartChar: uni0408
Encoding: 1032 1032 315
Width: 673
Flags: W
HStem: -26 157<102 286.053> 1442 20G<339 518>
VStem: 339 179<182.082 1462>
LayerCount: 2
Fore
SplineSet
339 384 m 2,0,-1
 339 1462 l 1,1,-1
 518 1462 l 1,2,-1
 518 433 l 2,3,4
 518 201.942857143 518 201.942857143 488.5 145.471428571 c 128,-1,5
 459 89 459 89 431 58 c 128,-1,6
 403 27 403 27 361.5 10.5 c 0,7,8
 269.696969697 -26 269.696969697 -26 131 -26 c 2,9,-1
 102 -26 l 1,10,-1
 102 131 l 1,11,-1
 149 131 l 1,12,13
 296.939618644 136.582627119 296.939618644 136.582627119 324 234 c 0,14,15
 339 288 339 288 339 384 c 2,0,-1
EndSplineSet
EndChar

StartChar: uni0409
Encoding: 1033 1033 316
Width: 1942
Flags: W
HStem: -26 157<102 285.053> 0 160<1077 1511.6> 696 159<1076 1477.59> 1300 162<517 899>
VStem: 339 178<184.619 1300> 899 177<160 696 855 1300> 1660 166<283.365 539.965>
LayerCount: 2
Fore
SplineSet
1233 855 m 2,0,1
 1693.69014085 855 1693.69014085 855 1826 428 c 1,2,3
 1826 216 1826 216 1677 108 c 128,-1,4
 1528 0 1528 0 1262 0 c 2,5,-1
 899 0 l 1,6,-1
 899 1300 l 1,7,-1
 517 1300 l 1,8,-1
 517 433 l 2,9,10
 517 201.942857143 517 201.942857143 487.5 145.471428571 c 128,-1,11
 458 89 458 89 430 58 c 128,-1,12
 402 27 402 27 360.5 10.5 c 0,13,14
 268.696969697 -26 268.696969697 -26 130 -26 c 2,15,-1
 102 -26 l 1,16,-1
 102 131 l 1,17,-1
 148 131 l 1,18,19
 294.821822091 136.540446117 294.821822091 136.540446117 323.5 233.5 c 0,20,21
 339 285.904761905 339 285.904761905 339 384 c 2,22,-1
 339 1462 l 1,23,-1
 1076 1462 l 1,24,-1
 1076 855 l 1,25,-1
 1233 855 l 2,0,1
1251 696 m 2,26,-1
 1076 696 l 1,27,-1
 1077 160 l 1,28,-1
 1283 160 l 2,29,30
 1459 160 1459 160 1559.5 230.5 c 128,-1,31
 1660 301 1660 301 1660 406.5 c 128,-1,32
 1660 512 1660 512 1598 574 c 0,33,34
 1476 696 1476 696 1251 696 c 2,26,-1
EndSplineSet
EndChar

StartChar: uni040A
Encoding: 1034 1034 317
Width: 1765
Flags: W
HStem: 0 160<898 1333.6> 696 159<339 722 898 1300.09> 1442 20G<160 339 722 898>
VStem: 160 179<0 696 855 1462> 722 176<160 696 855 1462> 1481 167<283.365 539.965>
LayerCount: 2
Fore
SplineSet
1056 855 m 2,0,1
 1515.69014085 855 1515.69014085 855 1648 428 c 1,2,3
 1648 216 1648 216 1499 108 c 128,-1,4
 1350 0 1350 0 1084 0 c 2,5,-1
 722 0 l 1,6,-1
 722 696 l 1,7,-1
 339 696 l 1,8,-1
 339 0 l 1,9,-1
 160 0 l 1,10,-1
 160 1462 l 1,11,-1
 339 1462 l 1,12,-1
 339 855 l 1,13,-1
 722 855 l 1,14,-1
 722 1462 l 1,15,-1
 898 1462 l 1,16,-1
 898 855 l 1,17,-1
 1056 855 l 2,0,1
1074 696 m 2,18,-1
 898 696 l 1,19,-1
 898 160 l 1,20,-1
 1105 160 l 2,21,22
 1281 160 1281 160 1381 230.5 c 128,-1,23
 1481 301 1481 301 1481 406.5 c 128,-1,24
 1481 512 1481 512 1419.5 574 c 0,25,26
 1298.48387097 696 1298.48387097 696 1074 696 c 2,18,-1
EndSplineSet
EndChar

StartChar: uni0411
Encoding: 1041 1041 319
Width: 1334
Flags: W
HStem: 0 160<337 893.604> 696 159<337 893.604> 1300 162<337 1136>
VStem: 160 177<160 696 855 1300> 1039 169<284.694 572.055>
LayerCount: 2
Fore
SplineSet
662 696 m 2,0,-1
 337 696 l 1,1,-1
 337 160 l 1,2,-1
 662 160 l 2,3,4
 838 160 838 160 938.5 230.5 c 128,-1,5
 1039 301 1039 301 1039 429 c 128,-1,6
 1039 557 1039 557 938.5 626.5 c 128,-1,7
 838 696 838 696 662 696 c 2,0,-1
160 1462 m 1,8,-1
 1136 1462 l 1,9,-1
 1136 1300 l 1,10,-1
 337 1300 l 1,11,-1
 337 855 l 1,12,-1
 644 855 l 2,13,14
 910 855 910 855 1059 747.5 c 128,-1,15
 1208 640 1208 640 1208 428 c 128,-1,16
 1208 216 1208 216 1059 108 c 128,-1,17
 910 0 910 0 644 0 c 2,18,-1
 160 0 l 1,19,-1
 160 1462 l 1,8,-1
EndSplineSet
EndChar

StartChar: uni0412
Encoding: 1042 1042 320
Width: 1344
Flags: W
HStem: 0 160<337 890.75> 675 160<337 898.158> 1300 162<337 904.828>
VStem: 160 177<160 675 835 1300> 1020 169<935.417 1199.91> 1039 169<282.063 554.856>
LayerCount: 2
Fore
SplineSet
160 0 m 1,0,-1
 160 1462 l 1,1,-1
 636 1462 l 2,2,3
 897 1462 897 1462 1043 1363.5 c 128,-1,4
 1189 1265 1189 1265 1189 1063 c 128,-1,5
 1189 861 1189 861 985 757 c 1,6,7
 1208 645 1208 645 1208 428.5 c 0,8,9
 1208 0 1208 0 644 0 c 2,10,-1
 160 0 l 1,0,-1
662 675 m 2,11,-1
 337 675 l 1,12,-1
 337 160 l 1,13,-1
 662 160 l 2,14,15
 838 160 838 160 938.5 228 c 128,-1,16
 1039 296 1039 296 1039 419 c 128,-1,17
 1039 542 1039 542 938.5 608.5 c 128,-1,18
 838 675 838 675 662 675 c 2,11,-1
662 835 m 2,19,20
 1020 835 1020 835 1020 1067.5 c 128,-1,21
 1020 1300 1020 1300 656 1300 c 2,22,-1
 337 1300 l 1,23,-1
 337 835 l 1,24,-1
 662 835 l 2,19,20
EndSplineSet
EndChar

StartChar: uni0413
Encoding: 1043 1043 321
Width: 1094
Flags: W
HStem: 0 21G<160 336> 1308 154<336 1016>
VStem: 160 176<0 1308>
LayerCount: 2
Fore
SplineSet
1016 1308 m 1,0,-1
 336 1308 l 1,1,-1
 336 0 l 1,2,-1
 160 0 l 1,3,-1
 160 1462 l 1,4,-1
 1016 1462 l 1,5,-1
 1016 1308 l 1,0,-1
EndSplineSet
EndChar

StartChar: uni0414
Encoding: 1044 1044 322
Width: 1546
Flags: W
HStem: -265 417<105 262 1284 1400> 0 152<458 1105> 1308 154<784 1105>
VStem: 105 176<-265 0> 1105 179<152 1308> 1223 177<-265 0>
LayerCount: 2
Fore
SplineSet
614 1462 m 1,0,-1
 1284 1462 l 1,1,-1
 1284 152 l 1,2,-1
 1400 152 l 1,3,-1
 1400 -265 l 1,4,-1
 1223 -265 l 1,5,-1
 1223 0 l 1,6,-1
 281 0 l 1,7,-1
 281 -265 l 1,8,-1
 105 -265 l 1,9,-1
 105 152 l 1,10,-1
 262 152 l 1,11,-1
 614 1462 l 1,0,-1
1105 152 m 1,12,-1
 1105 1308 l 1,13,-1
 784 1308 l 1,14,-1
 458 152 l 1,15,-1
 1105 152 l 1,12,-1
EndSplineSet
EndChar

StartChar: afii10024
Encoding: 1046 1046 324
Width: 2051
Flags: W
HStem: 0 21G<95 331.687 924 1100 1691.37 1927> 1442 20G<163 409.318 924 1100 1611.77 1860>
VStem: 95 222<0 222> 163 231<1231 1462> 924 176<0 543 770 1462> 1627 233<1229 1462> 1706 221<0 221>
DStem2: 95 0 317 0 0.591004 0.806669<131.203 962.445> 1360 778 1216 670 0.588974 -0.808152<2.46808 832.527>
LayerCount: 2
Fore
SplineSet
1100 1462 m 1,0,-1
 1100 770 l 1,1,-1
 1627 1462 l 1,2,-1
 1860 1462 l 1,3,-1
 1360 778 l 1,4,-1
 1927 0 l 1,5,-1
 1706 0 l 1,6,-1
 1216 670 l 1,7,-1
 1100 543 l 1,8,-1
 1100 0 l 1,9,-1
 924 0 l 1,10,-1
 924 543 l 1,11,-1
 809 670 l 1,12,-1
 317 0 l 1,13,-1
 95 0 l 1,14,-1
 665 778 l 1,15,-1
 163 1462 l 1,16,-1
 394 1462 l 1,17,-1
 924 770 l 1,18,-1
 924 1462 l 1,19,-1
 1100 1462 l 1,0,-1
EndSplineSet
EndChar

StartChar: afii10025
Encoding: 1047 1047 325
Width: 1238
Flags: W
HStem: -26 167<302.387 792.255> 642 170<463 782.09> 1310 181<351.271 777.046>
VStem: 890 174<917.832 1207.29> 924 176<263.619 515.194>
LayerCount: 2
Fore
SplineSet
174 257 m 1,0,1
 319 141 319 141 563 141 c 0,2,3
 816.365384615 141 816.365384615 141 895 282 c 0,4,5
 924 334 924 334 924 409.5 c 128,-1,6
 924 485 924 485 835 563.5 c 128,-1,7
 746 642 746 642 621 642 c 2,8,-1
 463 642 l 1,9,-1
 463 812 l 1,10,-1
 630 812 l 2,11,12
 741 812 741 812 815.5 882 c 128,-1,13
 890 952 890 952 890 1051.5 c 128,-1,14
 890 1151 890 1151 846 1207.5 c 0,15,16
 766.17699115 1310 766.17699115 1310 567.934649421 1310 c 128,-1,17
 369.692307692 1310 369.692307692 1310 248 1197 c 1,18,-1
 182 1356 l 1,19,20
 332 1491 332 1491 618 1491 c 0,21,22
 929.20610687 1491 929.20610687 1491 1037 1229.5 c 0,23,24
 1064 1164 1064 1164 1064 1102 c 0,25,26
 1064 822.793103448 1064 822.793103448 878 733 c 1,27,28
 1100 636.87628866 1100 636.87628866 1100 416.93814433 c 0,29,30
 1100 -26 1100 -26 575 -26 c 0,31,32
 244.3 -26 244.3 -26 111 103 c 1,33,-1
 174 257 l 1,0,1
EndSplineSet
EndChar

StartChar: afii10026
Encoding: 1048 1048 326
Width: 1515
Flags: W
HStem: 0 21G<160 373.125 1194 1355> 1442 20G<160 323 1147.89 1355>
VStem: 160 163<261 1462> 1194 161<0 1195>
LayerCount: 2
Fore
SplineSet
160 0 m 1,0,-1
 160 1462 l 1,1,-1
 323 1462 l 1,2,-1
 323 261 l 1,3,-1
 417 406 l 1,4,-1
 1162 1462 l 1,5,-1
 1355 1462 l 1,6,-1
 1355 0 l 1,7,-1
 1194 0 l 1,8,-1
 1194 1195 l 1,9,-1
 1102 1052 l 1,10,-1
 359 0 l 1,11,-1
 160 0 l 1,0,-1
EndSplineSet
EndChar

StartChar: afii10028
Encoding: 1050 1050 328
Width: 1397
Flags: W
HStem: 0 21G<160 336 1035.4 1276> 1442 20G<160 336 955.561 1207>
VStem: 160 176<0 581 770 1462> 974 233<1229 1462> 1053 223<0 223>
DStem2: 336 770 595 778 0.677839 0.735211<181.442 941.227> 595 778 453 682 0.658642 -0.752457<0 887.069>
LayerCount: 2
Fore
SplineSet
595 778 m 1,0,-1
 1276 0 l 1,1,-1
 1053 0 l 1,2,-1
 453 682 l 1,3,-1
 336 581 l 1,4,-1
 336 0 l 1,5,-1
 160 0 l 1,6,-1
 160 1462 l 1,7,-1
 336 1462 l 1,8,-1
 336 770 l 1,9,-1
 974 1462 l 1,10,-1
 1207 1462 l 1,11,-1
 595 778 l 1,0,-1
EndSplineSet
EndChar

StartChar: uni041B
Encoding: 1051 1051 329
Width: 1333
Flags: W
HStem: 0 21G<124 309.657 994 1173> 1308 154<674 994>
VStem: 124 180<0 180> 994 179<0 1308>
LayerCount: 2
Fore
SplineSet
503 1462 m 1,0,-1
 1173 1462 l 1,1,-1
 1173 0 l 1,2,-1
 994 0 l 1,3,-1
 994 1308 l 1,4,-1
 674 1308 l 1,5,-1
 304 0 l 1,6,-1
 124 0 l 1,7,-1
 503 1462 l 1,0,-1
EndSplineSet
EndChar

StartChar: uni041F
Encoding: 1055 1055 333
Width: 1489
Flags: W
HStem: 0 21G<160 336 1153 1329> 1308 154<336 1153>
VStem: 160 176<0 1308> 1153 176<0 1308>
LayerCount: 2
Fore
SplineSet
1153 1308 m 1,0,-1
 336 1308 l 1,1,-1
 336 0 l 1,2,-1
 160 0 l 1,3,-1
 160 1462 l 1,4,-1
 1329 1462 l 1,5,-1
 1329 0 l 1,6,-1
 1153 0 l 1,7,-1
 1153 1308 l 1,0,-1
EndSplineSet
EndChar

StartChar: afii10037
Encoding: 1059 1059 337
Width: 1344
Flags: W
HStem: 0 21G<401 606.22> 1442 20G<58 275.488 1064.76 1271>
DStem2: 265 1462 58 1462 0.445118 -0.895472<0 925.688> 695 642 597 0 0.418664 0.908141<0 903.349>
LayerCount: 2
Fore
SplineSet
597 0 m 1,0,-1
 401 0 l 1,1,-1
 568 436 l 1,2,-1
 58 1462 l 1,3,-1
 265 1462 l 1,4,-1
 695 642 l 1,5,-1
 1074 1462 l 1,6,-1
 1271 1462 l 1,7,-1
 597 0 l 1,0,-1
EndSplineSet
EndChar

StartChar: uni0424
Encoding: 1060 1060 338
Width: 1786
Flags: W
HStem: 0 21G<804 967> 103 167<626.186 804 967 1161.64> 1195 167<626.186 804 967 1163.9> 1442 20G<804 967>
VStem: 131 190<537.615 928.263> 804 163<0 104.43 270 1195 1360.57 1462> 1466 190<536.754 929.21>
LayerCount: 2
Fore
SplineSet
967 1462 m 1,0,-1
 967 1364 l 1,1,2
 1290 1341 1290 1341 1473 1176.5 c 128,-1,3
 1656 1012 1656 1012 1656 733 c 128,-1,4
 1656 454 1656 454 1473 289 c 128,-1,5
 1290 124 1290 124 967 101 c 1,6,-1
 967 0 l 1,7,-1
 804 0 l 1,8,-1
 804 103 l 1,9,10
 483 131 483 131 307 298 c 128,-1,11
 131 465 131 465 131 733 c 128,-1,12
 131 1001 131 1001 307 1167.5 c 128,-1,13
 483 1334 483 1334 804 1362 c 1,14,-1
 804 1462 l 1,15,-1
 967 1462 l 1,0,-1
967 1197 m 1,16,-1
 967 269 l 1,17,18
 1197 293 1197 293 1331.5 417 c 128,-1,19
 1466 541 1466 541 1466 733 c 128,-1,20
 1466 925 1466 925 1331.5 1049 c 128,-1,21
 1197 1173 1197 1173 967 1197 c 1,16,-1
804 1195 m 1,22,23
 584 1169 584 1169 452.5 1045.5 c 128,-1,24
 321 922 321 922 321 733 c 128,-1,25
 321 544 321 544 452.5 420 c 128,-1,26
 584 296 584 296 804 270 c 1,27,-1
 804 1195 l 1,22,23
EndSplineSet
EndChar

StartChar: afii10040
Encoding: 1062 1062 340
Width: 1591
Flags: W
HStem: 0 152<337 1154> 1442 20G<160 337 1154 1329>
VStem: 160 177<152 1462> 1154 175<152 1462> 1270 175<-265 0>
LayerCount: 2
Fore
SplineSet
1154 152 m 1,0,-1
 1154 1462 l 1,1,-1
 1329 1462 l 1,2,-1
 1329 152 l 1,3,-1
 1445 152 l 1,4,-1
 1445 -265 l 1,5,-1
 1270 -265 l 1,6,-1
 1270 0 l 1,7,-1
 160 0 l 1,8,-1
 160 1462 l 1,9,-1
 337 1462 l 1,10,-1
 337 152 l 1,11,-1
 1154 152 l 1,0,-1
EndSplineSet
EndChar

StartChar: afii10041
Encoding: 1063 1063 341
Width: 1257
Flags: W
HStem: 0 21G<921 1097> 507 165<425.172 713.41>
VStem: 130 176<798.998 1447> 921 176<0 682 865.128 1447>
LayerCount: 2
Fore
SplineSet
306 1014 m 2,0,1
 306 672 306 672 581 672 c 0,2,3
 649 672 649 672 731 726.5 c 128,-1,4
 813 781 813 781 867 852 c 128,-1,5
 921 923 921 923 921 973 c 2,6,-1
 921 1447 l 1,7,-1
 1097 1447 l 1,8,-1
 1097 0 l 1,9,-1
 921 0 l 1,10,-1
 921 682 l 1,11,12
 802.25 507 802.25 507 577.125 507 c 0,13,14
 130 507 130 507 130 916 c 2,15,-1
 130 1447 l 1,16,-1
 306 1447 l 1,17,-1
 306 1014 l 2,0,1
EndSplineSet
EndChar

StartChar: uni0428
Encoding: 1064 1064 342
Width: 1457
Flags: W
HStem: 0 152<336 648 825 1121> 1442 20G<160 336 648 825 1121 1297>
VStem: 160 176<152 1462> 648 177<152 1462> 1121 176<152 1462>
LayerCount: 2
Fore
SplineSet
336 152 m 1,0,-1
 648 152 l 1,1,-1
 648 1462 l 1,2,-1
 825 1462 l 1,3,-1
 825 152 l 1,4,-1
 1121 152 l 1,5,-1
 1121 1462 l 1,6,-1
 1297 1462 l 1,7,-1
 1297 0 l 1,8,-1
 160 0 l 1,9,-1
 160 1462 l 1,10,-1
 336 1462 l 1,11,-1
 336 152 l 1,0,-1
EndSplineSet
EndChar

StartChar: afii10043
Encoding: 1065 1065 343
Width: 1834
Flags: W
HStem: 0 152<337 779 955 1395> 1442 20G<160 337 779 955 1395 1571>
VStem: 160 177<152 1462> 779 176<152 1462> 1395 176<152 1462> 1512 176<-265 0>
LayerCount: 2
Fore
SplineSet
337 152 m 1,0,-1
 779 152 l 1,1,-1
 779 1462 l 1,2,-1
 955 1462 l 1,3,-1
 955 152 l 1,4,-1
 1395 152 l 1,5,-1
 1395 1462 l 1,6,-1
 1571 1462 l 1,7,-1
 1571 152 l 1,8,-1
 1688 152 l 1,9,-1
 1688 -265 l 1,10,-1
 1512 -265 l 1,11,-1
 1512 0 l 1,12,-1
 160 0 l 1,13,-1
 160 1462 l 1,14,-1
 337 1462 l 1,15,-1
 337 152 l 1,0,-1
EndSplineSet
EndChar

StartChar: uni042A
Encoding: 1066 1066 344
Width: 1491
Flags: W
HStem: 0 160<621 1057.6> 696 159<621 1057.6> 1300 162<60 592>
VStem: 445 176<160 696 855 1300> 445 147<1300 1462> 1206 166<284.694 572.055>
LayerCount: 2
Fore
SplineSet
829 696 m 2,0,-1
 621 696 l 1,1,-1
 621 160 l 1,2,-1
 829 160 l 2,3,4
 1005 160 1005 160 1105.5 230.5 c 128,-1,5
 1206 301 1206 301 1206 429 c 128,-1,6
 1206 557 1206 557 1105.5 626.5 c 128,-1,7
 1005 696 1005 696 829 696 c 2,0,-1
621 1462 m 1,8,-1
 621 855 l 1,9,-1
 808 855 l 2,10,11
 1074 855 1074 855 1223 747.5 c 128,-1,12
 1372 640 1372 640 1372 428 c 128,-1,13
 1372 216 1372 216 1223 108 c 128,-1,14
 1074 0 1074 0 808 0 c 2,15,-1
 445 0 l 1,16,-1
 445 1462 l 1,17,-1
 621 1462 l 1,8,-1
60 1300 m 1,18,-1
 60 1462 l 1,19,-1
 592 1462 l 1,20,-1
 592 1300 l 1,21,-1
 60 1300 l 1,18,-1
EndSplineSet
EndChar

StartChar: uni042B
Encoding: 1067 1067 345
Width: 1609
Flags: W
HStem: 0 160<336 721.824> 696 159<336 725.874> 1442 20G<160 336 1271 1449>
VStem: 160 176<160 696 855 1462> 871 165<289.057 571.806> 1271 178<0 1462>
LayerCount: 2
Fore
SplineSet
493 696 m 2,0,-1
 336 696 l 1,1,-1
 336 160 l 1,2,-1
 493 160 l 2,3,4
 669 160 669 160 770 230.5 c 128,-1,5
 871 301 871 301 871 429 c 128,-1,6
 871 557 871 557 770 626.5 c 128,-1,7
 669 696 669 696 493 696 c 2,0,-1
336 1462 m 1,8,-1
 336 855 l 1,9,-1
 473 855 l 2,10,11
 843.071428571 855 843.071428571 855 980 666 c 0,12,13
 1051 568 1051 568 1036 428 c 1,14,15
 1036 216 1036 216 887 108 c 128,-1,16
 738 0 738 0 473 0 c 2,17,-1
 160 0 l 1,18,-1
 160 1462 l 1,19,-1
 336 1462 l 1,8,-1
1449 1462 m 1,20,-1
 1449 0 l 1,21,-1
 1271 0 l 1,22,-1
 1271 1462 l 1,23,-1
 1449 1462 l 1,20,-1
EndSplineSet
EndChar

StartChar: uni042C
Encoding: 1068 1068 346
Width: 1204
Flags: W
HStem: 0 160<336 770.604> 696 159<336 770.604> 1442 20G<160 336>
VStem: 160 176<160 696 855 1462> 919 166<284.694 572.055>
LayerCount: 2
Fore
SplineSet
542 696 m 2,0,-1
 336 696 l 1,1,-1
 336 160 l 1,2,-1
 542 160 l 2,3,4
 718 160 718 160 818.5 230.5 c 128,-1,5
 919 301 919 301 919 429 c 128,-1,6
 919 557 919 557 818.5 626.5 c 128,-1,7
 718 696 718 696 542 696 c 2,0,-1
336 1462 m 1,8,-1
 336 855 l 1,9,-1
 521 855 l 2,10,11
 787 855 787 855 936 747.5 c 128,-1,12
 1085 640 1085 640 1085 428 c 128,-1,13
 1085 216 1085 216 936 108 c 128,-1,14
 787 0 787 0 521 0 c 2,15,-1
 160 0 l 1,16,-1
 160 1462 l 1,17,-1
 336 1462 l 1,8,-1
EndSplineSet
EndChar

StartChar: afii10047
Encoding: 1069 1069 347
Width: 1399
Flags: W
HStem: -23 166<314.781 772.938> 634 190<383 1075> 1323 166<301.527 768.084>
LayerCount: 2
Fore
SplineSet
760.5 1283.5 m 128,-1,1
 662 1323 662 1323 493.342105263 1323 c 128,-1,2
 324.684210526 1323 324.684210526 1323 181 1197 c 1,3,-1
 122 1354 l 1,4,5
 275 1489 275 1489 560 1489 c 0,6,7
 973.02617801 1489 973.02617801 1489 1158.5 1175.5 c 0,8,9
 1268 990.415929204 1268 990.415929204 1268 800.707964602 c 128,-1,10
 1268 611 1268 611 1241.5 500 c 128,-1,11
 1215 389 1215 389 1158.5 293 c 128,-1,12
 1102 197 1102 197 1020 127 c 0,13,14
 844.285714286 -23 844.285714286 -23 559.642857143 -23 c 128,-1,15
 275 -23 275 -23 122 112 c 1,16,-1
 181 269 l 1,17,18
 324.684210526 143 324.684210526 143 540 143 c 0,19,20
 821.661290323 143 821.661290323 143 969 346 c 0,21,22
 1054.19218241 463.375895765 1054.19218241 463.375895765 1075 634 c 1,23,-1
 383 634 l 1,24,-1
 383 824 l 1,25,-1
 1075 824 l 1,26,27
 1050.73590096 1034.28885832 1050.73590096 1034.28885832 954.867950481 1139.14442916 c 128,-1,0
 859 1244 859 1244 760.5 1283.5 c 128,-1,1
EndSplineSet
EndChar

StartChar: uni042E
Encoding: 1070 1070 348
Width: 2086
Flags: W
HStem: -23 166<1102.03 1502.03> 0 21G<160 337> 677 151<337 650> 1323 166<1105.49 1498.74> 1442 20G<160 337>
VStem: 160 177<0 677 828 1462> 650 189<445.756 677 828 1015.47> 1765 189<445.905 1018.34>
LayerCount: 2
Fore
SplineSet
1586 33 m 0,0,1
 1461 -23 1461 -23 1279.5 -23 c 128,-1,2
 1098 -23 1098 -23 952 67 c 0,3,4
 666.615425925 242.921997718 666.615425925 242.921997718 650 677 c 1,5,-1
 337 677 l 1,6,-1
 337 0 l 1,7,-1
 160 0 l 1,8,-1
 160 1462 l 1,9,-1
 337 1462 l 1,10,-1
 337 828 l 1,11,-1
 653 828 l 1,12,13
 677 1135 677 1135 846.5 1312 c 128,-1,14
 1016 1489 1016 1489 1314 1489 c 128,-1,15
 1612 1489 1612 1489 1783 1285.5 c 128,-1,16
 1954 1082 1954 1082 1954 731 c 0,17,18
 1954 197.864 1954 197.864 1586 33 c 0,0,1
1302 1323 m 128,-1,20
 1153 1323 1153 1323 1046.5 1244 c 0,21,22
 839 1090.07981221 839 1090.07981221 839 737 c 0,23,24
 839 320.932960894 839 320.932960894 1099.5 188.5 c 0,25,26
 1189 143 1189 143 1302 143 c 128,-1,27
 1415 143 1415 143 1504.5 188.5 c 128,-1,28
 1594 234 1594 234 1650.5 315 c 0,29,30
 1765 479.150442478 1765 479.150442478 1765 691.575221239 c 128,-1,31
 1765 904 1765 904 1714.5 1034.5 c 128,-1,32
 1664 1165 1664 1165 1557.5 1244 c 128,-1,19
 1451 1323 1451 1323 1302 1323 c 128,-1,20
EndSplineSet
EndChar

StartChar: uni042F
Encoding: 1071 1071 349
Width: 1396
Flags: W
HStem: 0 21G<116 310.016 1057 1236> 605 161<635 1057> 1300 162<498.271 1057>
VStem: 180 170<889.803 1176.63> 1057 179<0 605 766 1300>
LayerCount: 2
Fore
SplineSet
1057 0 m 1,0,-1
 1057 605 l 1,1,-1
 754 605 l 2,2,3
 730 605 730 605 635 610 c 1,4,-1
 299 0 l 1,5,-1
 116 0 l 1,6,-1
 437 654 l 1,7,8
 180 752 180 752 180 1033 c 0,9,10
 180 1245 180 1245 331 1353.5 c 128,-1,11
 482 1462 482 1462 750 1462 c 2,12,-1
 1236 1462 l 1,13,-1
 1236 0 l 1,14,-1
 1057 0 l 1,0,-1
729 766 m 2,15,-1
 1057 766 l 1,16,-1
 1057 1300 l 1,17,-1
 729 1300 l 2,18,19
 550 1300 550 1300 450 1230.5 c 128,-1,20
 350 1161 350 1161 350 1033 c 128,-1,21
 350 905 350 905 450.5 835.5 c 128,-1,22
 551 766 551 766 729 766 c 2,15,-1
EndSplineSet
EndChar

StartChar: afii10066
Encoding: 1073 1073 351
Width: 1122
Flags: W
HStem: 0 158<328 748.984> 568 161<328 752.005> 939 159<328 881>
VStem: 152 176<158 568 729 939> 830 162<240.365 494.228>
LayerCount: 2
Fore
SplineSet
620 568 m 2,0,-1
 328 568 l 1,1,-1
 328 158 l 1,2,-1
 620 158 l 2,3,4
 714 158 714 158 772 224 c 128,-1,5
 830 290 830 290 830 370 c 128,-1,6
 830 450 830 450 772.5 509 c 128,-1,7
 715 568 715 568 620 568 c 2,0,-1
152 1098 m 1,8,-1
 881 1098 l 1,9,-1
 881 939 l 1,10,-1
 328 939 l 1,11,-1
 328 729 l 1,12,-1
 602 729 l 2,13,14
 883.937007874 729 883.937007874 729 968.5 500.5 c 0,15,16
 992 437 992 437 992 367.5 c 128,-1,17
 992 298 992 298 968 234 c 128,-1,18
 944 170 944 170 898.5 117 c 0,19,20
 798.056603774 2.13162820728e-14 798.056603774 2.13162820728e-14 602 0 c 2,21,-1
 152 0 l 1,22,-1
 152 1098 l 1,8,-1
EndSplineSet
EndChar

StartChar: afii10067
Encoding: 1074 1074 352
Width: 1143
Flags: W
HStem: 0 158<320 770.672> 498 146<320 757.365> 939 159<320 757.365>
VStem: 152 168<158 498 644 939> 811 160<697.086 890.225> 842 163<223.435 426.589>
LayerCount: 2
Fore
SplineSet
852 571 m 1,0,1
 996.382550336 475.422818792 996.382550336 475.422818792 1005 316 c 1,2,3
 1005 190.421052632 1005 190.421052632 933 122.210526316 c 0,4,5
 804 0 804 0 604 0 c 2,6,-1
 152 0 l 1,7,-1
 152 1098 l 1,8,-1
 604 1098 l 2,9,10
 872.774509804 1098 872.774509804 1098 949.5 916 c 0,11,12
 971 865 971 865 971 808 c 0,13,14
 971 653 971 653 852 571 c 1,0,1
613 498 m 2,15,-1
 320 498 l 1,16,-1
 320 158 l 1,17,-1
 613 158 l 2,18,19
 719 158 719 158 781.5 208.5 c 128,-1,20
 844 259 844 259 842 327 c 128,-1,21
 840 395 840 395 778.5 446.5 c 128,-1,22
 717 498 717 498 613 498 c 2,15,-1
320 644 m 1,23,-1
 613 644 l 2,24,25
 707 644 707 644 759 689 c 128,-1,26
 811 734 811 734 811 794.5 c 128,-1,27
 811 855 811 855 759 897 c 128,-1,28
 707 939 707 939 613 939 c 2,29,-1
 320 939 l 1,30,-1
 320 644 l 1,23,-1
EndSplineSet
EndChar

StartChar: uni0433
Encoding: 1075 1075 353
Width: 737
Flags: W
HStem: 0 21G<152 322> 939 159<322 609>
VStem: 152 170<0 939>
LayerCount: 2
Fore
SplineSet
152 1098 m 1,0,-1
 609 1098 l 1,1,-1
 609 939 l 1,2,-1
 322 939 l 1,3,-1
 322 0 l 1,4,-1
 152 0 l 1,5,-1
 152 1098 l 1,0,-1
EndSplineSet
EndChar

StartChar: uni0434
Encoding: 1076 1076 354
Width: 1280
Flags: W
HStem: -197 349<110 269.087 1044 1131> 0 152<270 321 444 874> 935 163<490 874>
VStem: 110 160<-197 0> 321 169<188.836 935> 874 170<152 935> 959 172<-197 0>
LayerCount: 2
Fore
SplineSet
270 0 m 1,0,-1
 270 -197 l 1,1,-1
 110 -197 l 1,2,-1
 110 152 l 1,3,-1
 206 152 l 2,4,5
 321 152 321 152 321 409 c 2,6,-1
 321 1098 l 1,7,-1
 1044 1098 l 1,8,-1
 1044 152 l 1,9,-1
 1131 152 l 1,10,-1
 1131 -197 l 1,11,-1
 959 -197 l 1,12,-1
 959 0 l 1,13,-1
 270 0 l 1,0,-1
444 152 m 1,14,-1
 874 152 l 1,15,-1
 874 935 l 1,16,-1
 490 935 l 1,17,-1
 490 462 l 2,18,19
 490 263 490 263 444 152 c 1,14,-1
EndSplineSet
EndChar

StartChar: afii10072
Encoding: 1078 1078 356
Width: 1802
Flags: W
HStem: 0 21G<96 340.819 803 968 1430.18 1674> 941 169<188 359.342 1409.74 1583>
VStem: 96 224<0 224> 803 165<0 464 612 1098> 1451 223<0 223>
DStem2: 96 0 320 0 0.694381 0.719607<155.541 753.189> 537 973 409.5 840.5 0.593199 -0.805056<-126.045 395.621> 968 612 1152 542 0.590297 0.807186<52.1116 578.658> 1152 542 968 464 0.693693 -0.720271<0 597.801>
LayerCount: 2
Fore
SplineSet
968 0 m 1,0,-1
 803 0 l 1,1,-1
 803 464 l 1,2,-1
 320 0 l 1,3,-1
 96 0 l 1,4,-1
 619 542 l 1,5,-1
 549 642 l 2,6,7
 528 672 528 672 496 719 c 128,-1,8
 464 766 464 766 448.5 787.5 c 128,-1,9
 433 809 433 809 409.5 840.5 c 128,-1,10
 386 872 386 872 371.5 885.5 c 128,-1,11
 357 899 357 899 337 914.5 c 0,12,13
 302.806451613 941 302.806451613 941 275.903225806 941 c 128,-1,14
 249 941 249 941 188 932 c 1,15,-1
 188 1098 l 1,16,17
 260 1110 260 1110 296 1110 c 128,-1,18
 332 1110 332 1110 370 1100.5 c 128,-1,19
 408 1091 408 1091 434 1076.5 c 128,-1,20
 460 1062 460 1062 488.5 1031 c 128,-1,21
 517 1000 517 1000 537 973 c 128,-1,22
 557 946 557 946 595 894 c 128,-1,23
 633 842 633 842 666 801 c 1,24,-1
 803 612 l 1,25,-1
 803 1098 l 1,26,-1
 968 1098 l 1,27,-1
 968 612 l 1,28,-1
 1103 801 l 1,29,30
 1136 842 1136 842 1174 894 c 128,-1,31
 1212 946 1212 946 1232 973 c 128,-1,32
 1252 1000 1252 1000 1281 1031 c 128,-1,33
 1310 1062 1310 1062 1336 1076.5 c 0,34,35
 1396.06896552 1110 1396.06896552 1110 1453.53448276 1110 c 128,-1,36
 1511 1110 1511 1110 1583 1098 c 1,37,-1
 1583 932 l 1,38,39
 1522 941 1522 941 1507.5 941 c 128,-1,40
 1493 941 1493 941 1475.5 935.5 c 128,-1,41
 1458 930 1458 930 1443 922.5 c 128,-1,42
 1428 915 1428 915 1410.5 897.5 c 128,-1,43
 1393 880 1393 880 1379.5 865.5 c 128,-1,44
 1366 851 1366 851 1345 822 c 128,-1,45
 1324 793 1324 793 1309.5 771.5 c 0,46,47
 1258.75 696.25 1258.75 696.25 1220 642 c 1,48,-1
 1152 542 l 1,49,-1
 1674 0 l 1,50,-1
 1451 0 l 1,51,-1
 968 464 l 1,52,-1
 968 0 l 1,0,-1
EndSplineSet
EndChar

StartChar: afii10073
Encoding: 1079 1079 357
Width: 1071
Flags: W
HStem: -25 160<254.597 690.247> 490 150<344 678.246> 966 158<255.393 666.655>
VStem: 732 163<693.242 905.002> 765 160.5<202.955 423.987>
LayerCount: 2
Fore
SplineSet
483 1124 m 0,0,1
 895 1124 895 1124 895 802.079710145 c 0,2,3
 895 648.15942029 895 648.15942029 774 571 c 1,4,5
 921 490 921 490 925.5 325 c 128,-1,6
 930 160 930 160 817 67.5 c 128,-1,7
 704 -25 704 -25 539 -25 c 0,8,9
 239.017857143 -25 239.017857143 -25 130 86 c 1,10,11
 163 159 163 159 188 222 c 1,12,13
 292 135 292 135 481 135 c 0,14,15
 765 135 765 135 765 318 c 0,16,17
 765 379 765 379 717.5 427 c 128,-1,18
 670 475 670 475 618.5 482.5 c 128,-1,19
 567 490 567 490 538 490 c 2,20,-1
 344 490 l 1,21,-1
 344 640 l 1,22,-1
 538 640 l 2,23,24
 631 640 631 640 681.5 687 c 128,-1,25
 732 734 732 734 732 798 c 0,26,27
 732 966 732 966 468 966 c 0,28,29
 282.090909091 966 282.090909091 966 188 874 c 1,30,-1
 130 1013 l 1,31,32
 236 1124 236 1124 483 1124 c 0,0,1
EndSplineSet
EndChar

StartChar: uni0438
Encoding: 1080 1080 358
Width: 1194
Flags: W
HStem: 0 21G<152 324.42 876 1039> 1078 20G<152 310 882 1039>
VStem: 152 158<270 1098> 876 163<0 785 1055 1098>
DStem2: 310 270 310 0 0.588906 0.808201<0 749.545>
LayerCount: 2
Fore
SplineSet
1039 0 m 1,0,-1
 876 0 l 1,1,-1
 876 785 l 1,2,-1
 310 0 l 1,3,-1
 152 0 l 1,4,-1
 152 1098 l 1,5,-1
 310 1098 l 1,6,-1
 310 270 l 1,7,-1
 882 1055 l 1,8,-1
 882 1098 l 1,9,-1
 1039 1098 l 1,10,-1
 1039 0 l 1,0,-1
EndSplineSet
EndChar

StartChar: afii10076
Encoding: 1082 1082 360
Width: 1169
Flags: W
HStem: 0 21G<152 321 784.138 1027> 941 169<823.889 984>
VStem: 152 169<0 464 612 1098> 805 222<0 222>
DStem2: 321 612 505 542 0.699207 0.714919<78.6097 640.261>
LayerCount: 2
Fore
SplineSet
321 612 m 1,0,-1
 499 794 l 1,1,2
 569.088888889 860.4 569.088888889 860.4 645.544444444 958.7 c 128,-1,3
 722 1057 722 1057 771 1083.5 c 128,-1,4
 820 1110 820 1110 866 1110 c 128,-1,5
 912 1110 912 1110 984 1098 c 1,6,-1
 984 932 l 1,7,8
 923 941 923 941 901 941 c 128,-1,9
 879 941 879 941 846 915.5 c 128,-1,10
 813 890 813 890 786.5 854 c 0,11,12
 693.915465898 728.224783862 693.915465898 728.224783862 606 642 c 2,13,-1
 505 542 l 1,14,-1
 1027 0 l 1,15,-1
 805 0 l 1,16,-1
 321 464 l 1,17,-1
 321 0 l 1,18,-1
 152 0 l 1,19,-1
 152 1098 l 1,20,-1
 321 1098 l 1,21,-1
 321 612 l 1,0,-1
EndSplineSet
EndChar

StartChar: uni043B
Encoding: 1083 1083 361
Width: 1302
Flags: W
HStem: -25 166<114 244.216> 0 21G<978 1147> 935 163<461 978>
VStem: 292 169<193.032 935> 978 169<0 935>
LayerCount: 2
Fore
SplineSet
292 1098 m 1,0,-1
 1147 1098 l 1,1,-1
 1147 0 l 1,2,-1
 978 0 l 1,3,-1
 978 935 l 1,4,-1
 461 935 l 1,5,-1
 461 462 l 2,6,7
 461 207.171428571 461 207.171428571 426.5 144.085714286 c 128,-1,8
 392 81 392 81 367.5 62 c 128,-1,9
 343 43 343 43 307.5 25 c 0,10,11
 245.812623274 -6.27810650888 245.812623274 -6.27810650888 121 -25 c 1,12,-1
 114 -25 l 1,13,-1
 114 141 l 1,14,-1
 121 141 l 1,15,16
 227.690909091 155.818181818 227.690909091 155.818181818 249.345454545 191.909090909 c 128,-1,17
 271 228 271 228 278 244 c 128,-1,18
 285 260 285 260 288 291.5 c 0,19,20
 292 333.5 292 333.5 292 409 c 2,21,-1
 292 1098 l 1,0,-1
EndSplineSet
EndChar

StartChar: uni043C
Encoding: 1084 1084 362
Width: 1231
Flags: W
HStem: 0 21G<152 301 927 1076> 1078 20G<152 311.242 916.68 1076>
VStem: 152 149<0 778> 927 149<0 778>
DStem2: 299 1098 301 778 0.522055 -0.852912<273.976 601.469> 613 585 649 337 0.524468 0.85143<0 329.009>
LayerCount: 2
Fore
SplineSet
649 337 m 1,0,-1
 576 337 l 1,1,-1
 301 778 l 1,2,-1
 301 0 l 1,3,-1
 152 0 l 1,4,-1
 152 1098 l 1,5,-1
 299 1098 l 1,6,-1
 613 585 l 1,7,-1
 929 1098 l 1,8,-1
 1076 1098 l 1,9,-1
 1076 0 l 1,10,-1
 927 0 l 1,11,-1
 927 778 l 1,12,-1
 649 337 l 1,0,-1
EndSplineSet
EndChar

StartChar: uni043D
Encoding: 1085 1085 363
Width: 1194
Flags: W
HStem: 0 21G<152 322 870 1039> 504 161<322 870> 1078 20G<152 322 870 1039>
VStem: 152 170<0 504 665 1098> 870 169<0 504 665 1098>
LayerCount: 2
Fore
SplineSet
152 1098 m 1,0,-1
 322 1098 l 1,1,-1
 322 665 l 1,2,-1
 870 665 l 1,3,-1
 870 1098 l 1,4,-1
 1039 1098 l 1,5,-1
 1039 0 l 1,6,-1
 870 0 l 1,7,-1
 870 504 l 1,8,-1
 322 504 l 1,9,-1
 322 0 l 1,10,-1
 152 0 l 1,11,-1
 152 1098 l 1,0,-1
EndSplineSet
EndChar

StartChar: uni043F
Encoding: 1087 1087 365
Width: 1194
Flags: W
HStem: 0 21G<152 322 870 1039> 935 163<322 870>
VStem: 152 170<0 935> 870 169<0 935>
LayerCount: 2
Fore
SplineSet
152 1098 m 1,0,-1
 1039 1098 l 1,1,-1
 1039 0 l 1,2,-1
 870 0 l 1,3,-1
 870 935 l 1,4,-1
 322 935 l 1,5,-1
 322 0 l 1,6,-1
 152 0 l 1,7,-1
 152 1098 l 1,0,-1
EndSplineSet
EndChar

StartChar: uni0442
Encoding: 1090 1090 368
Width: 994
Flags: W
HStem: 0 21G<400 570> 939 159<103 400 570 866>
VStem: 400 170<0 939>
LayerCount: 2
Fore
SplineSet
103 1098 m 1,0,-1
 866 1098 l 1,1,-1
 866 939 l 1,2,-1
 570 939 l 1,3,-1
 570 0 l 1,4,-1
 400 0 l 1,5,-1
 400 939 l 1,6,-1
 103 939 l 1,7,-1
 103 1098 l 1,0,-1
EndSplineSet
EndChar

StartChar: uni0443
Encoding: 1091 1091 369
Width: 1218
Flags: W
HStem: -415 170<174 396.087> 1078 20G<99 291.413 903.933 1094>
DStem2: 284 1098 99 1098 0.357631 -0.933863<0 923.525> 605 232 715 22 0.332224 0.943201<0 918.472>
LayerCount: 2
Fore
SplineSet
605 232 m 1,0,-1
 911 1098 l 1,1,-1
 1094 1098 l 1,2,-1
 715 22 l 1,3,4
 665.451365532 -229.046414637 665.451365532 -229.046414637 519.5 -328.5 c 0,5,6
 392.558441558 -415 392.558441558 -415 174 -415 c 1,7,-1
 174 -245 l 1,8,9
 358.265822785 -245 358.265822785 -245 414.632911392 -184 c 0,10,11
 502.028964518 -89.4207096307 502.028964518 -89.4207096307 508 30 c 1,12,-1
 99 1098 l 1,13,-1
 284 1098 l 1,14,-1
 605 232 l 1,0,-1
EndSplineSet
EndChar

StartChar: uni0444
Encoding: 1092 1092 370
Width: 1487
Flags: W
HStem: 32 155<413.369 658.903 833.022 1083.1> 932 160<407.565 658.746 833.377 1084.06>
VStem: 128 173<326.668 790.703> 661 170<-195 57 203.543 912.886 1061 1312> 1192 173<329.29 790.343>
LayerCount: 2
Fore
SplineSet
661 1312 m 1,0,-1
 831 1312 l 1,1,-1
 831 1061 l 1,2,3
 908 1092 908 1092 996.5 1092 c 128,-1,4
 1085 1092 1085 1092 1176.5 1018 c 0,5,6
 1365 865.551912568 1365 865.551912568 1365 558 c 0,7,8
 1365 254.650273224 1365 254.650273224 1175.5 104.5 c 0,9,10
 1084 32 1084 32 988.5 32 c 128,-1,11
 893 32 893 32 831 57 c 1,12,-1
 831 -195 l 1,13,-1
 661 -195 l 1,14,-1
 661 57 l 1,15,16
 599 32 599 32 503 32 c 128,-1,17
 407 32 407 32 316 104.5 c 0,18,19
 128 254.28021978 128 254.28021978 128 558 c 0,20,21
 128 865.934065934 128 865.934065934 315 1018 c 0,22,23
 406 1092 406 1092 495 1092 c 128,-1,24
 584 1092 584 1092 661 1061 c 1,25,-1
 661 1312 l 1,0,-1
1131.5 822.5 m 128,-1,27
 1071 932 1071 932 988.5 932 c 128,-1,28
 906 932 906 932 831 895 c 1,29,-1
 831 222 l 1,30,31
 898 187 898 187 983.5 187 c 128,-1,32
 1069 187 1069 187 1130.5 294.5 c 128,-1,33
 1192 402 1192 402 1192 557.5 c 128,-1,26
 1192 713 1192 713 1131.5 822.5 c 128,-1,27
404.5 238.5 m 128,-1,35
 456 187 456 187 522.5 187 c 128,-1,36
 589 187 589 187 661 220 c 1,37,-1
 661 899 l 1,38,39
 594 932 594 932 507 932 c 128,-1,40
 420 932 420 932 360.5 822.5 c 128,-1,41
 301 713 301 713 301 584.5 c 128,-1,42
 301 456 301 456 327 373 c 128,-1,34
 353 290 353 290 404.5 238.5 c 128,-1,35
EndSplineSet
EndChar

StartChar: afii10088
Encoding: 1094 1094 372
Width: 1241
Flags: W
HStem: 0 164<320 823> 1078 20G<152 320 823 995>
VStem: 152 168<164 1098> 823 172<166 1098> 958 136<-238 0>
LayerCount: 2
Fore
SplineSet
958 0 m 1,0,-1
 152 0 l 1,1,-1
 152 1098 l 1,2,-1
 320 1098 l 1,3,-1
 320 164 l 1,4,-1
 823 164 l 1,5,-1
 823 1098 l 1,6,-1
 995 1098 l 1,7,-1
 995 166 l 1,8,-1
 1094 166 l 1,9,-1
 1094 -238 l 1,10,-1
 958 -238 l 1,11,-1
 958 0 l 1,0,-1
EndSplineSet
EndChar

StartChar: uni0447
Encoding: 1095 1095 373
Width: 1126
Flags: W
HStem: 0 21G<802 971> 403 163<380.499 655.489> 1078 20G<130 299 802 971>
VStem: 130 169<648.812 1098> 802 169<0 587 711.99 1098>
LayerCount: 2
Fore
SplineSet
802 587 m 1,0,1
 684.553191489 403 684.553191489 403 482 403 c 0,2,3
 130 403 130 403 130 840 c 2,4,-1
 130 1098 l 1,5,-1
 299 1098 l 1,6,-1
 299 945 l 2,7,8
 299 697.9375 299 697.9375 341.5 647.46875 c 0,9,10
 410.105263158 566 410.105263158 566 513.552631579 566 c 128,-1,11
 617 566 617 566 701 646 c 128,-1,12
 785 726 785 726 802 812 c 1,13,-1
 802 1098 l 1,14,-1
 971 1098 l 1,15,-1
 971 0 l 1,16,-1
 802 0 l 1,17,-1
 802 587 l 1,0,1
EndSplineSet
EndChar

StartChar: uni0448
Encoding: 1096 1096 374
Width: 1166
Flags: W
HStem: 0 164<322 506 661 842> 1078 20G<152 322 506 661 842 1011>
VStem: 152 170<164 1098> 506 155<164 1098> 842 169<164 1098>
LayerCount: 2
Fore
SplineSet
322 164 m 1,0,-1
 506 164 l 1,1,-1
 506 1098 l 1,2,-1
 661 1098 l 1,3,-1
 661 164 l 1,4,-1
 842 164 l 1,5,-1
 842 1098 l 1,6,-1
 1011 1098 l 1,7,-1
 1011 0 l 1,8,-1
 152 0 l 1,9,-1
 152 1098 l 1,10,-1
 322 1098 l 1,11,-1
 322 164 l 1,0,-1
EndSplineSet
EndChar

StartChar: afii10091
Encoding: 1097 1097 375
Width: 1504
Flags: W
HStem: 0 164<320 624 780 1087> 1078 20G<152 320 624 780 1087 1256>
VStem: 152 168<164 1098> 624 156<164 1098> 1087 169<164 1098> 1220 137<-238 0>
LayerCount: 2
Fore
SplineSet
320 164 m 1,0,-1
 624 164 l 1,1,-1
 624 1098 l 1,2,-1
 780 1098 l 1,3,-1
 780 164 l 1,4,-1
 1087 164 l 1,5,-1
 1087 1098 l 1,6,-1
 1256 1098 l 1,7,-1
 1256 164 l 1,8,-1
 1357 164 l 1,9,-1
 1357 -238 l 1,10,-1
 1220 -238 l 1,11,-1
 1220 0 l 1,12,-1
 152 0 l 1,13,-1
 152 1098 l 1,14,-1
 320 1098 l 1,15,-1
 320 164 l 1,0,-1
EndSplineSet
EndChar

StartChar: uni044A
Encoding: 1098 1098 376
Width: 1305
Flags: W
HStem: 0 158<515 953.076> 504 159<515 957.584> 939 159<105 339>
VStem: 339 176<158 504 663 939> 1016 162<219.107 446.733>
LayerCount: 2
Fore
SplineSet
515 1098 m 1,0,-1
 515 663 l 1,1,-1
 797 663 l 2,2,3
 1073.66371681 663 1073.66371681 663 1155.5 457.5 c 0,4,5
 1178 401 1178 401 1178 336 c 128,-1,6
 1178 271 1178 271 1155.5 212 c 128,-1,7
 1133 153 1133 153 1088.5 105 c 0,8,9
 991.15625 -1.20792265079e-13 991.15625 -1.20792265079e-13 797 0 c 2,10,-1
 339 0 l 1,11,-1
 339 939 l 1,12,-1
 105 939 l 1,13,-1
 105 1098 l 1,14,-1
 515 1098 l 1,0,-1
818 504 m 2,15,-1
 515 504 l 1,16,-1
 515 158 l 1,17,-1
 818 158 l 2,18,19
 912 158 912 158 964 210.5 c 128,-1,20
 1016 263 1016 263 1016 334 c 128,-1,21
 1016 405 1016 405 964 454.5 c 128,-1,22
 912 504 912 504 818 504 c 2,15,-1
EndSplineSet
EndChar

StartChar: afii10093
Encoding: 1099 1099 377
Width: 1399
Flags: W
HStem: 0 158<327 686.047> 568 161<327 689.426> 1078 20G<152 327 1073 1244>
VStem: 152 175<158 568 729 1098> 762 162<238.009 496.48> 1073 171<0 1098>
LayerCount: 2
Fore
SplineSet
1244 1098 m 1,0,-1
 1244 0 l 1,1,-1
 1073 0 l 1,2,-1
 1073 1098 l 1,3,-1
 1244 1098 l 1,0,-1
557 568 m 2,4,-1
 327 568 l 1,5,-1
 327 158 l 1,6,-1
 557 158 l 2,7,8
 651 158 651 158 706.5 223.5 c 128,-1,9
 762 289 762 289 762 370 c 128,-1,10
 762 451 762 451 707 509.5 c 128,-1,11
 652 568 652 568 557 568 c 2,4,-1
327 1098 m 1,12,-1
 327 729 l 1,13,-1
 533 729 l 2,14,15
 813.637795276 729 813.637795276 729 900 500.5 c 0,16,17
 924 437 924 437 924 367.5 c 128,-1,18
 924 298 924 298 900 234 c 128,-1,19
 876 170 876 170 830 117 c 0,20,21
 728.452830189 4.97379915032e-14 728.452830189 4.97379915032e-14 533 0 c 2,22,-1
 152 0 l 1,23,-1
 152 1098 l 1,24,-1
 327 1098 l 1,12,-1
EndSplineSet
EndChar

StartChar: afii10094
Encoding: 1100 1100 378
Width: 1119
Flags: W
HStem: 0 158<328 766.076> 504 159<328 770.291> 1078 20G<152 328>
VStem: 152 176<158 504 663 1098> 830 162<219.106 446.44>
LayerCount: 2
Fore
SplineSet
632 504 m 2,0,-1
 328 504 l 1,1,-1
 328 158 l 1,2,-1
 632 158 l 2,3,4
 726 158 726 158 778 210.5 c 128,-1,5
 830 263 830 263 830 334 c 128,-1,6
 830 405 830 405 778 454.5 c 128,-1,7
 726 504 726 504 632 504 c 2,0,-1
328 1098 m 1,8,-1
 328 663 l 1,9,-1
 610 663 l 2,10,11
 885.877192982 663 885.877192982 663 969 457 c 0,12,13
 992 400 992 400 992 335.5 c 128,-1,14
 992 271 992 271 969 212 c 128,-1,15
 946 153 946 153 901.5 105 c 0,16,17
 804.15625 0 804.15625 0 610 0 c 2,18,-1
 152 0 l 1,19,-1
 152 1098 l 1,20,-1
 328 1098 l 1,8,-1
EndSplineSet
EndChar

StartChar: afii10095
Encoding: 1101 1101 379
Width: 1126
Flags: W
HStem: -25 162<307.81 660.997> 450 198<394 822> 964 160<310.032 657.049>
VStem: 394 607<451.616 644.309>
LayerCount: 2
Fore
SplineSet
217 260 m 1,0,1
 318 137 318 137 472 137 c 0,2,3
 770.193103448 137 770.193103448 137 822 450 c 1,4,-1
 394 450 l 1,5,-1
 394 648 l 1,6,-1
 824 648 l 1,7,8
 802 789 802 789 716 876.5 c 128,-1,9
 630 964 630 964 474 964 c 128,-1,10
 318 964 318 964 217 838 c 1,11,-1
 138 966 l 1,12,13
 252 1124 252 1124 492 1124 c 0,14,15
 792.027210884 1124 792.027210884 1124 924 881.5 c 0,16,17
 1001 740.0125 1001 740.0125 1001 587.50625 c 128,-1,18
 1001 435 1001 435 971 333 c 128,-1,19
 941 231 941 231 881 149.5 c 0,20,21
 752.533742331 -25 752.533742331 -25 508.766871166 -25 c 128,-1,22
 265 -25 265 -25 138 132 c 1,23,-1
 217 260 l 1,0,1
EndSplineSet
EndChar

StartChar: uni044E
Encoding: 1102 1102 380
Width: 1545
Flags: W
HStem: -25 162<812.628 1105.22> 0 21G<152 320> 474 149<320 496.262> 961 163<817.496 1107.41> 1078 20G<152 320>
VStem: 152 168<0 474 623 1098> 493 174<312.495 474 623 775.46> 1243 175<303.614 791.418>
LayerCount: 2
Fore
SplineSet
1390.5 772.5 m 128,-1,1
 1418 670 1418 670 1418 551 c 128,-1,2
 1418 432 1418 432 1389.5 330 c 128,-1,3
 1361 228 1361 228 1306 148 c 0,4,5
 1187.0625 -25 1187.0625 -25 956 -25 c 0,6,7
 641.156424581 -25 641.156424581 -25 533 277.5 c 0,8,9
 501 367 501 367 493 474 c 1,10,-1
 320 474 l 1,11,-1
 320 0 l 1,12,-1
 152 0 l 1,13,-1
 152 1098 l 1,14,-1
 320 1098 l 1,15,-1
 320 623 l 1,16,-1
 493 623 l 1,17,18
 522.777584465 977.022393086 522.777584465 977.022393086 766.5 1085.5 c 0,19,20
 853 1124 853 1124 964.5 1124 c 128,-1,21
 1076 1124 1076 1124 1165.5 1079 c 128,-1,22
 1255 1034 1255 1034 1309 954.5 c 128,-1,0
 1363 875 1363 875 1390.5 772.5 c 128,-1,1
1214 345.5 m 0,23,24
 1243 436 1243 436 1243 534 c 128,-1,25
 1243 632 1243 632 1226 705.5 c 128,-1,26
 1209 779 1209 779 1175 837 c 0,27,28
 1102.31034483 961 1102.31034483 961 983.655172414 961 c 128,-1,29
 865 961 865 961 797.5 900.5 c 128,-1,30
 730 840 730 840 698.5 747 c 128,-1,31
 667 654 667 654 667 544 c 128,-1,32
 667 434 667 434 698.5 343.5 c 0,33,34
 770.375690608 137 770.375690608 137 961 137 c 0,35,36
 1147.1878453 137 1147.1878453 137 1214 345.5 c 0,23,24
EndSplineSet
EndChar

StartChar: afii10097
Encoding: 1103 1103 381
Width: 1149
Flags: W
HStem: 0 21G<138 329.253 826 994> 439 148<565 826> 939 159<367.413 826>
VStem: 138 164<652.738 875.27> 826 168<0 439 587 939>
DStem2: 138 0 318 0 0.451098 0.892474<81.1977 514.3>
LayerCount: 2
Fore
SplineSet
826 0 m 1,0,-1
 826 439 l 1,1,-1
 565 439 l 1,2,-1
 318 0 l 1,3,-1
 138 0 l 1,4,-1
 370 459 l 1,5,6
 258 494 258 494 198 577.5 c 128,-1,7
 138 661 138 661 138 744 c 128,-1,8
 138 827 138 827 162 886.5 c 128,-1,9
 186 946 186 946 232.5 993.5 c 0,10,11
 334.8 1098 334.8 1098 530 1098 c 2,12,-1
 994 1098 l 1,13,-1
 994 0 l 1,14,-1
 826 0 l 1,0,-1
508 587 m 2,15,-1
 826 587 l 1,16,-1
 826 939 l 1,17,-1
 508 939 l 2,18,19
 413 939 413 939 357.5 887 c 128,-1,20
 302 835 302 835 302 764.5 c 128,-1,21
 302 694 302 694 358 640.5 c 128,-1,22
 414 587 414 587 508 587 c 2,15,-1
EndSplineSet
EndChar

StartChar: uni0456
Encoding: 1110 1110 386
Width: 489
Flags: W
HStem: 0 21G<160 329> 1078 20G<160 329> 1292 198<160 329>
VStem: 160 169<0 1098 1292 1490>
LayerCount: 2
Fore
SplineSet
329 1098 m 1,0,-1
 329 0 l 1,1,-1
 160 0 l 1,2,-1
 160 1098 l 1,3,-1
 329 1098 l 1,0,-1
329 1490 m 1,4,-1
 329 1292 l 1,5,-1
 160 1292 l 1,6,-1
 160 1490 l 1,7,-1
 329 1490 l 1,4,-1
EndSplineSet
EndChar

StartChar: endash
Encoding: 8211 8211 387
Width: 1317
Flags: W
HStem: 527 148<139 1186>
LayerCount: 2
Fore
SplineSet
1186 675 m 1,0,-1
 1186 527 l 1,1,-1
 139 527 l 1,2,-1
 139 675 l 1,3,-1
 1186 675 l 1,0,-1
EndSplineSet
EndChar

StartChar: emdash
Encoding: 8212 8212 388
Width: 2427
Flags: W
HStem: 527 148<139 2296>
LayerCount: 2
Fore
SplineSet
2296 675 m 1,0,-1
 2296 527 l 1,1,-1
 139 527 l 1,2,-1
 139 675 l 1,3,-1
 2296 675 l 1,0,-1
EndSplineSet
EndChar

StartChar: quoteleft
Encoding: 8216 8216 389
Width: 510
Flags: W
HStem: 1102 472<265 291>
VStem: 129 253
LayerCount: 2
Fore
SplineSet
382 1574 m 1,0,-1
 291 1102 l 1,1,-1
 129 1102 l 1,2,-1
 265 1574 l 1,3,-1
 382 1574 l 1,0,-1
EndSplineSet
EndChar

StartChar: quoteright
Encoding: 8217 8217 390
Width: 504
Flags: W
HStem: 1102 472<226 249>
VStem: 133 250
LayerCount: 2
Fore
SplineSet
133 1102 m 1,0,-1
 226 1574 l 1,1,-1
 383 1574 l 1,2,-1
 249 1102 l 1,3,-1
 133 1102 l 1,0,-1
EndSplineSet
EndChar

StartChar: quotesinglbase
Encoding: 8218 8218 391
Width: 504
Flags: W
HStem: -256 472<218 245>
VStem: 126 253
LayerCount: 2
Fore
SplineSet
126 -256 m 1,0,-1
 218 216 l 1,1,-1
 379 216 l 1,2,-1
 245 -256 l 1,3,-1
 126 -256 l 1,0,-1
EndSplineSet
EndChar

StartChar: quotedblleft
Encoding: 8220 8220 392
Width: 818
Flags: W
HStem: 1102 472<383 409 693 720>
VStem: 129 561
LayerCount: 2
Fore
SplineSet
383 1574 m 1,0,-1
 289 1102 l 1,1,-1
 129 1102 l 1,2,-1
 263 1574 l 1,3,-1
 383 1574 l 1,0,-1
690 1574 m 1,4,-1
 600 1102 l 1,5,-1
 438 1102 l 1,6,-1
 573 1574 l 1,7,-1
 690 1574 l 1,4,-1
EndSplineSet
EndChar

StartChar: quotedblright
Encoding: 8221 8221 393
Width: 795
Flags: W
HStem: 1102 472<511 535 796 822>
VStem: 133 541
LayerCount: 2
Fore
SplineSet
133 1102 m 1,0,-1
 226 1574 l 1,1,-1
 385 1574 l 1,2,-1
 250 1102 l 1,3,-1
 133 1102 l 1,0,-1
420 1102 m 1,4,-1
 511 1574 l 1,5,-1
 674 1574 l 1,6,-1
 537 1102 l 1,7,-1
 420 1102 l 1,4,-1
EndSplineSet
EndChar

StartChar: quotedblbase
Encoding: 8222 8222 394
Width: 819
Flags: W
HStem: -256 472<532 560 848 875>
VStem: 126 568
LayerCount: 2
Fore
SplineSet
126 -256 m 1,0,-1
 216 216 l 1,1,-1
 377 216 l 1,2,-1
 244 -256 l 1,3,-1
 126 -256 l 1,0,-1
441 -256 m 1,4,-1
 532 216 l 1,5,-1
 694 216 l 1,6,-1
 559 -256 l 1,7,-1
 441 -256 l 1,4,-1
EndSplineSet
EndChar

StartChar: dagger
Encoding: 8224 8224 395
Width: 876
Flags: W
HStem: 1007 142<71 366 496 806>
VStem: 366 130<1149 1561> 366 112<121 1007>
LayerCount: 2
Fore
SplineSet
366 121 m 1,0,-1
 366 1007 l 1,1,-1
 71 1007 l 1,2,-1
 71 1149 l 1,3,-1
 366 1149 l 1,4,-1
 366 1561 l 1,5,-1
 496 1561 l 1,6,-1
 496 1149 l 1,7,-1
 806 1149 l 1,8,-1
 806 1007 l 1,9,-1
 478 1007 l 1,10,-1
 478 121 l 1,11,-1
 366 121 l 1,0,-1
EndSplineSet
EndChar

StartChar: daggerdbl
Encoding: 8225 8225 396
Width: 950
Flags: W
HStem: 467 137<107 421 530 843> 1059 140<112 421 538 850>
VStem: 401 137<1368.79 1561> 421 109<604 1059>
LayerCount: 2
Fore
SplineSet
421 604 m 1,0,-1
 421 1059 l 1,1,-1
 112 1059 l 1,2,-1
 112 1199 l 1,3,-1
 428 1199 l 1,4,-1
 401 1561 l 1,5,-1
 538 1561 l 1,6,-1
 538 1199 l 1,7,-1
 850 1199 l 1,8,-1
 850 1059 l 1,9,-1
 530 1059 l 1,10,-1
 530 604 l 1,11,-1
 843 604 l 1,12,-1
 843 467 l 1,13,-1
 530 467 l 1,14,-1
 556 121 l 1,15,-1
 398 121 l 1,16,-1
 421 467 l 1,17,-1
 107 467 l 1,18,-1
 107 604 l 1,19,-1
 421 604 l 1,0,-1
EndSplineSet
EndChar

StartChar: bullet
Encoding: 8226 8226 397
Width: 867
Flags: W
HStem: 415 671<292.562 576.913>
VStem: 137 594<578.01 921.902>
LayerCount: 2
Fore
SplineSet
644 987.5 m 128,-1,1
 731 889 731 889 731 752 c 128,-1,2
 731 615 731 615 642 515 c 128,-1,3
 553 415 553 415 431 415 c 128,-1,4
 309 415 309 415 223 513 c 128,-1,5
 137 611 137 611 137 747.5 c 128,-1,6
 137 884 137 884 227 985 c 128,-1,7
 317 1086 317 1086 437 1086 c 128,-1,0
 557 1086 557 1086 644 987.5 c 128,-1,1
EndSplineSet
EndChar

StartChar: ellipsis
Encoding: 8230 8230 398
Width: 1509
Flags: W
HStem: -10 224<134 323 660 850 1187 1376>
VStem: 134 189<-10 214> 660 190<-10 214> 1187 189<-10 214>
CounterMasks: 1 70
LayerCount: 2
Fore
SplineSet
323 214 m 1,0,-1
 323 -10 l 1,1,-1
 134 -10 l 1,2,-1
 134 214 l 1,3,-1
 323 214 l 1,0,-1
850 214 m 1,4,-1
 850 -10 l 1,5,-1
 660 -10 l 1,6,-1
 660 214 l 1,7,-1
 850 214 l 1,4,-1
1376 214 m 1,8,-1
 1376 -10 l 1,9,-1
 1187 -10 l 1,10,-1
 1187 214 l 1,11,-1
 1376 214 l 1,8,-1
EndSplineSet
EndChar

StartChar: perthousand
Encoding: 8240 8240 399
Width: 2303
Flags: W
HStem: -30 123<985.01 1226.21 1755.02 2001.67> 610 125<984.095 1234.45 1754.29 2001.35> 796 123<302.972 507.835> 1438 121<301.739 514.695>
VStem: 108 129<991.82 1365.9> 574 128<991.216 1373.76> 777 131<177.23 526.551> 1305 129<181.079 537.446> 1550 127<179.337 525.373> 2081 126<180.797 523.322>
DStem2: 259 -22 395 -22 0.487909 0.872895<66.3556 1787.22>
LayerCount: 2
Fore
SplineSet
2028 538.5 m 128,-1,1
 1975 610 1975 610 1878 610 c 128,-1,2
 1781 610 1781 610 1729 537.5 c 128,-1,3
 1677 465 1677 465 1677 352 c 128,-1,4
 1677 239 1677 239 1729.5 166 c 128,-1,5
 1782 93 1782 93 1879 93 c 128,-1,6
 1976 93 1976 93 2028.5 168 c 128,-1,7
 2081 243 2081 243 2081 355 c 128,-1,0
 2081 467 2081 467 2028 538.5 c 128,-1,1
1881 735 m 0,8,9
 2207 735 2207 735 2207 352 c 0,10,11
 2207 183 2207 183 2121.5 76.5 c 128,-1,12
 2036 -30 2036 -30 1876.5 -30 c 128,-1,13
 1717 -30 1717 -30 1633.5 73 c 128,-1,14
 1550 176 1550 176 1550 350.5 c 128,-1,15
 1550 525 1550 525 1635 630 c 128,-1,16
 1720 735 1720 735 1881 735 c 0,8,9
622.5 902.5 m 128,-1,18
 543 796 543 796 403.5 796 c 128,-1,19
 264 796 264 796 186 900 c 128,-1,20
 108 1004 108 1004 108 1176 c 128,-1,21
 108 1348 108 1348 187 1453.5 c 128,-1,22
 266 1559 266 1559 407.5 1559 c 128,-1,23
 549 1559 549 1559 625.5 1457 c 128,-1,24
 702 1355 702 1355 702 1182 c 128,-1,17
 702 1009 702 1009 622.5 902.5 c 128,-1,18
1107 735 m 0,25,26
 1434 735 1434 735 1434 352 c 0,27,28
 1434 183 1434 183 1349 76.5 c 128,-1,29
 1264 -30 1264 -30 1103.5 -30 c 128,-1,30
 943 -30 943 -30 860 73 c 128,-1,31
 777 176 777 176 777 350.5 c 128,-1,32
 777 525 777 525 861.5 630 c 128,-1,33
 946 735 946 735 1107 735 c 0,25,26
1305 354 m 0,34,35
 1305 610 1305 610 1105 610 c 0,36,37
 1010 610 1010 610 959 537.5 c 128,-1,38
 908 465 908 465 908 352 c 128,-1,39
 908 239 908 239 959.5 166 c 128,-1,40
 1011 93 1011 93 1106.5 93 c 128,-1,41
 1202 93 1202 93 1253.5 168.5 c 128,-1,42
 1305 244 1305 244 1305 354 c 0,34,35
574 1178 m 0,43,44
 574 1438 574 1438 404 1438 c 0,45,46
 323 1438 323 1438 280 1364.5 c 128,-1,47
 237 1291 237 1291 237 1178 c 128,-1,48
 237 1065 237 1065 281 992 c 128,-1,49
 325 919 325 919 406.5 919 c 128,-1,50
 488 919 488 919 531 993 c 128,-1,51
 574 1067 574 1067 574 1178 c 0,43,44
395 -22 m 1,52,-1
 259 -22 l 1,53,-1
 1115 1547 l 1,54,-1
 1272 1547 l 1,55,-1
 395 -22 l 1,52,-1
EndSplineSet
EndChar

StartChar: guilsinglleft
Encoding: 8249 8249 400
Width: 620
Flags: W
VStem: 356 139<182 321 843 982>
DStem2: 269 583 120 583 0.507208 -0.861824<0 389.718> 120 583 269 583 0.517017 0.855975<77.0356 466.135>
LayerCount: 2
Fore
SplineSet
120 583 m 1,0,-1
 361 982 l 1,1,-1
 501 982 l 1,2,-1
 269 583 l 1,3,-1
 495 182 l 1,4,-1
 356 182 l 1,5,-1
 120 583 l 1,0,-1
EndSplineSet
EndChar

StartChar: guilsinglright
Encoding: 8250 8250 401
Width: 617
Flags: W
VStem: 124 140<182 322 842 982>
DStem2: 124 182 264 182 0.513242 0.858244<71.8539 464.431> 269 982 130 982 0.510989 -0.859587<0 385.201>
LayerCount: 2
Fore
SplineSet
505 585 m 1,0,-1
 264 182 l 1,1,-1
 124 182 l 1,2,-1
 355 585 l 1,3,-1
 130 982 l 1,4,-1
 269 982 l 1,5,-1
 505 585 l 1,0,-1
EndSplineSet
EndChar

StartChar: fraction
Encoding: 8260 8260 402
Width: 1135
Flags: W
HStem: 0 21G<60 202.312>
DStem2: 60 0 191 0 0.492743 0.870175<64.5493 1777.8>
LayerCount: 2
Fore
SplineSet
936 1547 m 1,0,-1
 1066 1547 l 1,1,-1
 191 0 l 1,2,-1
 60 0 l 1,3,-1
 936 1547 l 1,0,-1
EndSplineSet
EndChar

StartChar: foursuperior
Encoding: 8308 8308 403
Width: 756
Flags: W
HStem: 865 113<213 422 532 626> 1499 20G<401.432 532>
VStem: 423 107<661 865 978 1339>
DStem2: 92 964 213 978 0.500667 0.86564<72.6997 490.336>
LayerCount: 2
Fore
SplineSet
530 661 m 1,0,-1
 423 661 l 1,1,-1
 423 865 l 1,2,-1
 92 865 l 1,3,-1
 92 964 l 1,4,-1
 413 1519 l 1,5,-1
 532 1519 l 1,6,-1
 532 978 l 1,7,-1
 626 978 l 1,8,-1
 636 865 l 1,9,-1
 530 865 l 1,10,-1
 530 661 l 1,0,-1
213 978 m 1,11,-1
 422 978 l 1,12,13
 422 1310 422 1310 423 1339 c 1,14,-1
 213 978 l 1,11,-1
EndSplineSet
EndChar

StartChar: Euro
Encoding: 8364 8364 404
Width: 1210
Flags: W
HStem: -22 157<599.579 946.684> 556 147<124 215 387 936> 845 147<124 213 390 966> 1403 156<611.026 941.418>
VStem: 213 156<703 845>
LayerCount: 2
Fore
SplineSet
762 -22 m 0,0,1
 288.303030303 -22 288.303030303 -22 227 556 c 1,2,-1
 106 556 l 1,3,-1
 124 703 l 1,4,-1
 215 703 l 1,5,-1
 213 781 l 1,6,-1
 213 845 l 1,7,-1
 105 845 l 1,8,-1
 124 992 l 1,9,-1
 231 992 l 1,10,11
 291.865280289 1395.63291139 291.865280289 1395.63291139 576.5 1517 c 0,12,13
 675 1559 675 1559 826 1559 c 128,-1,14
 977 1559 977 1559 1088 1432 c 1,15,-1
 1057 1229 l 1,16,17
 958 1403 958 1403 790 1403 c 0,18,19
 479.75862069 1403 479.75862069 1403 390 992 c 1,20,-1
 983 992 l 1,21,-1
 966 845 l 1,22,-1
 372 845 l 1,23,-1
 369 794 l 1,24,-1
 372 703 l 1,25,-1
 952 703 l 1,26,-1
 936 556 l 1,27,-1
 387 556 l 1,28,29
 450 135 450 135 781 135 c 0,30,31
 930 135 930 135 1070 274 c 1,32,-1
 1067 82 l 1,33,34
 943 -22 943 -22 762 -22 c 0,0,1
EndSplineSet
EndChar

StartChar: trademark
Encoding: 8482 8482 405
Width: 1812
Flags: W
HStem: 1453 108<90 314 422 694>
VStem: 314 108<739 1453> 810 105<739 1379> 1553 108<739 1379>
DStem2: 989 1561 915 1379 0.389922 -0.920848<138.74 640.673> 1234 969 1267 739 0.407991 0.912986<0 504.473>
LayerCount: 2
Fore
SplineSet
810 1561 m 1,0,-1
 989 1561 l 1,1,-1
 1234 969 l 1,2,-1
 1490 1561 l 1,3,-1
 1661 1561 l 1,4,-1
 1661 739 l 1,5,-1
 1553 739 l 1,6,-1
 1553 1379 l 1,7,-1
 1267 739 l 1,8,-1
 1186 739 l 1,9,-1
 915 1379 l 1,10,-1
 915 739 l 1,11,-1
 810 739 l 1,12,-1
 810 1561 l 1,0,-1
90 1561 m 1,13,-1
 694 1561 l 1,14,-1
 694 1453 l 1,15,-1
 422 1453 l 1,16,-1
 422 739 l 1,17,-1
 314 739 l 1,18,-1
 314 1453 l 1,19,-1
 90 1453 l 1,20,-1
 90 1561 l 1,13,-1
EndSplineSet
EndChar

StartChar: partialdiff
Encoding: 8706 8706 406
Width: 1208
Flags: W
HStem: -28 147<374.723 656.67> 935 142<476.074 776.276> 1507 145<402.194 743.153>
VStem: 113 148<249.753 688.105> 917 152<901 1272.3>
LayerCount: 2
Fore
SplineSet
329 209.5 m 128,-1,1
 397 119 397 119 506.5 119 c 128,-1,2
 616 119 616 119 701 199 c 0,3,4
 870.167456556 358.2164297 870.167456556 358.2164297 904 705 c 1,5,6
 876 803 876 803 804.5 869 c 128,-1,7
 733 935 733 935 631 935 c 128,-1,8
 529 935 529 935 443.5 868.5 c 0,9,10
 261 726.555555556 261 726.555555556 261 450 c 0,11,0
 261 300 261 300 329 209.5 c 128,-1,1
917 901 m 1,12,-1
 918 980 l 1,13,14
 918 1228 918 1228 832 1367.5 c 128,-1,15
 746 1507 746 1507 597.5 1507 c 128,-1,16
 449 1507 449 1507 301 1405 c 1,17,-1
 288 1553 l 1,18,19
 434 1652 434 1652 609 1652 c 0,20,21
 1069 1652 1069 1652 1069 917 c 0,22,23
 1069 442.578125 1069 442.578125 878 171 c 0,24,25
 738.043956044 -28 738.043956044 -28 510 -28 c 0,26,27
 216.01744186 -28 216.01744186 -28 136.5 263 c 0,28,29
 113 349 113 349 113 488 c 128,-1,30
 113 627 113 627 175.5 770 c 0,31,32
 309.678321678 1077 309.678321678 1077 606 1077 c 0,33,34
 810 1077 810 1077 917 901 c 1,12,-1
EndSplineSet
EndChar

StartChar: uni2206
Encoding: 8710 8710 407
Width: 1339
Flags: W
HStem: 0 174<284 1062>
DStem2: 83 86 284 174 0.322078 0.946713<148.048 1349.09> 768 1541 668 1312 0.322078 -0.946713<184.59 1388.85>
LayerCount: 2
Fore
SplineSet
1263 86 m 1,0,-1
 1263 0 l 1,1,-1
 83 0 l 1,2,-1
 83 86 l 1,3,-1
 578 1541 l 1,4,-1
 768 1541 l 1,5,-1
 1263 86 l 1,0,-1
284 174 m 1,6,-1
 1062 174 l 1,7,-1
 704 1195 l 1,8,-1
 668 1312 l 1,9,-1
 636 1195 l 1,10,-1
 284 174 l 1,6,-1
EndSplineSet
EndChar

StartChar: product
Encoding: 8719 8719 408
Width: 1535
Flags: W
HStem: -356 21G<240 393 1146 1303> 1377 155<129 240 393 1146 1303 1403>
VStem: 240 153<-356 1377> 1146 157<-356 1377>
LayerCount: 2
Fore
SplineSet
1415 1532 m 1,0,-1
 1403 1377 l 1,1,-1
 1303 1377 l 1,2,-1
 1303 -356 l 1,3,-1
 1146 -356 l 1,4,-1
 1146 1377 l 1,5,-1
 393 1377 l 1,6,-1
 393 -356 l 1,7,-1
 240 -356 l 1,8,-1
 240 1377 l 1,9,-1
 129 1377 l 1,10,-1
 116 1532 l 1,11,-1
 1415 1532 l 1,0,-1
EndSplineSet
EndChar

StartChar: summation
Encoding: 8721 8721 409
Width: 1286
Flags: W
HStem: -356 161<292 1203> 1379 153<317 1163>
LayerCount: 2
Fore
SplineSet
1203 -195 m 1,0,-1
 1203 -356 l 1,1,-1
 82 -356 l 1,2,-1
 82 -257 l 1,3,-1
 702 596 l 1,4,-1
 104 1430 l 1,5,-1
 104 1532 l 1,6,-1
 1163 1532 l 1,7,-1
 1163 1379 l 1,8,-1
 317 1379 l 1,9,-1
 913 604 l 1,10,-1
 292 -195 l 1,11,-1
 1203 -195 l 1,0,-1
EndSplineSet
EndChar

StartChar: minus
Encoding: 8722 8722 410
Width: 1274
Flags: W
HStem: 534 148<140 1141>
LayerCount: 2
Fore
SplineSet
140 682 m 1,0,-1
 1141 682 l 1,1,-1
 1141 534 l 1,2,-1
 140 534 l 1,3,-1
 140 682 l 1,0,-1
EndSplineSet
EndChar

StartChar: radical
Encoding: 8730 8730 411
Width: 1216
Flags: W
VStem: 1035 113<1605 1718>
DStem2: 328 889 236 743 0.343981 -0.938976<105.444 896.63> 628 44 708 -166 0.227426 0.973795<0 1722.7>
LayerCount: 2
Fore
SplineSet
1035 1718 m 1,0,-1
 1148 1718 l 1,1,-1
 708 -166 l 1,2,-1
 569 -166 l 1,3,-1
 236 743 l 1,4,-1
 84 712 l 1,5,-1
 68 833 l 1,6,-1
 328 889 l 1,7,-1
 569 230 l 1,8,-1
 628 44 l 1,9,-1
 1035 1718 l 1,0,-1
EndSplineSet
EndChar

StartChar: infinity
Encoding: 8734 8734 412
Width: 1811
Flags: W
HStem: 254 127<356.186 634.103 1180.15 1463.99> 893 124<347.005 635.501 1183.52 1462.35>
VStem: 135 113<492.765 791.32> 1555 123<481.761 798.95>
LayerCount: 2
Fore
SplineSet
1496.5 460.5 m 128,-1,1
 1555 540 1555 540 1555 650 c 128,-1,2
 1555 760 1555 760 1488.5 826.5 c 128,-1,3
 1422 893 1422 893 1321 893 c 0,4,5
 1152 893 1152 893 982 638 c 1,6,7
 1081 503 1081 503 1158 442 c 128,-1,8
 1235 381 1235 381 1336.5 381 c 128,-1,0
 1438 381 1438 381 1496.5 460.5 c 128,-1,1
313.5 819 m 128,-1,10
 248 745 248 745 248 640.5 c 128,-1,11
 248 536 248 536 318 458.5 c 128,-1,12
 388 381 388 381 495 381 c 0,13,14
 666 381 666 381 838 636 c 1,15,16
 673 893 673 893 487 893 c 0,17,9
 379 893 379 893 313.5 819 c 128,-1,10
909 745 m 1,18,19
 1108.32824427 1017 1108.32824427 1017 1300.66412214 1017 c 128,-1,20
 1493 1017 1493 1017 1585.5 913.5 c 128,-1,21
 1678 810 1678 810 1678 641 c 128,-1,22
 1678 472 1678 472 1576 363 c 128,-1,23
 1474 254 1474 254 1294.83093525 254 c 128,-1,24
 1115.6618705 254 1115.6618705 254 909 525 c 1,25,26
 704.707692308 254 704.707692308 254 516.853846154 254 c 128,-1,27
 329 254 329 254 232 371 c 128,-1,28
 135 488 135 488 135 648 c 128,-1,29
 135 808 135 808 237.5 912.5 c 128,-1,30
 340 1017 340 1017 488 1017 c 0,31,32
 706.533834586 1017 706.533834586 1017 909 745 c 1,18,19
EndSplineSet
EndChar

StartChar: integral
Encoding: 8747 8747 413
Width: 698
Flags: W
HStem: -429 145<42.0657 238.57> 1610 146<463.5 659.688>
VStem: 277 144<-226.749 1564.57>
LayerCount: 2
Fore
SplineSet
421 -25 m 2,0,1
 421 -429 421 -429 162 -429 c 0,2,3
 109 -429 109 -429 41 -409 c 1,4,-1
 40 -270 l 1,5,6
 72 -284 72 -284 145 -284 c 128,-1,7
 218 -284 218 -284 247.5 -228.5 c 128,-1,8
 277 -173 277 -173 277 -50 c 2,9,-1
 277 1351 l 2,10,11
 277 1756 277 1756 540 1756 c 0,12,13
 582 1756 582 1756 661 1733 c 1,14,-1
 662 1594 l 1,15,16
 625 1610 625 1610 553 1610 c 0,17,18
 421 1610 421 1610 421 1379 c 2,19,-1
 421 -25 l 2,0,1
EndSplineSet
EndChar

StartChar: approxequal
Encoding: 8776 8776 414
Width: 1314
Flags: W
HStem: 282 129<769.717 1001.23> 459 130<314.093 561.835> 684 126<763.104 999.688> 860 128<312.817 560.346>
VStem: 138 101<308.092 376.922 708.58 784.167> 1080 98<500.927 562.535 902.134 963.116>
LayerCount: 2
Fore
SplineSet
898 411 m 0,0,1
 1017.29545455 411 1017.29545455 411 1080 589 c 1,2,-1
 1178 558 l 1,3,4
 1126 282 1126 282 895 282 c 0,5,6
 786 282 786 282 640.5 370.5 c 128,-1,7
 495 459 495 459 427 459 c 0,8,9
 292 459 292 459 239 280 c 1,10,-1
 138 312 l 1,11,12
 192.560606061 589 192.560606061 589 428 589 c 0,13,14
 544.060606061 589 544.060606061 589 642.03030303 528 c 0,15,16
 829.939393939 411 829.939393939 411 898 411 c 0,0,1
136 712 m 1,17,18
 186.953846154 988 186.953846154 988 427 988 c 0,19,20
 534.625 988 534.625 988 648.8125 918.5 c 0,21,22
 827.076438849 810 827.076438849 810 896 810 c 0,23,24
 1018 810 1018 810 1077 988 c 1,25,-1
 1176 959 l 1,26,27
 1125 684 1125 684 892 684 c 0,28,29
 784.666666667 684 784.666666667 684 639.833333333 772 c 128,-1,30
 495 860 495 860 424 860 c 0,31,32
 286 860 286 860 239 684 c 1,33,-1
 136 712 l 1,17,18
EndSplineSet
EndChar

StartChar: notequal
Encoding: 8800 8800 415
Width: 1191
Flags: W
HStem: 352 127<121 382 581 1076> 783 132<121 598 796 1074>
DStem2: 446 479 581 479 0.435302 0.900284<58.7658 339.852 544.88 808.633>
LayerCount: 2
Fore
SplineSet
798 1207 m 1,0,-1
 913 1191 l 1,1,-1
 796 915 l 1,2,-1
 1074 915 l 1,3,-1
 1083 783 l 1,4,-1
 737 783 l 1,5,-1
 581 479 l 1,6,-1
 1076 479 l 1,7,-1
 1083 352 l 1,8,-1
 521 352 l 1,9,-1
 376 48 l 1,10,-1
 263 68 l 1,11,-1
 382 352 l 1,12,-1
 121 352 l 1,13,-1
 114 479 l 1,14,-1
 446 479 l 1,15,-1
 598 783 l 1,16,-1
 121 783 l 1,17,-1
 112 915 l 1,18,-1
 657 915 l 1,19,-1
 798 1207 l 1,0,-1
EndSplineSet
EndChar

StartChar: lessequal
Encoding: 8804 8804 416
Width: 1183
Flags: W
HStem: 8 133<101 1066>
DStem2: 285 766 131 716 0.88289 -0.469581<0 847.314>
LayerCount: 2
Fore
SplineSet
1041 383 m 1,0,-1
 1041 232 l 1,1,-1
 131 716 l 1,2,-1
 131 806 l 1,3,-1
 1041 1312 l 1,4,-1
 1041 1162 l 1,5,-1
 285 766 l 1,6,-1
 1041 383 l 1,0,-1
1066 141 m 1,7,-1
 1066 8 l 1,8,-1
 101 8 l 1,9,-1
 101 141 l 1,10,-1
 1066 141 l 1,7,-1
EndSplineSet
EndChar

StartChar: greaterequal
Encoding: 8805 8805 417
Width: 1183
Flags: W
HStem: 8 133<120 1080>
DStem2: 146 385 146 234 0.883975 0.467533<0 849.849> 150 1314 150 1164 0.873841 -0.486212<72.9318 930.76>
LayerCount: 2
Fore
SplineSet
1080 141 m 1,0,-1
 1080 8 l 1,1,-1
 120 8 l 1,2,-1
 120 141 l 1,3,-1
 1080 141 l 1,0,-1
150 1164 m 1,4,-1
 150 1314 l 1,5,-1
 1063 806 l 1,6,-1
 1063 719 l 1,7,-1
 146 234 l 1,8,-1
 146 385 l 1,9,-1
 908 762 l 1,10,-1
 150 1164 l 1,4,-1
EndSplineSet
EndChar

StartChar: lozenge
Encoding: 9674 9674 418
Width: 1142
Flags: W
DStem2: 87 766 219 768 0.46744 0.884025<63.4702 810.734> 219 768 87 766 0.462827 -0.886449<0 746.967> 565 106 621 -48 0.469577 0.882891<0 750.817> 630 1583 577 1424 0.46238 -0.886682<116.476 859.896>
LayerCount: 2
Fore
SplineSet
565 106 m 1,0,-1
 923 766 l 1,1,-1
 577 1424 l 1,2,-1
 219 768 l 1,3,-1
 565 106 l 1,0,-1
630 1583 m 1,4,-1
 1055 768 l 1,5,-1
 621 -48 l 1,6,-1
 512 -48 l 1,7,-1
 87 766 l 1,8,-1
 519 1583 l 1,9,-1
 630 1583 l 1,4,-1
EndSplineSet
EndChar

StartChar: commaaccent
Encoding: 63171 63171 419
Width: 554
Flags: W
HStem: -648 498<239 260>
VStem: 144 260
LayerCount: 2
Fore
SplineSet
144 -648 m 1,0,-1
 239 -150 l 1,1,-1
 404 -150 l 1,2,-1
 260 -648 l 1,3,-1
 144 -648 l 1,0,-1
EndSplineSet
EndChar

StartChar: ff
Encoding: 64256 64256 420
Width: 1369
Flags: W
HStem: 0 21G<244 417 853 1026> 985 113<89 244 417 853 1026 1248> 1387 121<478.646 702 1083.92 1267>
VStem: 244 173<0 985 1098 1319.71> 853 173<0 985 1098 1327.24>
LayerCount: 2
Fore
SplineSet
89 985 m 1,0,-1
 89 1098 l 1,1,-1
 244 1098 l 1,2,3
 244 1318 244 1318 339.5 1413 c 128,-1,4
 435 1508 435 1508 664 1508 c 2,5,-1
 702 1508 l 1,6,-1
 702 1387 l 1,7,-1
 643 1387 l 2,8,9
 498.7 1387 498.7 1387 465.35 1329 c 0,10,11
 417 1244.91304348 417 1244.91304348 417 1098 c 1,12,-1
 853 1098 l 1,13,14
 853 1316 853 1316 942.5 1412 c 128,-1,15
 1032 1508 1032 1508 1235 1508 c 2,16,-1
 1267 1508 l 1,17,-1
 1267 1387 l 1,18,-1
 1217 1387 l 2,19,20
 1076.61038961 1387 1076.61038961 1387 1044.5 1279.5 c 0,21,22
 1026 1217.56521739 1026 1217.56521739 1026 1098 c 1,23,-1
 1248 1098 l 1,24,-1
 1248 985 l 1,25,-1
 1026 985 l 1,26,-1
 1026 0 l 1,27,-1
 853 0 l 1,28,-1
 853 985 l 1,29,-1
 417 985 l 1,30,-1
 417 0 l 1,31,-1
 244 0 l 1,32,-1
 244 985 l 1,33,-1
 89 985 l 1,0,-1
EndSplineSet
EndChar

StartChar: fi
Encoding: 64257 64257 421
Width: 1186
Flags: W
HStem: 0 21G<262 407 883 1028> 990 115<85 262 407 883> 1407 167<892 1026> 1469 21G<668.5 690.712> 1484 145<451.842 686.227>
VStem: 262 145<0 990 1105 1438.99> 883 145<0 990 1407 1574>
LayerCount: 2
Fore
SplineSet
407 990 m 1,0,-1
 407 0 l 1,1,-1
 262 0 l 1,2,-1
 262 990 l 1,3,-1
 85 990 l 1,4,-1
 85 1105 l 1,5,-1
 262 1105 l 1,6,-1
 264 1227 l 1,7,8
 269.506849315 1629 269.506849315 1629 546 1629 c 0,9,10
 600 1629 600 1629 689 1608 c 1,11,-1
 691 1469 l 1,12,13
 646 1484 646 1484 561.5 1484 c 128,-1,14
 477 1484 477 1484 442.5 1428.5 c 128,-1,15
 408 1373 408 1373 408 1250 c 2,16,-1
 407 1105 l 1,17,-1
 1028 1105 l 1,18,-1
 1028 0 l 1,19,-1
 883 0 l 1,20,-1
 883 990 l 1,21,-1
 407 990 l 1,0,-1
892 1574 m 1,22,-1
 1026 1574 l 1,23,-1
 1026 1407 l 1,24,-1
 892 1407 l 1,25,-1
 892 1574 l 1,22,-1
EndSplineSet
EndChar

StartChar: fl
Encoding: 64258 64258 422
Width: 1386
Flags: W
HStem: -11 144<1112.08 1301> 985 113<88 244 417 679> 1386 122<484.178 886> 1386 104<743.201 886>
VStem: 244 173<0 985 1098 1318.92> 886 171<185.555 1386>
LayerCount: 2
Fore
SplineSet
88 985 m 1,0,-1
 88 1098 l 1,1,-1
 244 1098 l 1,2,3
 244 1321 244 1321 340 1419.5 c 128,-1,4
 436 1518 436 1518 663 1508 c 2,5,-1
 1057 1490 l 1,6,-1
 1057 425 l 2,7,8
 1057 219.790697674 1057 219.790697674 1090 191.395348837 c 0,9,10
 1157.86486486 133 1157.86486486 133 1263 133 c 2,11,-1
 1301 133 l 1,12,-1
 1301 -11 l 1,13,-1
 1263 -11 l 2,14,15
 1011.78787879 -11 1011.78787879 -11 945 105 c 0,16,17
 886 207.473684211 886 207.473684211 886 479 c 2,18,-1
 886 1386 l 1,19,-1
 642 1386 l 2,20,21
 475.298701299 1386 475.298701299 1386 439 1278.5 c 0,22,23
 417 1213.34615385 417 1213.34615385 417 1098 c 1,24,-1
 679 1098 l 1,25,-1
 679 985 l 1,26,-1
 417 985 l 1,27,-1
 417 0 l 1,28,-1
 244 0 l 1,29,-1
 244 985 l 1,30,-1
 88 985 l 1,0,-1
EndSplineSet
EndChar

StartChar: R.alt
Encoding: 65538 -1 423
Width: 1318
Flags: W
HStem: 0 21G<155 320 1008.84 1198> 647 159<320 676.118> 1306 160<320 857.028>
VStem: 155 165<0 647 806 1306> 971 176<924.445 1208.12>
DStem2: 1007.5 448.5 849 369 0.381121 -0.924525<-230.166 268.241>
LayerCount: 2
Fore
SplineSet
1147 1077 m 0,0,1
 1147 756.9375 1147 756.9375 832 690 c 1,2,3
 886.955345061 641.385656292 886.955345061 641.385656292 918.97767253 593.692828146 c 128,-1,4
 951 546 951 546 967.5 521.5 c 128,-1,5
 984 497 984 497 1007.5 448.5 c 128,-1,6
 1031 400 1031 400 1043 376 c 128,-1,7
 1055 352 1055 352 1081 289.5 c 128,-1,8
 1107 227 1107 227 1117 203.5 c 0,9,10
 1145.4 136.76 1145.4 136.76 1198 0 c 1,11,-1
 1018 0 l 1,12,-1
 849 369 l 1,13,14
 772 541 772 541 678 639 c 1,15,16
 618 647 618 647 530 647 c 2,17,-1
 320 647 l 1,18,-1
 320 0 l 1,19,-1
 155 0 l 1,20,-1
 155 1466 l 1,21,-1
 492 1466 l 1,22,-1
 664 1464 l 1,23,24
 888 1459 888 1459 1017.5 1360.5 c 128,-1,25
 1147 1262 1147 1262 1147 1077 c 0,0,1
971 1067 m 0,26,27
 971 1306 971 1306 630 1306 c 2,28,-1
 320 1306 l 1,29,-1
 320 806 l 1,30,-1
 630 806 l 2,31,32
 786 806 786 806 878.5 875.5 c 128,-1,33
 971 945 971 945 971 1067 c 0,26,27
EndSplineSet
EndChar

StartChar: R.alt.001
Encoding: 65539 -1 424
Width: 1318
Flags: W
HStem: 0 21G<155 320 1008.84 1198> 647 159<320 676.118> 1306 160<320 857.028>
VStem: 155 165<0 647 806 1306> 971 176<924.445 1208.12>
DStem2: 1007.5 448.5 849 369 0.381121 -0.924525<-230.166 268.241>
LayerCount: 2
Fore
SplineSet
1147 1077 m 0,0,1
 1147 756.9375 1147 756.9375 832 690 c 1,2,3
 886.955345061 641.385656292 886.955345061 641.385656292 918.97767253 593.692828146 c 128,-1,4
 951 546 951 546 967.5 521.5 c 128,-1,5
 984 497 984 497 1007.5 448.5 c 128,-1,6
 1031 400 1031 400 1043 376 c 128,-1,7
 1055 352 1055 352 1081 289.5 c 128,-1,8
 1107 227 1107 227 1117 203.5 c 0,9,10
 1145.4 136.76 1145.4 136.76 1198 0 c 1,11,-1
 1018 0 l 1,12,-1
 849 369 l 1,13,14
 772 541 772 541 678 639 c 1,15,16
 618 647 618 647 530 647 c 2,17,-1
 320 647 l 1,18,-1
 320 0 l 1,19,-1
 155 0 l 1,20,-1
 155 1466 l 1,21,-1
 492 1466 l 1,22,-1
 664 1464 l 1,23,24
 888 1459 888 1459 1017.5 1360.5 c 128,-1,25
 1147 1262 1147 1262 1147 1077 c 0,0,1
971 1067 m 0,26,27
 971 1306 971 1306 630 1306 c 2,28,-1
 320 1306 l 1,29,-1
 320 806 l 1,30,-1
 630 806 l 2,31,32
 786 806 786 806 878.5 875.5 c 128,-1,33
 971 945 971 945 971 1067 c 0,26,27
EndSplineSet
EndChar

StartChar: Scommaaccent
Encoding: 65540 -1 425
Width: 1218
Flags: W
HStem: -23 169<302.295 792.797> 1321 168<381.178 888.684>
VStem: 120 172<976.846 1238.94> 924 181<255.127 524.25>
DStem2: 713 823 446 705 0.95609 -0.293073<-392.641 240.946>
LayerCount: 2
Fore
SplineSet
173 267 m 1,0,1
 326.410714286 146 326.410714286 146 534.205357143 146 c 0,2,3
 924 146 924 146 924 392 c 0,4,5
 924 487 924 487 859 545.5 c 128,-1,6
 794 604 794 604 640 649 c 2,7,-1
 446 705 l 1,8,9
 120 808.058064516 120 808.058064516 120 1083 c 0,10,11
 120 1274 120 1274 253.5 1381.5 c 128,-1,12
 387 1489 387 1489 565 1489 c 0,13,14
 902.576923077 1489 902.576923077 1489 1052 1378 c 1,15,-1
 996 1225 l 1,16,17
 855.692307692 1321 855.692307692 1321 573.846153846 1321 c 128,-1,18
 292 1321 292 1321 292 1100 c 0,19,20
 292 1016 292 1016 344.5 967.5 c 128,-1,21
 397 919 397 919 514 884 c 2,22,-1
 713 823 l 2,23,24
 1009.08719346 731.653950954 1009.08719346 731.653950954 1077.5 560 c 0,25,26
 1105 491 1105 491 1105 401 c 0,27,28
 1105 192 1105 192 962.5 84.5 c 128,-1,29
 820 -23 820 -23 565 -23 c 128,-1,30
 310 -23 310 -23 113 103 c 1,31,-1
 173 267 l 1,0,1
428 -631 m 1,32,-1
 540 -163 l 1,33,-1
 733 -163 l 1,34,-1
 564 -631 l 1,35,-1
 428 -631 l 1,32,-1
EndSplineSet
EndChar

StartChar: a.alt
Encoding: 65541 -1 426
Width: 1112
Flags: W
HStem: -25 144<344.391 691.904> 0 21G<829.548 960> 490 120<375.176 791> 971 153<315.213 733.89>
VStem: 128 167<166.965 422.259> 791 169<172.384 490 610 914.07> 836 124<0 44.4416>
LayerCount: 2
Fore
SplineSet
191 1036 m 1,0,1
 340.837837838 1124 340.837837838 1124 573 1124 c 0,2,3
 960 1124 960 1124 960 806 c 2,4,-1
 960 0 l 1,5,-1
 836 0 l 1,6,-1
 816 62 l 1,7,8
 585 -25 585 -25 443 -25 c 128,-1,9
 301 -25 301 -25 214.5 59.5 c 128,-1,10
 128 144 128 144 128 247.5 c 128,-1,11
 128 351 128 351 136.5 397 c 128,-1,12
 145 443 145 443 170 476.5 c 128,-1,13
 195 510 195 510 215.5 533 c 128,-1,14
 236 556 236 556 287.5 570.5 c 128,-1,15
 339 585 339 585 371 593.5 c 128,-1,16
 403 602 403 602 480 605.5 c 0,17,18
 579 610 579 610 676.5 610 c 2,19,-1
 791 610 l 1,20,-1
 791 781 l 2,21,22
 791 971 791 971 578.988095238 971 c 128,-1,23
 366.976190476 971 366.976190476 971 225 882 c 1,24,-1
 191 1036 l 1,0,1
295 301 m 0,25,26
 295 119 295 119 481.1 119 c 0,27,28
 575.2 119 575.2 119 791 184 c 1,29,-1
 791 490 l 1,30,31
 486.076923077 490 486.076923077 490 425.038461538 467 c 128,-1,32
 364 444 364 444 339 422.5 c 0,33,34
 295 384.66 295 384.66 295 301 c 0,25,26
EndSplineSet
EndChar

StartChar: macron
Encoding: 65542 -1 427
Width: 770
Flags: W
HStem: 1275 143<136 637>
VStem: 136 501<1275 1418>
LayerCount: 2
Fore
SplineSet
637 1275 m 1,0,-1
 136 1275 l 1,1,-1
 136 1418 l 1,2,-1
 637 1418 l 1,3,-1
 637 1275 l 1,0,-1
EndSplineSet
EndChar

StartChar: periodcentered
Encoding: 65543 -1 428
Width: 468
Flags: W
HStem: 551 227<140 332>
VStem: 140 192<551 778>
LayerCount: 2
Fore
SplineSet
332 778 m 1,0,-1
 332 551 l 1,1,-1
 140 551 l 1,2,-1
 140 778 l 1,3,-1
 332 778 l 1,0,-1
EndSplineSet
EndChar

StartChar: scommaaccent
Encoding: 65544 -1 429
Width: 985
Flags: W
HStem: -25 142<267.931 671.544> 980 144<336.481 740.912>
VStem: 132 150<732.427 928.405> 729 148<171.723 391.904>
DStem2: 400.5 685.5 367 528 0.947384 -0.3201<-119.717 256.265>
LayerCount: 2
Fore
SplineSet
171 240 m 1,0,1
 259.938461538 117 259.938461538 117 494.469230769 117 c 128,-1,2
 729 117 729 117 729 290 c 0,3,4
 729 387.085714286 729 387.085714286 610.5 439 c 0,5,6
 558 462 558 462 494.5 482 c 128,-1,7
 431 502 431 502 367 528 c 128,-1,8
 303 554 303 554 250.5 589 c 0,9,10
 132 668 132 668 132 786 c 128,-1,11
 132 904 132 904 164.5 963.5 c 128,-1,12
 197 1023 197 1023 250.5 1056.5 c 0,13,14
 358.298507463 1124 358.298507463 1124 479.649253731 1124 c 0,15,16
 718.8125 1124 718.8125 1124 815 1043 c 1,17,-1
 779 911 l 1,18,19
 687 980 687 980 577.5 980 c 128,-1,20
 468 980 468 980 432 972.5 c 128,-1,21
 396 965 396 965 361 949 c 0,22,23
 282 912.885714286 282 912.885714286 282 846.442857143 c 128,-1,24
 282 780 282 780 315 744 c 128,-1,25
 348 708 348 708 400.5 685.5 c 128,-1,26
 453 663 453 663 516.5 642.5 c 128,-1,27
 580 622 580 622 643 596 c 128,-1,28
 706 570 706 570 758.5 535.5 c 0,29,30
 877 457.628571429 877 457.628571429 877 338.814285714 c 128,-1,31
 877 220 877 220 842 154.5 c 128,-1,32
 807 89 807 89 749 51 c 0,33,34
 633 -25 633 -25 433 -25 c 128,-1,35
 233 -25 233 -25 138 93 c 1,36,-1
 171 240 l 1,0,1
355 -672 m 1,37,-1
 464 -174 l 1,38,-1
 654 -174 l 1,39,-1
 490 -672 l 1,40,-1
 355 -672 l 1,37,-1
EndSplineSet
EndChar

StartChar: six.alt
Encoding: 65545 -1 430
Width: 1300
Flags: W
HStem: -26 169<481.932 838.004> 747 165<471.688 851.691> 1321 168<545.369 983.56>
VStem: 123 192<735 1009.78> 987 190<284.371 610.735>
LayerCount: 2
Fore
SplineSet
1070 1230 m 1,0,1
 931.225 1321 931.225 1321 775.6125 1321 c 128,-1,2
 620 1321 620 1321 543 1275.5 c 128,-1,3
 466 1230 466 1230 418.5 1149 c 0,4,5
 323.038834951 986.213592233 323.038834951 986.213592233 315 735 c 1,6,7
 432 912 432 912 681.5 912 c 128,-1,8
 931 912 931 912 1054 784 c 128,-1,9
 1177 656 1177 656 1177 448 c 0,10,11
 1177 246.699186992 1177 246.699186992 1050.5 113 c 0,12,13
 918.984615385 -26 918.984615385 -26 674 -26 c 0,14,15
 123 -26 123 -26 123 688 c 0,16,17
 123 1298.01546392 123 1298.01546392 495 1449.5 c 0,18,19
 592 1489 592 1489 718 1489 c 0,20,21
 989.425531915 1489 989.425531915 1489 1127 1383 c 1,22,-1
 1070 1230 l 1,0,1
661 747 m 128,-1,24
 499 747 499 747 416.5 659 c 128,-1,25
 334 571 334 571 334 440.5 c 128,-1,26
 334 310 334 310 425 226.5 c 128,-1,27
 516 143 516 143 660.5 143 c 128,-1,28
 805 143 805 143 896 229 c 128,-1,29
 987 315 987 315 987 445 c 128,-1,30
 987 575 987 575 905 661 c 128,-1,23
 823 747 823 747 661 747 c 128,-1,24
EndSplineSet
EndChar

StartChar: u.alt
Encoding: 65546 -1 431
Width: 1183
Flags: W
HStem: -25 164<391.741 689.768> 0 21G<872.795 1030> 1078 20G<141 310 858 1028>
VStem: 141 169<238.812 1098> 858 170<291.883 1098> 874 156<0 166>
LayerCount: 2
Fore
SplineSet
1028 270 m 1,0,-1
 1030 0 l 1,1,-1
 874 0 l 1,2,-1
 864 166 l 1,3,4
 733 -25 733 -25 494 -25 c 0,5,6
 141 -25 141 -25 141 444 c 2,7,-1
 141 1098 l 1,8,-1
 310 1098 l 1,9,-1
 310 549 l 2,10,11
 310 278.306122449 310 278.306122449 371.5 203 c 0,12,13
 423.766666667 139 423.766666667 139 533.883333333 139 c 128,-1,14
 644 139 644 139 740 217 c 128,-1,15
 836 295 836 295 858 381 c 1,16,-1
 858 1098 l 1,17,-1
 1028 1098 l 1,18,-1
 1028 270 l 1,0,-1
EndSplineSet
EndChar

StartChar: y.alt
Encoding: 65547 -1 432
Width: 1189
Flags: W
HStem: -472 21G<258.62 426.5> 1078 20G<87 279.707 891.653 1082>
DStem2: 272 1098 87 1098 0.356868 -0.934155<0 892.706> 593 265 673 -46 0.336649 0.94163<0 887.393>
LayerCount: 2
Fore
SplineSet
593 265 m 1,0,-1
 899 1098 l 1,1,-1
 1082 1098 l 1,2,-1
 673 -46 l 1,3,4
 581 -272 581 -272 272 -472 c 1,5,-1
 177 -330 l 1,6,7
 385.51738076 -193.825383994 385.51738076 -193.825383994 473 -14 c 1,8,-1
 495 30 l 1,9,-1
 87 1098 l 1,10,-1
 272 1098 l 1,11,-1
 593 265 l 1,0,-1
EndSplineSet
EndChar
